<svg width="790" height="603" viewBox="0 0 790 603" fill="none" xmlns="http://www.w3.org/2000/svg">
<path d="M490.987 36.915C492.175 34.8166 492.962 32.7182 493.644 31.1833C493.976 30.4158 494.15 29.7552 494.325 29.3083C494.482 28.8614 494.57 28.5991 494.57 28.5991C494.535 28.5991 494.448 28.6866 494.395 28.7254C494.133 29.4832 493.923 30.2215 493.661 30.9307C493.364 31.6399 493.084 32.3393 492.787 33.0194C492.507 33.6994 492.228 34.36 491.948 35.0206C491.616 35.6618 491.301 36.2933 490.987 36.915Z" fill="#B7B7A5"/>
<path d="M487.561 45.1437C487.858 44.7259 488.173 44.3082 488.488 43.8905L489.292 42.5984C489.082 42.8801 489.012 42.919 488.872 43.0744C488.523 43.735 488.103 44.3762 487.544 45.1437H487.561Z" fill="#B7B7A5"/>
<path d="M494.395 28.7254C493.714 29.318 492.071 32.7279 493.032 28.4437C493.906 26.151 494.71 22.673 495.269 19.1757C495.759 15.6783 495.759 12.1616 495.601 9.82028C494.937 5.17657 495.077 9.83971 494.815 9.83971C494.675 7.52757 494.256 5.22515 493.836 3.53476C493.417 1.84438 492.945 0.766026 492.927 0.863175C491.162 -2.02214 493.976 2.52442 494.116 11.5398C494.727 16.5041 494.046 23.4794 491.826 30.1438C489.606 36.8179 485.796 43.1131 482.86 47.0768C479.888 51.0307 478.42 52.8377 480.622 50.613C481.147 50.0495 481.916 49.2335 482.93 48.1454C483.821 47.0185 484.922 45.6001 486.285 43.8709C488.732 40.3444 491.966 35.4481 494.395 28.7157V28.7254Z" fill="#B7B7A5"/>
<path d="M469.052 63.5629C470.188 62.7274 471.167 61.8434 472.163 60.9496L475.169 58.2975C477.074 56.5002 478.84 54.6544 480.64 52.828C483.926 49.0781 487.072 45.2698 489.431 41.3062C489.746 40.6747 490.096 39.9947 490.41 39.3632C490.655 38.722 490.882 38.1294 491.057 37.6922C491.371 36.8179 491.337 36.5556 490.567 37.7408C483.803 50.0884 476.48 57.0151 469.034 63.5629H469.052Z" fill="#B7B7A5"/>
<path d="M554.678 540.466C554.678 540.466 554.87 540.505 555.762 540.883C555.971 540.981 556.233 541.097 556.566 541.243C556.845 541.408 557.177 541.593 557.579 541.816C557.964 542.04 558.418 542.292 558.925 542.574C559.397 542.885 559.869 543.254 560.446 543.652C560.009 543.341 559.572 543.04 559.135 542.739C558.68 542.447 558.174 542.195 557.702 541.933C557.212 541.67 556.775 541.398 556.268 541.155L554.695 540.466C554.695 540.466 554.678 540.514 554.363 540.407C554.206 540.359 553.979 540.262 553.594 540.106C553.192 539.97 552.615 539.776 551.829 539.504C553.384 539.999 554.765 540.641 556.181 541.262C557.474 541.962 558.855 542.632 559.939 543.458C561.162 544.225 562.054 545.139 563.05 546.013C563.836 546.955 564.728 547.888 565.252 548.918C565.969 549.909 566.248 550.987 566.72 552.046C566.878 552.58 566.965 553.134 567.105 553.678C567.245 554.222 567.367 554.776 567.35 555.329L567.454 557.01C567.489 557.574 567.385 558.137 567.35 558.701C567.297 559.264 567.28 559.837 567.175 560.401L566.808 562.11C565.759 566.676 563.522 571.252 560.743 575.74C559.397 577.994 557.772 580.199 556.181 582.414L553.612 585.688C552.773 586.786 551.864 587.865 550.92 588.933C550.011 590.06 549.12 591.177 548.263 592.256C547.354 593.324 546.463 594.354 545.624 595.335C550.553 590.118 555.08 584.785 558.855 579.315C560.76 576.586 562.456 573.817 563.906 571.029C564.658 569.63 565.2 568.221 565.846 566.812C566.283 565.394 566.913 563.985 567.192 562.557C567.979 559.711 568.101 556.845 567.699 554.037C567.28 551.23 565.986 548.49 563.697 546.052C561.424 543.613 558.104 541.515 554.119 539.922C550.134 538.319 545.554 537.192 540.835 536.405C531.344 534.841 521.329 534.501 511.576 534.627C501.806 534.773 492.176 535.404 482.825 536.298C464.088 538.066 446.383 540.757 429.848 543.662C453.321 539.688 473.526 537.007 493.749 535.589C503.851 534.909 514.006 534.549 524.388 534.996C529.579 535.22 534.823 535.647 540.014 536.473C545.17 537.299 550.291 538.542 554.713 540.456L554.678 540.466Z" fill="#B7B7A5"/>
<path d="M543.194 598.784C541.761 600.221 540.433 601.572 539.017 603C540.94 601.115 541.988 600.076 542.565 599.503C543.124 598.929 543.212 598.813 543.194 598.784Z" fill="#B7B7A5"/>
<path d="M365.528 338.649C341.181 344.186 318.232 349.296 295.79 354.008C284.639 356.379 273.313 358.613 261.934 360.42C250.556 362.246 239.09 363.762 227.485 364.966C239.824 363.723 252.077 362.13 264.137 360.187C276.214 358.263 288.029 355.854 299.53 353.445C322.636 348.626 345.271 343.584 367.119 338.591C410.814 328.604 451.486 318.947 486.652 311.447C446.173 319.977 406.147 329.488 365.528 338.639V338.649Z" fill="#B7B7A5"/>
<path d="M5.91254 336.074C10.2471 340.572 16.1548 344.254 22.4819 347.295C28.844 350.336 35.6605 352.774 42.547 354.853C49.4509 356.922 56.4597 358.632 63.451 360.089C70.4598 361.508 77.4336 362.722 84.39 363.733C112.198 367.677 139.01 368.94 165 368.765C138.538 368.872 112.058 367.395 86.3126 363.81C79.898 362.878 73.501 361.867 67.2263 360.614C60.9341 359.409 54.7468 357.991 48.6993 356.378C42.6344 354.795 36.7617 352.9 31.1337 350.763C25.5232 348.616 20.1398 346.197 15.4207 343.302C11.8901 341.136 8.37697 338.658 5.91254 336.074Z" fill="#B7B7A5"/>
<path d="M66.9816 360.274C95.9082 365.89 123.996 367.823 150.598 368.328C177.252 368.755 202.7 367.531 227.502 364.976C199.589 367.765 171.432 368.755 144.253 368.037C130.655 367.658 117.319 366.842 104.368 365.569C91.4162 364.316 78.8843 362.567 66.9991 360.274H66.9816Z" fill="#B7B7A5"/>
<path d="M412.142 462.591C375.281 469.372 354.097 474.968 342.282 478.232C337.126 479.767 330.327 481.836 321.605 484.955C323.475 484.304 325.52 483.653 327.425 483.041C344.414 477.581 362.784 473.044 381.625 469.013C400.502 464.991 419.955 461.493 439.741 458.355C455.891 455.742 471.429 453.508 484.52 451.73C460.103 454.819 435.773 458.394 412.125 462.591H412.142Z" fill="#B7B7A5"/>
<path d="M342.299 478.232C347.805 476.59 351.3 475.628 353.171 475.094C355.058 474.56 355.338 474.453 354.551 474.628C352.978 474.987 347.141 476.483 341.513 478.125C335.85 479.738 330.431 481.506 329.208 481.963C328.596 482.186 329.016 482.089 331.008 481.496C333.001 480.904 336.549 479.825 342.317 478.232H342.299Z" fill="#B7B7A5"/>
<path d="M580.126 432.757C581.961 432.358 583.849 431.95 585.702 431.552C591.05 430.367 596.503 429.094 601.764 427.841C594.458 429.59 587.45 431.183 580.144 432.766L580.126 432.757Z" fill="#B7B7A5"/>
<path d="M562.281 294.136C578.99 291.707 596.014 289.783 613.265 288.822C630.481 287.889 648.029 287.967 664.983 290.036C647.522 287.889 629.537 287.86 612.146 288.851C594.72 289.861 577.749 291.843 561.424 294.233C528.757 299.061 498.537 305.385 471.394 311.311C479.486 309.572 487.736 307.901 495.898 306.24C512.171 302.782 536.762 297.798 562.281 294.126V294.136Z" fill="#B7B7A5"/>
<path d="M323.073 479.553C338.926 474.453 355.6 470.247 372.484 466.516C389.386 462.795 406.532 459.56 423.748 456.655C440.964 453.751 458.268 451.167 475.554 448.854C492.84 446.552 510.161 444.454 527.377 442.744C547.512 439.548 566.878 435.72 585.684 431.562C606.885 426.909 627.562 421.672 647.33 415.639C667.046 409.587 685.957 402.767 702.631 394.607C710.986 390.536 718.659 386.087 725.388 381.258C732.03 376.401 737.71 371.136 741.468 365.482C743.356 362.664 744.859 359.759 745.715 356.796C746.257 355.329 746.414 353.833 746.729 352.347C746.781 350.851 747.026 349.365 746.851 347.868C746.781 344.886 745.942 341.923 744.876 339.018C744.212 337.58 743.67 336.123 742.796 334.715L741.573 332.597L740.122 330.518C736.137 325.019 730.946 319.763 724.776 314.984L722.434 313.206L719.935 311.496C718.327 310.33 716.457 309.291 714.709 308.203C711.021 306.124 707.211 304.113 702.981 302.403C700.953 301.48 698.716 300.732 696.584 299.906C694.329 299.178 692.162 298.381 689.82 297.749C685.258 296.37 680.434 295.301 675.557 294.349C670.664 293.417 665.647 292.737 660.596 292.173C655.527 291.678 650.424 291.26 645.303 291.085C635.06 290.658 624.801 290.832 614.646 291.386C604.508 291.93 594.476 292.843 584.601 293.98C564.833 296.273 545.659 299.44 526.975 302.928C494.081 309.067 455.803 317.684 414.624 327.205C373.428 336.696 329.278 347.052 284.132 356.155C238.531 365.239 189.732 368.833 144.638 367.677C122.073 367.075 100.383 365.297 80.4225 362.256C70.4424 360.731 60.8992 358.895 51.9678 356.68C43.0364 354.475 34.6993 351.89 27.3235 348.83C33.5982 351.512 40.2224 353.688 46.8642 355.572C53.5059 357.467 60.2525 358.992 66.9467 360.313C57.0191 358.409 47.5808 356.126 38.8242 353.367C30.12 350.579 22.0975 347.286 15.3683 343.341C10.0724 340.155 5.52807 336.366 2.83642 332.062C0.0923322 327.778 -0.676712 323.047 0.599202 318.588C1.84016 314.109 4.91633 309.951 8.81399 306.24C12.7291 302.519 17.4657 299.187 22.5344 296.088C32.8466 290.016 44.4522 284.897 56.5646 280.331C68.6771 275.765 81.3313 271.762 94.1953 268.08C119.958 260.736 146.648 254.538 173.669 249.146C187.18 246.465 200.69 243.783 214.201 241.102L224.339 239.091C227.747 238.46 231.173 237.877 234.598 237.265L255.135 233.631C268.838 231.232 282.471 228.677 296.401 226.637C310.279 224.499 324.122 222.265 338.07 220.196C352.087 218.301 366.14 216.407 380.192 214.503L385.471 213.794L390.784 213.182L401.428 211.958C408.524 211.141 415.638 210.325 422.734 209.519C479.731 203.379 537.899 199.017 597.132 198.143C601.52 198.085 605.767 197.939 609.927 197.958C614.086 197.958 618.141 197.958 622.126 197.949C630.097 197.881 637.804 198.046 645.512 198.162C649.358 198.192 653.22 198.337 657.118 198.473C661.016 198.619 664.931 198.697 668.951 198.94C672.953 199.144 677.026 199.348 681.273 199.668C682.322 199.736 683.388 199.814 684.541 199.921L684.996 199.96L685.607 199.989L687.215 200.076C689.348 200.203 691.515 200.329 693.7 200.465C711.423 201.621 728.919 203.059 746.327 205.303C750.679 205.876 755.031 206.498 759.383 207.236C763.735 207.974 768.087 208.81 772.474 209.927C774.659 210.471 776.879 211.122 779.116 211.909L780.794 212.54L782.49 213.279C783.049 213.531 783.626 213.852 784.185 214.143L784.604 214.367L785.094 214.678L786.02 215.329C788.432 217.106 789.76 219.419 788.974 221.624C788.642 222.712 787.855 223.8 786.842 224.723L786.038 225.403C785.758 225.626 785.461 225.869 785.234 226.005L783.713 226.957C783.608 227.045 784.045 226.802 784.971 226.248C782.857 227.647 780.672 228.541 778.522 229.425C776.372 230.251 774.205 230.969 772.055 231.611C767.738 232.912 763.421 233.942 759.104 234.923C750.452 236.847 741.765 238.421 733.061 239.859C724.339 241.287 715.635 242.588 706.861 243.783L693.578 245.483C689.156 246.047 684.664 246.445 680.207 246.931C644.481 250.603 608.074 251.769 571.737 251.176C535.382 250.506 499.079 247.99 463.057 243.929C427.034 239.839 391.273 234.302 356.002 226.957C351.86 226.083 347.753 225.189 343.628 224.247L340.517 223.518L338.699 223.081C337.528 222.751 337.336 222.663 336.759 222.488C334.784 221.867 332.861 221.225 330.938 220.584C323.3 218.01 315.855 215.299 308.601 212.424C294.094 206.673 280.164 200.358 267.685 192.984C261.48 189.283 255.625 185.319 250.573 180.928C248.074 178.723 245.767 176.411 243.757 173.982C241.799 171.534 240.156 168.96 239.02 166.269C236.626 160.906 236.87 154.931 239.964 149.491C241.537 146.78 243.809 144.245 246.431 141.894C249.105 139.562 252.199 137.445 255.502 135.502C258.019 134.073 260.274 132.859 262.406 131.897C263.455 131.412 264.434 130.936 265.377 130.528C266.339 130.129 267.23 129.76 268.087 129.401C269.765 128.682 271.303 128.109 272.718 127.603C274.134 127.098 275.375 126.612 276.633 126.214C279.133 125.427 281.318 124.65 283.974 123.902C285.285 123.513 286.701 123.096 288.291 122.62C289.882 122.173 291.665 121.687 293.692 121.124C301.82 118.957 309.807 117.063 317.742 115.46C321.675 114.615 325.643 113.915 329.523 113.157C333.263 112.419 336.986 111.69 340.674 110.962C348.12 109.592 355.146 107.843 362.312 106.27C365.878 105.453 369.303 104.501 372.799 103.617C376.295 102.724 379.808 101.84 383.181 100.8C386.589 99.7994 390.015 98.7891 393.476 97.7787C396.814 96.6712 400.187 95.554 403.596 94.4271L406.147 93.5722L408.629 92.6493C410.29 92.0275 411.95 91.4058 413.628 90.784C415.289 90.1428 417.036 89.56 418.644 88.8702C420.27 88.1804 421.913 87.5004 423.556 86.8009C436.699 81.2343 449.546 74.5893 461.204 66.2929C461.204 66.2929 461.414 66.3803 461.519 66.4289C468.492 61.2508 473.823 56.2671 477.826 52.0897C474.033 56.646 467.688 62.7275 460.208 68.1581C458.285 69.489 456.52 70.888 454.545 72.1218C452.587 73.3653 450.665 74.5796 448.847 75.7357C447.012 76.882 445.107 77.8827 443.429 78.8445C441.716 79.7965 440.23 80.7 438.779 81.4383C433.012 84.3625 430.442 85.7517 434.06 84.1682C435.826 83.3521 439.374 81.9241 444.303 79.2525C445.561 78.6016 446.924 77.8827 448.41 77.1055C449.878 76.3186 451.346 75.3957 452.989 74.4339C453.811 73.9482 454.65 73.4527 455.524 72.9281C456.415 72.4132 457.306 71.8692 458.163 71.2766C459.911 70.1011 461.781 68.8576 463.756 67.5266C460.278 69.9068 457.324 72.1315 454.055 74.0453C453.653 74.2882 453.304 74.5019 452.937 74.7254C452.989 74.7059 452.989 74.7059 453.024 74.6865C449.214 77.1638 445.316 79.1456 441.908 81.0692C438.412 82.9441 435.004 84.5082 431.963 86.0626C425.583 88.9673 420.095 91.4738 414.292 93.7276C426.789 88.9965 438.692 83.731 449.249 77.6787C447.326 78.8542 446.12 79.6508 447.361 79.1165C446.435 79.6411 445.596 80.1268 444.565 80.7097C443.341 81.3509 442.223 82.0018 441.104 82.5458C439.985 83.0801 438.972 83.5659 438.115 83.9836C436.402 84.7997 435.336 85.3146 435.336 85.3146C433.728 86.1597 432.575 86.7912 431.788 87.2284C429.831 88.0833 427.803 88.9673 425.741 89.8805C423.643 90.7743 421.598 91.7652 419.291 92.6104C417.036 93.4848 414.747 94.3785 412.44 95.2723C411.286 95.7192 410.133 96.1758 408.961 96.6032L405.361 97.8467C400.554 99.4983 395.8 101.189 390.994 102.578C386.24 104.025 381.713 105.463 377.343 106.58C373.009 107.736 369.094 108.854 365.633 109.728C362.155 110.573 359.218 111.282 357.016 111.826C352.612 112.914 351.108 113.332 353.957 112.759C356.125 112.293 359.446 111.554 363.675 110.583C364.724 110.34 365.843 110.087 367.014 109.815C368.15 109.514 369.356 109.203 370.597 108.873C373.079 108.212 375.77 107.503 378.619 106.746C380.035 106.357 381.521 105.988 383.006 105.56C384.474 105.113 385.978 104.667 387.516 104.2C390.592 103.268 393.79 102.296 397.111 101.296C400.327 100.198 403.666 99.0611 407.056 97.905C407.913 97.6136 408.769 97.3221 409.626 97.0307C410.482 96.7295 411.304 96.3992 412.143 96.0786C413.82 95.4374 415.516 94.7865 417.229 94.1356C418.889 93.5236 420.882 92.8533 422.769 92.0858C413.838 95.554 409.381 97.3124 407.284 98.0119C405.239 98.7599 405.763 98.6628 406.759 98.4005C408.752 97.8759 412.614 96.7198 401.428 100.528C397.74 101.83 393.843 102.947 389.998 104.093L384.23 105.823C382.325 106.415 380.297 106.882 378.34 107.426C374.389 108.455 370.474 109.534 366.489 110.534L354.412 113.352C350.409 114.333 346.267 115.1 342.177 115.955L329.89 118.442C321.692 120.006 313.67 121.813 305.77 123.756C297.73 125.738 290.022 128.002 282.751 130.547C275.515 133.112 268.681 135.968 262.913 139.349C257.18 142.72 252.426 146.586 249.857 150.88C248.598 153.027 247.812 155.242 247.585 157.477C247.41 159.721 247.777 161.965 248.563 164.16C249.315 166.366 250.626 168.503 252.164 170.582C253.702 172.661 255.572 174.662 257.67 176.586C261.812 180.452 266.846 184.018 272.211 187.389C283.048 194.092 295.405 199.96 308.339 205.322C314.824 208.004 321.465 210.559 328.264 212.987C331.673 214.202 335.098 215.387 338.576 216.523L341.198 217.369L342.509 217.786C342.998 217.942 343.208 218.01 343.698 218.117C345.55 218.564 347.403 218.991 349.291 219.419C364.322 222.809 379.738 225.782 395.433 228.502C426.842 233.933 459.474 238.285 493.749 241.316C499.796 241.889 505.809 242.297 511.821 242.792C545.17 245.182 577.906 246.202 610.364 245.532L622.528 245.231L634.658 244.716C638.713 244.58 642.733 244.298 646.753 244.055C650.773 243.783 654.828 243.618 658.831 243.249C662.851 242.919 666.871 242.588 670.891 242.268C674.911 241.928 678.896 241.462 682.916 241.063L688.928 240.441C690.921 240.208 692.913 239.946 694.906 239.693C698.891 239.188 702.894 238.683 706.896 238.168C702.824 238.732 698.559 239.324 694.207 239.927C707.123 238.372 719.987 236.526 732.676 234.418C739.021 233.359 745.313 232.232 751.483 230.95C757.635 229.658 763.77 228.269 769.363 226.472C772.16 225.587 774.852 224.587 777.001 223.411C778.015 222.78 778.924 222.226 779.361 221.585C779.868 220.953 779.99 220.215 779.606 219.555C779.221 218.865 778.47 218.35 777.473 217.796C776.477 217.223 775.166 216.737 773.873 216.261C771.216 215.338 768.262 214.6 765.238 213.93C759.173 212.618 752.829 211.617 746.414 210.753C740 209.888 733.515 209.169 726.996 208.528C719.008 207.741 710.968 207.081 702.894 206.507C698.856 206.216 694.819 205.954 690.781 205.711L684.716 205.371C684.332 205.361 683.423 205.293 683.038 205.254L681.57 205.128L678.564 204.924C662.501 203.826 646.177 203.525 629.869 203.302C621.707 203.331 613.527 203.282 605.347 203.37C597.167 203.525 588.97 203.69 580.773 203.846C572.576 204.156 564.378 204.467 556.163 204.778L549.994 205.011L543.841 205.351C539.734 205.585 535.626 205.818 531.519 206.051C515.037 206.847 498.607 208.266 482.056 209.5L475.851 209.976L469.663 210.568C465.539 210.967 461.414 211.355 457.271 211.754C449.004 212.56 440.702 213.308 432.382 214.163C424.115 215.115 415.813 216.077 407.493 217.038C403.333 217.514 399.174 218 394.996 218.476L388.739 219.195C386.642 219.438 384.579 219.749 382.499 220.021C374.18 221.148 365.843 222.275 357.47 223.411C353.276 223.975 349.098 224.548 344.886 225.111L338.576 225.966L332.302 226.938C323.545 228.308 314.789 229.668 306.067 231.028C301.697 231.708 297.345 232.388 292.993 233.068C288.641 233.748 284.271 234.399 279.989 235.195C262.773 238.246 245.627 241.277 228.516 244.308C211.597 247.669 194.713 251.021 177.829 254.373C160.927 257.695 144.34 261.396 128.016 265.428C111.709 269.469 95.646 273.861 80.2302 278.854C72.5747 281.399 64.9542 283.983 57.7357 286.888C50.4822 289.754 43.4384 292.795 37.0414 296.185C30.6094 299.556 24.6668 303.209 19.9127 307.251C15.1936 311.282 11.5581 315.722 10.6667 320.346C10.3171 321.493 10.4045 322.649 10.3696 323.805C10.4045 324.378 10.5618 324.951 10.6492 325.524C10.7016 325.806 10.7366 326.097 10.824 326.379L11.1561 327.224C11.8902 329.498 13.4982 331.674 15.5256 333.733C17.4832 335.822 20.2098 337.687 23.0413 339.504C24.5794 340.359 26.0126 341.272 27.708 342.049L30.1724 343.264L32.7767 344.4C27.0438 341.962 21.8877 339.144 17.9027 335.919C16.819 335.142 16.05 334.268 15.1586 333.442C14.2847 332.606 13.6904 331.693 12.9389 330.829C11.8203 329.022 10.8065 327.186 10.5269 325.281C9.77529 321.493 10.8589 317.587 13.4457 313.915C16.015 310.233 19.8777 306.775 24.4396 303.588C33.5982 297.205 45.0989 291.726 57.4211 286.869C69.7607 282.002 82.9568 277.688 96.5899 273.715C108.86 270.169 121.374 266.895 134.011 263.903C140.286 262.349 146.665 260.979 152.94 259.531C156.103 258.851 159.267 258.171 162.43 257.491C165.577 256.811 168.705 256.121 171.904 255.519C168.6 256.15 165.367 256.86 162.133 257.549C158.9 258.249 155.684 258.939 152.468 259.628C146.088 261.086 139.691 262.475 133.434 264.029C120.85 267.021 108.562 270.247 96.6073 273.725C84.8095 277.144 73.2214 280.826 62.2101 284.945C51.2163 289.064 40.7643 293.621 31.693 298.808C29.3335 300.071 27.341 301.48 25.1911 302.811C23.2685 304.239 21.2061 305.609 19.5456 307.115C16.0675 310.068 13.201 313.206 11.5231 316.489C9.86268 319.763 9.35581 323.173 10.3346 326.437C11.2959 329.711 13.638 332.82 16.9239 335.608C20.1923 338.406 24.3347 340.893 28.949 343.06C33.5457 345.236 38.562 347.13 43.7181 348.83C54.1701 352.133 65.1989 354.669 76.2976 356.563C98.4775 360.381 120.553 362.072 140.88 362.664C145.284 362.878 147.487 362.926 149.654 363.014C151.821 363.101 153.954 363.16 158.236 363.189C173.284 363.334 188.351 362.907 203.19 361.984C218.011 361.061 232.623 359.672 246.728 357.778C260.868 355.893 274.396 353.523 287.418 350.822C300.509 348.131 313.163 345.401 325.241 342.7C325.241 342.7 325.608 342.603 326.254 342.457C326.901 342.312 327.81 342.108 328.894 341.865C331.043 341.379 333.805 340.757 336.339 340.194C341.373 339.057 345.393 338.115 341.303 338.95C389.718 328.196 445.648 314.682 494.78 304.501C516.086 300.12 537.514 295.952 559.572 292.542C570.391 290.939 581.332 289.54 592.431 288.443C603.53 287.355 614.786 286.568 626.181 286.344C631.879 286.189 637.612 286.257 643.345 286.402C649.095 286.626 654.846 286.927 660.561 287.51C671.992 288.637 683.335 290.609 693.787 293.698C696.444 294.417 698.926 295.321 701.478 296.156C703.925 297.089 706.424 297.973 708.714 299.012C711.108 299.984 713.293 301.091 715.53 302.17C716.631 302.714 717.663 303.306 718.729 303.88C719.795 304.443 720.844 305.026 721.822 305.638L724.794 307.455L727.59 309.349C729.513 310.593 731.121 311.953 732.886 313.254C736.155 315.945 739.266 318.704 741.922 321.57C747.341 327.273 751.868 333.481 753.93 340.077C756.185 346.644 755.975 353.552 753.371 360.148C752.112 363.451 750.102 366.647 747.813 369.746C745.471 372.836 742.569 375.77 739.441 378.597C736.242 381.404 732.711 384.066 728.989 386.631C725.178 389.147 721.246 391.605 717.033 393.888C700.254 403.097 680.958 410.597 660.788 417.194C640.566 423.771 619.33 429.425 597.482 434.467C586.558 436.983 575.459 439.344 564.203 441.549C558.575 442.647 552.912 443.715 547.197 444.735C544.331 445.231 541.464 445.736 538.58 446.231L534.228 446.95L529.422 447.708C527.097 447.941 524.685 448.184 522.186 448.437C519.809 448.689 517.379 448.952 514.88 449.224C509.898 449.777 504.725 450.37 499.551 450.992C475.309 453.896 449.354 457.501 423.783 461.814C398.212 466.127 372.991 471.16 350.549 476.979C377.71 469.868 406.847 464.262 436.734 459.415C451.696 457.005 466.902 454.8 482.283 452.779C489.973 451.769 497.716 450.807 505.494 449.894C509.392 449.457 513.289 449.01 517.187 448.573L523.06 447.941L529.264 447.32C530.977 447.048 532.708 446.775 534.438 446.494C536.046 446.222 537.654 445.959 539.262 445.687C542.495 445.134 545.729 444.56 548.997 443.968C555.517 442.783 562.089 441.529 568.625 440.208C604.578 433.058 638.923 424.509 669.3 414.066C684.454 408.839 698.611 403.107 711.056 396.744C723.483 390.39 734.215 383.337 741.87 375.643C749.019 368.522 753.755 360.478 754.542 352.172C754.14 355.3 753.423 358.429 751.955 361.45C751.361 362.985 750.382 364.452 749.578 365.938C748.547 367.386 747.673 368.872 746.467 370.261C741.975 375.944 735.875 381.113 729.041 385.824C715.233 395.238 698.506 402.884 681.011 409.529C663.462 416.183 644.971 421.808 626.146 426.85C607.287 431.873 588.061 436.283 568.608 440.199C562.246 441.461 555.831 442.666 549.329 443.822C546.078 444.405 542.81 444.968 539.524 445.522L534.56 446.338C532.778 446.62 530.977 446.892 529.177 447.174L523.112 447.766L517.362 448.359C513.516 448.777 509.671 449.204 505.826 449.622C498.136 450.496 490.463 451.419 482.807 452.4C467.496 454.353 452.255 456.51 437.276 458.87C438.15 458.725 438.937 458.598 439.846 458.453C454.37 456.15 469.052 454.042 483.891 452.119C491.302 451.157 498.765 450.234 506.245 449.36C509.986 448.942 513.744 448.514 517.502 448.087L523.147 447.485L529.09 446.892C530.348 446.698 531.624 446.494 532.9 446.29C534.053 446.095 535.224 445.911 536.396 445.717C538.72 445.318 541.045 444.92 543.369 444.522C575.792 438.887 606.815 432.057 635.375 424.12C649.637 420.137 663.253 415.863 675.959 411.219C688.666 406.595 700.447 401.592 710.916 396.19C716.142 393.509 721.053 390.643 725.458 387.767C734.791 381.734 742.866 374.847 747.987 367.191C743.181 374.361 735.683 380.763 727.171 386.495C718.554 392.207 708.836 397.278 698.559 401.854C677.952 411.005 655.353 418.359 632.229 424.762C603.46 432.669 573.677 439.169 543.404 444.531L536.448 445.697L532.952 446.261L529.107 446.853L523.287 447.417L517.764 447.99L506.717 449.194C499.359 450.02 492.001 450.904 484.677 451.827C486.705 451.555 488.872 451.264 490.725 451.011C495.322 450.419 502.156 449.534 509.182 448.631C512.677 448.194 516.226 447.747 519.564 447.329C522.972 446.912 526.171 446.523 528.862 446.193C529.229 446.125 529.596 446.066 529.946 446.008C530.208 445.959 530.488 445.911 530.733 445.862C531.239 445.765 531.729 445.678 532.201 445.59C533.11 445.406 533.931 445.25 534.63 445.114C536.011 444.832 536.902 444.629 537.165 444.531C537.671 444.337 535.661 444.609 529.824 445.474C529.439 445.532 529.037 445.59 528.635 445.658C526.52 445.862 524.405 446.076 522.273 446.29C520.211 446.503 518.131 446.727 516.033 446.941C511.856 447.407 507.644 447.883 503.379 448.359C494.867 449.34 486.25 450.409 477.564 451.555C460.19 453.848 442.572 456.432 425.251 459.337C390.644 465.137 357.051 472.16 329.68 480.583C316.03 484.79 303.97 489.356 294.531 494.184C285.058 498.983 278.399 504.074 274.956 508.698C273.243 511.01 272.281 513.167 271.722 515.081C271.303 517.014 271.215 518.617 271.373 520.035C271.547 521.463 271.687 522.561 271.775 523.309C271.809 523.678 271.844 523.97 271.914 524.154C271.949 524.339 271.984 524.436 271.984 524.436C272.019 524.718 271.949 524.524 271.74 523.892C271.635 523.251 271.477 522.182 271.25 520.735C271.198 520.375 271.145 519.987 271.075 519.579C271.023 519.18 271.075 518.782 271.058 518.355C271.058 517.927 271.023 517.48 271.093 517.014C271.163 516.548 271.25 516.072 271.338 515.566C271.792 513.575 272.666 511.292 274.396 508.892C277.839 504.083 284.621 498.896 293.762 494.194C302.851 489.472 314.054 485.159 325.835 481.399C349.43 473.831 375.124 468.265 394 464.534C412.912 460.823 425.111 458.87 423.014 459.181C410.744 461.212 398.544 463.407 386.537 465.817C397.915 463.446 409.171 461.328 419.606 459.482C432.015 457.326 446.627 455.043 460.295 453.119C473.963 451.176 486.67 449.554 495.147 448.466C500.478 447.786 505.896 447.125 511.402 446.484C514.146 446.173 516.925 445.862 519.721 445.551C521.119 445.406 522.518 445.25 523.933 445.105C525.384 444.959 526.817 444.813 528.286 444.667C529.911 444.405 531.519 444.143 533.162 443.88C534.735 443.618 536.326 443.346 537.916 443.084C541.08 442.52 544.243 441.967 547.442 441.393C553.804 440.237 560.201 439.013 566.598 437.731C579.41 435.157 592.326 432.339 605.172 429.24C630.866 423.032 656.471 415.717 680.067 406.624C689.068 403.156 698.122 399.192 706.931 394.723C711.283 392.46 715.583 390.089 719.673 387.534C723.728 384.969 727.643 382.269 731.226 379.374C738.252 373.574 744.142 367.055 746.939 359.973C748.372 356.447 749.089 352.813 749.054 349.18C748.966 345.537 748.057 341.913 746.572 338.377C746.537 338.377 746.414 338.163 746.222 337.784C746.047 337.406 745.785 336.871 745.488 336.249C744.806 335.016 743.915 333.422 742.989 331.994C741.975 330.586 741.118 329.303 740.594 328.691C740.052 328.079 740.035 328.079 740.856 329.206C738.392 326.088 735.683 322.94 732.414 319.948C730.894 318.413 729.058 316.985 727.363 315.508C725.493 314.1 723.71 312.652 721.683 311.321C719.76 309.942 717.593 308.688 715.495 307.416C713.276 306.211 711.108 304.987 708.766 303.909C704.134 301.713 699.31 299.751 694.312 298.187C689.33 296.603 684.349 295.272 679.438 294.301C677.026 293.757 674.579 293.397 672.254 292.97C669.895 292.62 667.622 292.27 665.42 292.008C656.594 290.949 649.13 290.599 643.887 290.522C642.698 290.463 641.51 290.463 640.339 290.434C638.626 290.395 636.546 290.337 634.221 290.366C631.914 290.366 629.38 290.386 626.758 290.463C606.413 290.852 587.799 292.824 570.373 295.175C552.93 297.555 536.623 300.402 520.7 303.462C488.872 309.602 458.565 316.538 424.377 324.456C400.817 329.857 376.906 335.414 352.14 340.951C368.324 337.347 392.514 331.888 408.594 328.128C413.925 326.884 419.204 325.66 424.395 324.456C454.929 317.461 484.782 310.719 514.74 304.841C529.736 301.927 544.75 299.216 559.921 296.924C575.075 294.631 590.386 292.737 605.889 291.59C610.94 291.163 619.103 290.658 626.776 290.463C629.03 290.415 631.285 290.386 633.54 290.415C635.794 290.405 638.067 290.444 640.339 290.512C641.422 290.512 642.611 290.483 643.887 290.531C658.778 290.998 674.159 292.785 688.124 296.603C702.124 300.363 714.289 306.182 723.64 312.973C728.342 316.363 732.344 319.997 735.857 323.688C739.371 327.38 742.377 331.169 744.422 335.025C746.519 338.872 747.83 342.758 748.285 346.576C748.774 350.385 748.267 354.105 747.148 357.603C746.135 360.692 744.632 363.762 742.499 366.706C740.402 369.649 737.92 372.535 734.914 375.255C731.96 377.994 728.674 380.637 725.038 383.133C723.291 384.406 721.333 385.601 719.463 386.825C717.47 388.001 715.565 389.205 713.485 390.332C697.108 399.513 677.707 407.022 657.468 413.619C637.158 420.186 615.799 425.791 594.056 430.736C572.296 435.652 550.186 439.975 527.814 443.463C521.661 444.046 515.614 444.687 509.566 445.347C515.719 444.648 521.871 443.978 527.796 443.404C548.403 440.13 568.416 436.177 587.939 431.824C607.445 427.453 626.409 422.595 644.551 417.106C625.15 422.955 605.435 427.899 585.876 432.232C566.301 436.546 546.9 440.305 527.779 443.336C512.433 444.852 498.66 446.503 485.027 448.242C476.812 449.282 468.772 450.341 460.715 451.477C443.831 453.858 427.051 456.481 410.447 459.424C425.968 456.704 441.489 454.275 457.027 452.08C425.636 456.675 394.961 462.028 365.79 468.751C354.796 471.306 343.907 474.055 333.35 477.164C322.776 480.263 312.499 483.711 302.921 487.694C293.413 491.697 284.464 496.244 277.735 501.713C274.396 504.443 271.652 507.406 269.904 510.544C268.139 513.682 267.422 516.975 267.807 520.268C268.174 523.591 268.768 526.913 270.219 530.129C271.46 533.374 273.662 536.483 276.406 539.397C281.964 545.245 291.28 549.821 302.187 552.434C313.163 555.038 325.293 555.932 337.283 555.873C343.296 555.844 349.308 555.563 355.268 555.096C358.257 554.863 361.228 554.572 364.182 554.241C367.101 553.911 370.16 553.513 372.851 553.076C391.326 548.752 410.447 544.934 429.726 541.631C449.039 538.367 468.685 535.579 488.75 534.015C498.765 533.228 508.902 532.781 519.075 532.946C524.161 533.014 529.247 533.296 534.281 533.811C539.314 534.336 544.296 535.103 549.015 536.308C553.716 537.512 558.121 539.193 561.652 541.359C565.2 543.516 567.752 546.159 569.22 548.927C570.705 551.706 571.23 554.581 571.23 557.428C571.055 558.846 571.09 560.274 570.688 561.673L570.216 563.781L569.499 565.86C569.727 564.889 570.076 563.869 570.198 562.752C570.356 561.634 570.618 560.469 570.583 559.215C570.933 556.369 570.635 553.484 569.499 550.676C568.381 547.878 566.283 545.158 563.137 542.856C560.009 540.543 555.866 538.698 551.357 537.337C546.83 535.977 541.954 535.045 536.99 534.442C527.062 533.238 516.942 533.102 507.032 533.374C497.104 533.685 487.334 534.404 477.773 535.385C458.635 537.337 440.283 540.184 422.822 543.332C405.378 546.499 388.722 549.957 373.253 553.668C369.793 554.241 366.402 554.669 363.064 555.057C366.734 554.659 370.334 554.202 373.288 553.717C393.511 549.005 411.531 545.469 429.708 542.311C447.921 539.222 466.378 536.444 488.103 534.666C488.068 534.714 488.54 534.724 484.625 535.084C492.123 534.413 499.988 533.869 508.116 533.656C516.243 533.461 524.668 533.51 533.092 534.306C541.447 535.103 550.011 536.599 556.915 539.669C560.341 541.185 563.312 543.05 565.427 545.197C567.524 547.353 568.853 549.695 569.657 552.085C568.573 549.054 566.406 545.887 562.595 543.273C558.838 540.641 553.699 538.6 548.071 537.269C540.136 535.326 529.334 534.238 517.414 534.151C505.494 534.064 492.508 534.87 479.679 536.143C461.152 537.988 443.114 540.689 425.478 543.788C407.825 546.916 390.609 550.394 373.69 554.358C369.111 555.086 364.706 555.601 360.145 556.048C355.618 556.485 351.038 556.816 346.459 557C341.88 557.185 337.283 557.292 332.686 557.195C330.379 557.195 328.09 557.049 325.8 556.971C323.51 556.806 321.221 556.709 318.966 556.466C314.404 556.087 309.947 555.397 305.577 554.581C303.428 554.105 301.243 553.688 299.198 553.085C298.167 552.794 297.083 552.551 296.104 552.221L293.115 551.23C285.233 548.51 278.836 544.526 274.396 540.019C269.939 535.492 267.492 530.44 266.356 525.359C265.937 524.096 265.902 522.814 265.71 521.531L265.465 519.618V517.675C265.657 515.081 266.461 512.497 267.859 510.01C269.328 507.542 271.32 505.181 273.697 502.947C276.109 500.722 278.941 498.653 281.964 496.681C288.117 492.785 295.16 489.346 302.676 486.276C310.821 482.944 319.455 480.02 328.317 477.338C337.161 474.657 346.249 472.238 355.46 470.004C373.883 465.525 392.794 461.756 411.863 458.404C430.932 455.053 450.193 452.128 469.506 449.515C488.802 446.921 508.238 444.59 527.569 442.715C545.711 439.888 563.26 436.536 580.371 432.903C562.421 436.759 544.366 440.199 527.604 442.831C508.955 444.687 490.637 446.921 472.775 449.331C454.894 451.759 437.416 454.411 420.322 457.345C403.229 460.289 386.502 463.514 370.265 467.157C354.027 470.81 338.244 474.871 323.318 479.689L323.073 479.553ZM308.916 119.754C300.614 121.745 292.172 124.019 284.114 126.71C285.408 126.331 286.631 125.962 287.82 125.602C295.318 123.28 302.921 121.221 308.916 119.754ZM302.344 206.449C290.389 201.329 277.927 195.394 266.549 188.127C263.7 186.31 260.955 184.396 258.351 182.385C255.729 180.384 253.283 178.247 251.098 176.003C246.676 171.544 243.267 166.482 242.411 161.042C241.992 158.331 242.201 155.543 243.285 152.823C244.334 150.103 246.151 147.48 248.528 145.042C253.283 140.126 260.309 136.094 267.842 132.616C275.497 129.187 283.87 126.331 292.486 123.824C301.103 121.328 309.999 119.151 318.983 117.257C319.385 117.15 319.613 117.082 319.595 117.063C304.529 120.249 288.728 124.116 273.959 129.877C272.089 130.566 270.341 131.382 268.506 132.13C266.706 132.908 265.01 133.772 263.245 134.598C259.889 136.376 256.551 138.202 253.702 140.34C247.812 144.478 243.512 149.627 242.271 155.126C240.995 160.644 243.023 166.22 246.693 171.223C250.364 176.255 255.695 180.783 261.55 184.96C273.417 193.286 287.697 200.232 302.344 206.439V206.449ZM528.425 248.534C527.971 248.505 527.464 248.466 526.992 248.437C527.027 248.447 527.115 248.466 527.115 248.476C527.534 248.495 527.971 248.515 528.425 248.534ZM26.0126 297.487C38.0551 290.269 53.1214 283.984 69.6209 278.261C86.1728 272.578 104.21 267.42 123.139 262.679C127.893 261.523 132.682 260.367 137.506 259.201C142.365 258.093 147.259 256.986 152.171 255.869C157.117 254.81 162.098 253.741 167.08 252.663C172.113 251.662 177.165 250.652 182.233 249.651C192.371 247.63 202.561 245.6 212.785 243.57C217.907 242.569 222.993 241.491 228.166 240.548L243.722 237.78C256.184 235.584 268.611 233.32 282.069 230.872C295.65 228.648 310.332 226.326 327.146 223.703C329.767 223.295 332.337 222.887 334.836 222.498C337.336 222.1 339.817 221.799 342.212 221.459C347.036 220.798 351.633 220.167 356.055 219.555C364.916 218.33 373.131 217.204 381.066 216.106C383.059 215.843 385.016 215.542 386.991 215.309C388.966 215.076 390.924 214.843 392.881 214.61C396.797 214.153 400.712 213.687 404.644 213.23C412.527 212.307 420.532 211.375 429.079 210.374L403.333 213.172C418.33 211.52 431.631 209.811 444.32 208.703C450.647 208.091 456.765 207.498 462.777 206.915C468.807 206.342 474.697 205.691 480.657 205.283C486.6 204.817 492.56 204.36 498.607 203.884C501.631 203.651 504.69 203.418 507.784 203.175C510.877 202.942 513.988 202.68 517.204 202.524C523.584 202.165 530.191 201.796 537.077 201.417C540.52 201.232 544.051 201.038 547.669 200.844C551.287 200.669 555.01 200.581 558.82 200.436C558.82 200.416 559.362 200.377 560.306 200.319C561.267 200.271 562.613 200.193 564.256 200.105C567.524 199.94 571.876 199.746 576.263 199.59L580.353 199.445L584.461 199.367C587.187 199.318 589.931 199.27 592.658 199.221C598.111 199.134 603.547 198.998 608.948 198.959C619.767 198.998 630.464 198.891 640.881 199.182C643.485 199.231 646.072 199.28 648.641 199.338C651.21 199.386 653.762 199.513 656.296 199.6C658.831 199.697 661.33 199.785 663.812 199.872C666.294 199.96 668.758 200.125 671.205 200.251C673.652 200.387 676.047 200.494 678.459 200.679C679.665 200.766 680.853 200.844 682.042 200.931C683.143 200.999 684.734 201.174 685.258 201.174C689.925 201.417 694.399 201.689 698.769 201.971C709.658 202.709 720.529 203.593 731.226 204.691C741.922 205.808 752.462 207.1 762.687 208.975C767.79 209.947 772.842 211.025 777.77 212.696L779.606 213.376L781.423 214.163C782.018 214.454 782.629 214.785 783.206 215.095C783.853 215.513 784.517 215.931 785.059 216.407C787.279 218.272 787.978 220.681 786.44 222.731C786.055 223.236 785.688 223.761 785.146 224.198C784.639 224.626 784.063 225.15 783.556 225.422C783.049 225.743 782.525 226.093 782 226.374L780.41 227.19C778.26 228.191 776.092 229.017 773.943 229.726C769.643 231.144 765.378 232.281 761.236 233.262C757.059 234.243 750.836 235.623 743.513 237.012C736.19 238.421 727.765 239.859 719.271 241.151C714.08 241.918 708.941 242.695 703.663 243.346L695.78 244.357C693.158 244.697 690.536 245.037 687.88 245.299C682.584 245.833 677.305 246.445 671.992 246.921L656.034 248.233C656.996 248.204 657.869 248.126 658.673 248.087C676.047 246.834 693.56 244.852 710.776 242.462C723.535 240.616 736.784 238.557 750.155 235.914C756.831 234.574 763.561 233.107 770.22 231.164C773.558 230.192 776.879 229.124 780.13 227.647C780.951 227.278 781.755 226.841 782.542 226.433L783.713 225.704L784.29 225.335C784.5 225.189 784.709 225.014 784.902 224.849C786.597 223.557 787.716 221.876 787.681 220.244C787.663 218.593 786.44 216.98 784.622 215.688C784.185 215.387 783.661 215.008 783.241 214.804L781.948 214.124C781.074 213.726 780.2 213.318 779.326 213.007C775.813 211.685 772.3 210.792 768.804 209.995C761.813 208.45 754.856 207.382 747.97 206.449C734.162 204.623 720.599 203.399 707.543 202.398C703.453 202.087 699.38 201.805 695.308 201.543L689.191 201.164L686.132 200.989C684.856 200.931 684.734 200.921 683.423 200.805C679.245 200.484 675.173 200.212 671.083 200.018L664.966 199.697L658.883 199.484C650.773 199.134 642.698 199.046 634.641 198.901C630.621 198.794 626.601 198.842 622.598 198.833C618.596 198.833 614.593 198.833 610.608 198.833C578.693 199.095 547.302 200.484 516.348 202.408C454.457 206.498 394.472 213.405 335.378 222.003C322.811 224.004 310.209 226.015 297.625 228.016L288.187 229.522C285.041 230.017 281.894 230.523 278.801 231.106C272.579 232.223 266.356 233.35 260.134 234.467C250.801 236.148 241.188 237.867 231.452 239.625C226.558 240.461 221.717 241.462 216.84 242.443C211.964 243.414 207.07 244.395 202.159 245.377C182.548 249.331 162.693 253.09 144.026 257.442C125.342 261.717 107.706 266.264 92.1329 270.888C76.5598 275.502 63.0665 280.224 52.5097 284.596C48.979 286.062 43.7006 288.268 38.7018 290.677C37.4259 291.26 36.185 291.872 35.0139 292.503C33.8254 293.115 32.6718 293.728 31.5707 294.301C29.4034 295.486 27.5507 296.632 26.0301 297.526L26.0126 297.487ZM30.085 343.594C25.8553 341.641 21.9227 339.475 18.6368 337.056C15.3159 334.637 12.7466 331.926 11.226 329.041C9.6879 326.156 9.25094 323.105 9.9326 320.074C10.6142 317.053 12.3271 314.061 14.7741 311.224C19.8777 305.589 27.341 300.508 35.8878 296.059C44.4172 291.581 53.873 287.597 63.6783 283.954C83.3588 276.678 104.473 270.752 125.464 265.477C146.525 260.26 167.569 255.781 188.036 251.866C196.233 250.244 206.336 248.233 217.697 245.979C220.528 245.416 223.447 244.833 226.436 244.24C229.407 243.638 232.518 243.133 235.664 242.559C241.957 241.442 248.459 240.276 255.118 239.091C261.777 237.906 268.576 236.682 275.445 235.458C278.888 234.855 282.314 234.205 285.792 233.631L296.262 231.98C310.192 229.765 324.035 227.569 337.091 225.49C350.252 223.644 362.627 221.906 373.516 220.38C378.969 219.623 384.02 218.865 388.669 218.262C393.318 217.689 397.513 217.165 401.149 216.718C415.708 214.891 421.511 214.036 412.894 214.794C407.651 215.494 400.869 216.358 392.777 217.359C390.749 217.612 388.634 217.854 386.467 218.156C384.3 218.466 382.045 218.787 379.738 219.117C375.089 219.768 370.16 220.468 364.951 221.206C359.743 221.935 354.254 222.692 348.539 223.499C342.824 224.295 336.846 225.082 330.746 226.102C318.494 228.036 305.42 230.105 291.7 232.262C284.813 233.282 277.909 234.583 270.831 235.827C263.769 237.08 256.568 238.363 249.28 239.655C241.992 240.947 234.616 242.268 227.153 243.589C219.777 245.056 212.331 246.533 204.85 248.009C197.37 249.496 189.836 250.982 182.303 252.478C174.77 253.974 167.167 255.432 159.756 257.083C144.83 260.289 130.113 263.689 115.956 267.4C87.6759 274.774 61.2837 283.129 40.7817 292.873C38.2299 294.097 35.8179 295.36 33.4409 296.603C31.2037 297.915 28.8441 299.129 26.8341 300.479C22.5869 303.064 19.1087 305.842 16.1549 308.591C10.3696 314.129 7.6779 320.006 8.76155 325.087C8.8839 326.36 9.49564 327.555 9.91512 328.72C10.2472 329.284 10.5793 329.847 10.9114 330.391C11.2085 330.945 11.6105 331.46 12.0475 331.965C12.4669 332.47 12.8515 332.966 13.2709 333.452C13.7603 333.918 14.2323 334.365 14.6867 334.812C15.5431 335.715 16.6792 336.483 17.623 337.25C21.678 340.242 25.7854 342.224 28.6518 343.555C34.6643 346.091 35.6082 346.266 30.12 343.613L30.085 343.594ZM719.708 304.938C712.978 301.111 705.34 297.798 697.003 295.117C688.684 292.416 679.612 290.444 670.209 289.074C660.788 287.695 650.983 286.937 640.968 286.713C630.935 286.471 620.658 286.713 610.136 287.325C629.275 286.169 649.043 286.16 668.339 288.754C677.935 290.084 687.355 292.047 696.077 294.777C704.781 297.526 712.751 300.985 719.708 304.948V304.938ZM367.066 335.705C393.179 329.663 419.693 323.387 446.645 317.267C473.596 311.166 500.985 305.191 528.95 300.071C556.915 295.02 585.527 290.677 614.786 289.123C629.38 288.375 644.149 288.365 658.569 289.725C672.971 291.056 686.988 293.815 699.188 298.177C703.855 299.867 708.312 301.771 712.489 303.87C716.579 306.017 720.547 308.261 724.025 310.758C731.173 315.664 736.889 321.162 741.643 326.923C744.055 329.809 745.942 332.84 747.498 335.909C748.966 339.009 750.015 342.166 750.469 345.372C751.343 351.774 749.858 358.263 746.205 364.296C742.587 370.329 737.046 375.915 730.457 380.909C723.92 385.941 716.334 390.4 708.417 394.49C692.494 402.621 675.19 409.179 658.271 414.804L658.464 414.988C660.963 414.163 663.428 413.298 665.909 412.443C679.053 407.965 690.536 403.544 700.849 398.803C706.005 396.452 710.899 394.034 715.495 391.469C720.092 388.914 724.497 386.262 728.534 383.386C727.608 384.037 726.611 384.736 725.703 385.387C727.328 384.241 729.024 383.124 730.579 381.909C735.84 378.004 740.577 373.729 744.369 368.911C748.18 364.102 750.766 358.681 751.64 352.774C752.339 347.354 751.256 341.797 748.756 336.473C746.939 332.704 744.597 328.992 741.503 325.495C738.462 321.998 735.141 318.588 731.208 315.353C727.311 312.118 722.976 309.019 718.1 306.192C713.206 303.374 707.805 300.81 701.967 298.585C690.327 294.116 676.938 291.153 663.27 289.628C656.436 288.851 649.515 288.384 642.611 288.161C635.707 287.957 628.821 288.015 621.987 288.229C594.616 289.171 568.363 292.785 543.317 296.982C518.271 301.247 494.308 306.221 471.394 311.282C414.712 323.805 367.223 335.88 310.436 348.14C326.674 344.731 351.004 339.407 367.084 335.676L367.066 335.705Z" fill="#B7B7A5"/>
<path d="M473.841 449.622C437.346 454.587 400.904 460.551 365.598 468.615C352.017 471.772 338.734 475.25 326.01 479.253C313.338 483.284 301.156 487.831 290.651 493.378C284.936 496.38 279.78 499.77 275.655 503.53C271.635 507.309 268.698 511.535 268.034 515.965C267.755 517.063 267.859 518.18 267.824 519.288C267.964 520.414 268.122 521.551 268.261 522.678C268.349 523.815 268.698 524.932 268.996 526.059C269.293 527.186 269.555 528.313 270.114 529.41C271.862 533.85 274.851 538.183 279.552 541.933C284.202 545.683 290.529 548.792 297.835 550.977C305.193 553.115 313.373 554.426 321.762 555.058C330.152 555.67 338.751 555.709 347.298 555.281C351.58 555.067 355.845 554.766 360.092 554.339C362.207 554.125 364.322 553.892 366.437 553.63L369.583 553.212C370.579 553.076 371.768 552.901 372.572 552.765C382.045 550.531 391.99 548.413 401.865 546.441C411.775 544.468 421.791 542.613 431.91 540.923C452.15 537.551 472.792 534.724 493.871 533.316C499.132 532.966 504.428 532.723 509.741 532.626C515.055 532.519 520.385 532.548 525.699 532.83C531.012 533.102 536.326 533.578 541.499 534.423C546.655 535.268 551.724 536.493 556.181 538.28C560.638 540.058 564.378 542.438 566.895 545.149C569.429 547.859 570.81 550.851 571.265 553.814C571.474 554.552 571.422 555.301 571.492 556.039C571.544 556.777 571.579 557.525 571.492 558.254L571.282 560.459L570.81 562.635L570.566 563.723L570.198 564.792L569.482 566.939C568.905 568.348 568.276 569.756 567.612 571.145C566.668 573.594 566.895 573.953 568.87 571.068C570.216 568.192 571.492 565.287 572.121 562.295C572.89 559.322 573.03 556.253 572.436 553.183C571.841 550.122 570.356 547.014 567.542 544.216C564.763 541.418 560.673 539.018 555.971 537.26C551.27 535.482 546.044 534.287 540.765 533.461C535.469 532.626 530.068 532.208 524.72 531.956C513.971 531.48 503.309 531.839 492.787 532.529C471.761 533.976 451.259 536.794 431.141 540.145C421.091 541.836 411.129 543.682 401.254 545.654C396.307 546.645 391.396 547.665 386.502 548.714L379.178 550.326L375.526 551.152L372.065 551.959L370.544 552.192L368.796 552.444C367.625 552.61 366.437 552.755 365.266 552.901C362.889 553.183 360.512 553.445 358.117 553.659C353.328 554.096 348.487 554.407 343.663 554.582C338.821 554.766 333.98 554.756 329.173 554.601C324.367 554.455 319.595 554.086 314.946 553.503C305.647 552.367 296.803 550.191 289.655 546.849L287.051 545.547C286.177 545.119 285.46 544.595 284.674 544.128C283.013 543.206 281.772 542.098 280.374 541.059C279.692 540.534 279.185 539.941 278.574 539.388C278.014 538.814 277.315 538.28 276.896 537.668L275.445 535.871C275.218 535.57 274.938 535.278 274.728 534.967L274.169 534.025C271.023 529.07 269.712 523.649 269.52 518.355C269.52 515.78 270.201 513.196 271.635 510.729C273.05 508.251 275.095 505.881 277.577 503.647C280.042 501.393 283.031 499.304 286.247 497.332C289.445 495.34 292.993 493.504 296.681 491.756C304.057 488.258 312.167 485.188 320.556 482.39C321.605 482.021 322.706 481.652 323.79 481.302C347.613 473.365 380.175 465.924 415.935 459.677C433.816 456.549 452.517 453.683 471.411 451.118C490.34 448.563 509.269 446.271 528.111 444.405L531.571 443.861L534.892 443.317C537.095 442.938 539.279 442.569 541.464 442.19C545.816 441.433 550.098 440.646 554.311 439.849C562.753 438.246 570.933 436.585 578.833 434.885C599.16 430.474 619.155 425.568 638.486 419.924C648.152 417.107 657.66 414.114 666.888 410.87C676.117 407.635 685.136 404.186 693.682 400.407C702.247 396.637 710.427 392.577 717.82 388.098C725.266 383.649 731.837 378.733 737.186 373.419C739.755 370.738 742.08 367.969 743.898 365.103C745.628 362.218 747.131 359.284 747.883 356.262C748.652 353.261 749.054 350.21 748.722 347.179C748.704 345.654 748.25 344.158 747.987 342.642L747.271 340.398C747.044 339.65 746.781 338.902 746.414 338.173C747.9 341.807 748.704 345.528 748.704 349.239C748.669 352.95 747.778 356.651 746.187 360.236C744.579 363.821 742.255 367.289 739.353 370.602C736.434 373.905 732.921 377.033 729.076 379.996C721.368 385.951 712.105 391.187 702.229 395.967C692.319 400.727 681.71 404.992 670.751 408.917C648.781 416.737 625.43 423.208 601.485 428.881C577.504 434.506 552.965 439.422 527.709 443.376C509.794 445.105 491.861 447.213 473.893 449.564L473.841 449.622Z" fill="#B7B7A5"/>
<path d="M164.982 368.765C199.624 368.649 234.371 365.773 268.017 360.197C270.936 359.691 273.837 359.177 276.721 358.671C279.587 358.118 282.436 357.564 285.285 357.02C290.913 355.893 296.419 354.747 301.925 353.6C312.918 351.298 323.702 348.957 334.364 346.606C355.67 341.894 376.382 337.114 396.814 332.383C437.678 322.95 477.336 313.565 518.323 305.589C488.208 311.36 458.477 317.995 428.694 324.767C398.911 331.547 369.093 338.484 338.874 345.129C323.755 348.471 309.161 351.638 294.881 354.611C287.767 356.087 280.618 357.554 273.452 358.837C269.869 359.478 266.304 360.119 262.721 360.673C260.938 360.964 259.138 361.246 257.355 361.528C255.555 361.79 253.772 362.042 251.972 362.305C223.325 366.395 194.625 368.522 165 368.765H164.982Z" fill="#B7B7A5"/>
<path d="M585.772 294.845C562.613 297.497 540.311 301.354 518.34 305.59C540.66 301.344 563.207 297.526 586.121 294.981C597.569 293.708 609.088 292.746 620.641 292.338C632.176 291.901 643.73 292.037 655.038 292.95C666.311 293.893 677.323 295.671 687.373 298.517C692.424 299.897 697.178 301.616 701.653 303.501C706.162 305.376 710.304 307.533 714.132 309.835C721.84 314.44 728.097 319.802 733.306 325.466C734.651 326.875 735.718 328.322 736.941 329.75L738.479 331.946L739.248 333.044L739.895 334.161L741.171 336.405L742.185 338.678C742.552 339.436 742.814 340.204 743.041 340.971C743.268 341.739 743.583 342.506 743.723 343.273C745.296 349.967 744.212 356.826 740.297 363.247C738.374 366.463 735.84 369.572 732.869 372.554C729.88 375.546 726.349 378.373 722.539 381.093C718.746 383.823 714.569 386.388 710.164 388.846C705.777 391.313 701.146 393.655 696.322 395.879C691.533 398.124 686.534 400.251 681.43 402.282C676.344 404.331 671.083 406.274 665.77 408.149C644.429 415.63 621.689 421.915 598.391 427.433C586.733 430.192 574.918 432.747 562.98 435.118C557.02 436.303 551.007 437.44 544.995 438.528L535.941 440.111L531.397 440.869L526.992 441.568L522.238 442.045L517.362 442.559L507.644 443.638C501.177 444.376 494.71 445.153 488.278 445.96C475.396 447.582 462.567 449.34 449.826 451.244C424.325 455.062 399.069 459.454 374.424 464.797C358.012 468.372 341.967 472.335 326.691 477.018C342.247 472.287 358.467 468.333 374.931 464.806C391.396 461.29 408.14 458.21 425.006 455.432C441.873 452.653 458.862 450.186 475.903 447.951C492.927 445.736 510.161 443.706 527.184 442.054C530.191 441.598 533.546 441.054 536.71 440.519C539.909 439.985 543.107 439.421 546.271 438.858C552.633 437.721 558.96 436.526 565.235 435.273C577.801 432.777 590.211 430.086 602.411 427.171C626.793 421.342 650.441 414.697 672.341 406.712C683.265 402.719 693.752 398.376 703.4 393.577C708.207 391.168 712.839 388.661 717.156 386.009C721.455 383.347 725.458 380.559 729.076 377.645C736.277 371.796 741.73 365.316 744.387 358.506C746.939 351.687 746.729 344.595 743.635 337.891C742.971 336.201 741.94 334.559 741.014 332.917C740.489 332.101 739.895 331.305 739.336 330.498L738.479 329.294L737.5 328.118L735.543 325.767L733.376 323.465C732.676 322.688 731.907 321.94 731.103 321.201C730.317 320.463 729.548 319.705 728.726 318.977C725.423 316.052 721.77 313.284 717.802 310.67C713.747 308.096 709.36 305.726 704.624 303.588C695.116 299.353 684.209 296.195 672.656 294.243C666.888 293.271 660.998 292.533 655.038 292.057C649.078 291.6 643.083 291.328 637.07 291.26C625.063 291.153 613.073 291.697 601.292 292.708C589.494 293.699 577.871 295.088 566.458 296.739C543.597 300.033 521.487 304.21 499.971 308.659C495.793 309.534 491.144 310.525 486.722 311.448C513.796 305.755 541.115 300.499 568.923 296.632C575.879 295.69 582.87 294.825 589.879 294.087C596.905 293.368 603.949 292.766 611.01 292.319C625.133 291.503 639.377 291.27 653.29 292.329C667.185 293.368 680.731 295.68 692.704 299.586C698.699 301.529 704.274 303.841 709.378 306.474C714.482 309.097 719.026 312.05 723.116 315.198C727.188 318.345 730.876 321.668 734.005 325.165C737.133 328.643 739.912 332.208 741.8 335.919C745.645 343.322 746.432 351.172 743.426 358.672C745.488 353.406 745.768 347.956 744.387 342.632C742.919 337.309 739.86 332.111 735.665 327.205C731.435 322.289 726.402 317.539 720.337 313.293C714.272 309.048 707.315 305.211 699.363 302.121C683.527 295.855 664.214 292.756 644.691 292.057C634.92 291.658 625.028 291.833 615.205 292.348C605.365 292.863 595.559 293.737 585.824 294.835L585.772 294.845Z" fill="#B7B7A5"/>
<path d="M509.374 445.202C501.107 446.115 492.962 447.077 484.834 448.106C475.361 449.321 466.08 450.603 456.834 451.944C462.515 451.137 468.213 450.36 473.858 449.622C485.708 448.019 497.576 446.542 509.391 445.202H509.374Z" fill="#B7B7A5"/>
<path d="M728.551 383.396C729.251 382.93 729.932 382.444 730.596 381.929C739.038 375.663 745.82 368.445 749.281 360.585C752.741 352.746 752.602 344.332 748.774 336.493C746.257 331.072 742.149 325.855 737.221 320.949C732.274 316.023 726.332 311.312 719.253 307.066C712.227 302.801 703.855 299.149 694.679 296.234C690.029 294.835 685.275 293.524 680.259 292.533C677.795 291.969 675.225 291.59 672.708 291.114C670.139 290.755 667.587 290.308 664.983 290.036C683.807 292.28 701.705 297.429 715.215 304.88C722.032 308.562 727.87 312.711 732.816 317.063C737.728 321.425 741.922 325.952 745.156 330.683C748.354 335.405 750.469 340.311 751.221 345.217C752.007 350.123 751.361 355.009 749.508 359.614C745.82 368.872 737.64 376.848 728.569 383.406L728.551 383.396Z" fill="#B7B7A5"/>
<path d="M631.494 286.024C629.24 286.014 626.426 286.101 623.332 286.14C620.256 286.257 616.883 286.344 613.562 286.538C606.868 286.859 600.261 287.413 595.821 287.782C590.49 288.316 585.247 288.899 579.986 289.56C588.096 288.617 596.381 287.811 604.735 287.218C613.562 286.538 622.476 286.101 631.494 286.014V286.024Z" fill="#B7B7A5"/>
<path d="M140.775 362.577C178.755 363.888 216.543 361.702 252.304 356.534C261.235 355.223 270.079 353.775 278.731 352.056C287.4 350.375 296.122 348.529 304.739 346.712C322.007 343.05 339.066 339.251 356.02 335.404C389.928 327.71 423.364 319.773 456.974 312.283C490.602 304.832 524.423 297.701 559.467 292.435C566.266 291.406 573.117 290.415 580.004 289.55C556.059 292.367 532.83 296.36 510.143 300.761C487.456 305.172 465.259 310.019 443.446 314.925C399.838 324.776 357.68 334.899 316.764 343.856C308.706 345.634 298.604 347.83 288.449 349.957C283.363 351.045 278.329 352.026 273.522 352.969C268.663 353.824 264.102 354.669 259.959 355.281C250.206 356.835 240.366 358.127 230.508 359.167C220.651 360.216 210.758 361.081 200.865 361.644C190.973 362.227 181.097 362.606 171.24 362.761C161.382 362.888 151.559 362.8 141.789 362.489C122.265 361.868 102.952 360.255 84.3376 357.457C75.0392 356.048 65.933 354.319 57.2288 352.172C48.5246 350.025 40.1351 347.48 32.7418 344.293C39.803 347.344 47.7731 349.831 56.1102 351.929C64.4473 354.028 73.169 355.747 82.1004 357.175C99.9807 360.031 118.665 361.634 137.646 362.441C138.712 362.48 139.744 362.519 140.81 362.557L140.775 362.577Z" fill="#B7B7A5"/>
</svg>
