<svg width="85" height="503" viewBox="0 0 85 503" fill="none" xmlns="http://www.w3.org/2000/svg">
<path d="M48.0863 254.559C60.2356 254.142 70.9744 246.737 83.3161 248.147C82.5788 257.444 87.4513 277.735 72.9619 277.094C68.1214 276.87 65.2043 273.279 60.9088 272.991C81.7453 305.336 73.4748 345.374 75.3341 381.822C76.5202 405.063 80.7516 428.656 84.9189 451.48C77.5139 446.64 74.9174 434.683 73.9236 426.476C69.4357 389.644 71.872 350.824 68.8907 314.632C66.7109 287.993 46.7719 251.257 19.3318 244.108C3.6883 240.037 9.10578 251.673 6.47717 262.541C17.5686 264.592 27.7305 257.283 38.5014 258.534C25.8071 269.849 24.012 290.397 22.5053 306.586C19.2676 341.88 25.2301 379.482 22.5374 412.307C22.0245 418.526 17.8251 428.207 17.793 431.445C17.761 436.798 24.7813 439.395 21.4154 447.89C20.7102 449.685 18.338 449.877 17.729 451.032C14.331 457.411 12.0229 465.97 6.50926 470.65C7.05421 464.431 7.1183 455.487 8.78522 449.685C9.87514 445.87 13.9142 445.999 14.4592 444.075C15.1644 441.575 10.6445 437.311 11.1894 431.413C11.6703 426.092 16.9275 418.494 17.729 410.608C21.6719 370.827 10.901 324.345 20.069 283.249C21.4154 277.254 24.1402 270.971 27.3458 265.746C16.7352 266.996 0.130061 279.659 0.00183581 261.707C-0.222558 226.06 20.1652 236.126 38.5334 252.892C38.5976 245.967 32.7954 240.454 30.9361 234.107C28.6281 226.349 25.0057 202.114 28.3075 195.415C33.9174 184.035 30.6476 186.471 33.148 177.976C34.27 174.161 38.1488 171.917 38.6296 168.776C39.3669 163.807 35.2317 160.537 35.2637 156.05C35.2637 147.811 38.854 152.299 35.8087 139.605C33.3404 129.251 40.1363 127.487 40.1042 122.423C40.1042 116.46 32.2825 110.498 42.6046 102.419C43.6945 106.362 40.9056 109.632 41.8032 114.376C42.5726 118.416 49.0479 122.647 48.2145 128.032C38.3732 125.083 37.7 135.437 41.8352 142.426L45.0409 140.054C44.3997 145.183 41.9314 149.029 41.707 154.415C41.4826 159.8 44.1754 165.859 43.4381 170.347C42.7008 174.835 37.3794 175.924 36.9948 180.06C36.7063 183.105 39.2707 187.016 38.6296 190.446L44.2395 187.272C47.2528 195.094 31.5131 199.646 32.0902 207.243C32.5389 213.014 48.1503 212.437 52.9588 212.789C53.4717 204.807 55.908 195.928 56.3247 188.106C56.5811 182.72 54.4334 177.399 54.6898 173.713C55.1707 166.981 62.1269 167.59 56.7414 155.569C56.0041 153.934 50.4263 152.748 53.0549 150.44C54.5295 149.158 57.6069 152.331 58.6648 153.613C63.1847 147.106 53.4396 139.957 52.9909 135.085C52.478 129.379 60.6523 127.776 56.6132 117.229C55.4592 114.216 49.7531 110.145 52.2535 107.196C54.786 110.786 57.1582 111.267 57.9275 106.362C58.8251 100.72 55.4592 95.0144 53.3755 90.0137L54.6578 75.1716L61.1652 99.9511C63.4733 104.695 57.2543 111.139 58.0237 114.056C58.5045 115.851 61.2293 117.005 61.8384 118.416C66.1339 128.385 56.3567 134.027 56.3247 135.181C56.3247 135.694 61.4858 139.733 62.3513 143.548C63.5694 149.029 61.2293 152.171 61.3576 156.018C61.4858 159.319 63.6015 162.589 63.5374 165.634C63.4732 169.77 59.4662 172.462 59.37 176.726C59.0495 190.959 57.2223 208.077 57.7993 221.701C57.9596 226.028 60.7164 231.029 60.2676 233.786C59.2418 240.229 48.1183 246.577 48.2786 254.43L48.0863 254.559ZM55.7797 233.433C56.7735 231.19 51.388 218.656 52.8306 214.552L38.4373 216.155C40.9697 218.688 39.5593 228.497 40.0401 228.946C40.5209 229.394 50.3302 228.593 52.8306 230.548C52.2215 232.76 44.0472 233.786 42.3161 233.818C38.9502 233.882 36.7704 232.183 33.6288 232.151C33.8212 236.254 39.7836 235.613 40.1363 236.19C42.1238 239.684 41.2262 247.698 41.6429 248.147C45.5858 252.283 50.779 238.37 52.3177 235.709C53.2793 234.043 55.6515 233.626 55.7477 233.433H55.7797ZM78.4756 251.385C70.2371 253.437 60.9408 254.847 52.8306 256.963C51.356 257.347 49.2403 257.379 49.6891 259.367L75.27 270.587L78.4756 251.385Z" fill="#818362"/>
<path d="M41.6745 478.728L43.2453 462.732L40.0396 480.331C32.9231 474.176 38.3086 460.392 38.533 452.378C39.1421 428.784 35.5838 397.561 38.3407 375.346C38.7574 371.916 42.8927 373.872 41.7066 369.031C41.5142 368.262 38.2125 368.903 38.3086 365.89C38.4368 361.402 42.1233 359.478 42.9568 355.92C43.8544 352.041 42.3798 347.586 44.0788 344.22C48.791 344.22 44.7519 418.174 44.816 425.162C44.9122 438.497 47.7973 452.698 46.5471 466.771C46.1944 470.682 45.8739 476.901 41.7066 478.728H41.6745Z" fill="#818362"/>
<path d="M27.25 472.318L11.9912 483.537C9.87548 487.032 12.6964 489.276 15.2609 491.487L16.8317 488.282C22.9865 496.616 68.9552 497.065 70.4298 490.59C70.7504 489.211 69.3719 487.384 68.6346 486.134L55.2993 473.857C83.6049 480.781 87.0029 501.072 53.6323 502.707C47.5096 502.996 32.1867 503.188 26.4806 502.707C-3.29964 500.046 -3.3317 471.548 27.282 472.286L27.25 472.318Z" fill="#818362"/>
<path d="M41.6744 268.984L44.848 265.81V340.213L41.6744 339.411L40.873 349.06C37.6995 320.081 37.0583 289.981 40.1037 261.002L41.7065 268.984H41.6744Z" fill="#818362"/>
<path d="M52.8625 54.4316C50.0736 53.9507 50.0416 51.2259 49.4325 49.0782C44.6882 32.4409 52.6382 16.4128 49.689 0C52.0612 0.416732 52.8305 2.88506 53.6319 4.80844C58.6968 16.6052 52.1573 40.968 52.8305 54.4316H52.8625Z" fill="#818362"/>
</svg>
