<svg width="85" height="503" viewBox="0 0 85 503" fill="none" xmlns="http://www.w3.org/2000/svg">
<path d="M28.7224 110.465L33.5309 108.092C32.8256 112.997 27.6325 116.042 27.1196 121.011C26.3823 127.935 32.3768 130.532 31.9601 135.18C31.5434 139.828 21.7662 147.169 26.2861 153.708L31.896 150.535C29.6841 154.093 25.3886 159.895 25.613 164.191C25.7732 167.3 29.8764 169.705 30.2932 173.872C30.6779 177.783 28.498 183.04 28.5942 188.169C28.7545 195.927 32.2486 204.966 31.896 212.981C36.2236 212.115 51.1618 212.564 52.4761 208.749C55.9382 198.683 37.9546 197.401 40.6794 187.368L46.2893 190.541C45.7764 186.149 49.0782 181.95 47.1548 177.783C46.0649 175.411 42.1219 174.641 41.4808 170.442C40.7756 165.954 43.4683 160.056 43.2119 154.51C42.9554 148.964 40.5191 145.278 39.878 140.149L43.0836 142.521C47.5715 134.154 45.1352 132.583 41.4808 124.922L36.7044 127.294C37.0891 122.646 42.3463 118.607 43.0836 114.407C43.9171 109.631 41.2885 106.522 42.3143 102.515C52.6685 108.926 44.0774 119.344 44.975 123.736C45.5199 126.364 50.4566 130.371 50.7451 133.994C51.0336 137.616 46.5457 141.142 46.3213 145.053C46.0969 148.964 49.6231 151.945 49.6231 156.145C49.6231 160.633 45.4879 163.902 46.2572 168.871C46.7701 172.205 50.104 173.327 50.8092 175.667C51.8991 179.321 50.5527 183.841 51.4503 187.848C52.3479 191.855 55.7459 193.49 57.1563 196.568C59.9452 202.69 56.1305 226.925 53.9507 234.234C52.0594 240.581 46.2572 246.095 46.3534 253.019C55.7459 244.909 77.3839 225.29 82.9937 247.569C93.3799 288.762 58.6309 262.027 55.9382 264.239C70.4276 283.44 66.6129 310.977 67.0617 333.929C67.5105 356.881 64.6896 388.425 67.1258 410.736C67.9272 418.012 75.3002 430.514 75.0758 434.842C74.8514 438.593 69.1774 439.971 70.4276 444.235C70.9405 446.03 74.6591 446.254 75.7169 448.722C78.1532 454.493 76.3901 464.526 79.9804 470.777C75.8772 471.707 77.1915 469.687 75.8452 467.796C71.8061 462.026 70.7161 457.313 67.8631 451.704C66.4847 449.011 62.7662 448.049 62.3815 444.331C61.8045 439.041 67.0617 434.714 67.1258 431.54C67.19 429.008 62.7662 418.269 62.3495 412.371C61.6122 402.593 63.9843 394.098 64.0805 385.187C64.369 357.683 65.8115 293.858 55.5215 270.329C54.0148 266.899 45.6802 255.263 41.9296 258.212C40.3268 259.494 30.4855 272.028 28.7545 274.625C15.4191 294.692 16.1884 318.926 15.0023 342.167C13.8163 365.408 15.3229 431.22 4.51993 447.312C3.43002 448.947 2.01955 451.127 0 451.575C1.85926 440.612 4.80844 429.617 6.18686 418.557C7.56528 407.498 9.03987 392.592 9.58483 381.917C11.412 345.597 3.52619 305.238 24.0102 273.086C18.1759 274.24 11.6044 280.331 5.44957 275.618C1.15403 272.317 0.384674 254.045 1.82721 249.3C2.37216 247.505 3.3018 246.832 5.22517 246.928C10.226 247.185 34.5887 256.705 36.8006 254.654C36.6724 247.954 30.3894 243.915 27.4722 239.17C22.9844 231.894 27.7928 219.231 27.2799 208.941C26.8952 201.024 23.2408 190.99 23.914 183.393C24.2025 180.155 26.8632 176.212 26.799 175.346C26.7029 174.032 23.1126 172.429 22.4394 168.935C21.9586 166.563 22.3753 152.266 22.4394 148.163C22.4715 142.457 27.2158 138.033 27.2478 135.372C27.2478 131.397 19.362 127.775 23.3049 118.607C23.914 117.164 26.6388 116.042 27.1196 114.247C27.889 111.33 24.6513 109.278 24.1384 106.49C23.4973 103.156 27.9851 79.434 29.6521 76.9337C30.1008 76.2925 31.6395 74.818 32.0563 75.3629C29.6841 80.2996 32.0563 85.4927 31.8319 89.0509C31.4472 95.3981 23.7537 102.226 28.8827 110.593L28.7224 110.465ZM46.2893 214.519C41.577 216.923 36.6403 216.891 31.9281 214.519L29.3315 231.381C35.6145 235.548 35.294 250.903 43.1477 247.281L44.7506 235.324L47.9241 238.497L51.1298 232.118C44.7506 233.561 38.1149 233.913 31.9281 231.317C33.9155 227.149 43.9492 229.714 44.7506 228.912C45.2635 228.4 44.4621 217.308 46.3213 214.487L46.2893 214.519ZM78.3135 262.54C77.0953 258.34 77.9609 244.844 74.0821 243.562C63.824 240.132 54.9765 251.256 46.2893 254.557C43.9492 257.955 74.8194 264.11 78.3135 262.54ZM35.1016 259.334C34.7811 256.93 32.8577 256.737 30.9664 256.289C22.9844 254.365 14.3292 253.339 6.31509 251.352L9.52072 270.554L35.1016 259.334Z" fill="#818362"/>
<path d="M41.6727 360.12C42.3138 360.761 46.0323 359.318 46.385 361.049C47.9237 368.775 43.0511 368.583 42.987 369.096C42.6664 371.949 45.808 374.737 46.3529 378.52C49.2059 398.523 45.6477 429.169 46.1926 450.743C46.417 459.622 51.2575 472.06 45.4553 480.267L43.0511 462.668C40.3584 462.347 41.2239 468.342 41.3521 469.945C41.6406 473.182 42.7947 475.586 43.0511 478.664C38.8838 476.837 38.5312 470.618 38.2106 466.707C35.1973 432.791 43.4678 392.721 38.2106 357.715L41.4483 344.188C42.0574 347.105 40.5828 359.03 41.6406 360.088L41.6727 360.12Z" fill="#818362"/>
<path d="M77.8646 494.243C75.3001 497.352 63.7598 501.712 59.4964 502.257C50.6168 503.443 23.4651 502.161 15.419 499.147C-5.67406 491.262 16.8936 475.586 29.4596 473.855L16.7974 485.203C15.2907 487.479 12.7262 490.108 15.8998 492.287C23.1445 497.224 60.1054 495.782 67.9272 488.313L69.4979 491.518C79.5315 484.626 66.3885 476.612 59.1117 473.887C60.6504 469.912 70.3955 473.823 73.0241 475.201C80.1085 478.92 83.0257 487.96 77.8325 494.275L77.8646 494.243Z" fill="#818362"/>
<path d="M46.2887 345.021C46.1925 345.694 44.7179 349.605 43.1151 349.028C45.8399 342.809 39.9736 340.629 39.9095 340.085C39.7171 337.841 39.9095 328.929 39.9095 325.82V265.778H41.4802L41.5123 270.587H43.083L43.1151 261.002L46.2887 263.406C43.7562 288.698 49.7187 320.594 46.2887 345.053V345.021Z" fill="#818362"/>
<path d="M31.9284 54.4316C33.371 37.3777 21.3499 13.3034 35.102 0C32.1528 16.4128 40.1028 32.4409 35.3585 49.0782C34.7494 51.2259 34.7494 53.9507 31.9284 54.4316Z" fill="#818362"/>
</svg>
