<svg width="269" height="286" viewBox="0 0 269 286" fill="none" xmlns="http://www.w3.org/2000/svg">
<path d="M195.631 283.727C193.911 283.923 193.616 284.906 192.412 286L192.227 285.435C198.433 277.718 204.11 272.508 204.749 261.929C205.609 247.798 200.239 234.994 203.397 219.991C203.876 217.693 205.744 213.651 205.867 211.807C206.039 209.288 205.191 205.074 205.105 202.383C204.368 180.634 204.601 158.491 214.591 138.635C211.642 129.419 208.926 120.105 207.513 110.484C206.751 105.274 206.186 99.9532 206.665 94.731C179.08 87.4936 149.11 76.0784 134.218 50.1147C131.981 52.4002 130.482 55.3123 128.356 57.7084C113.083 74.9234 90.486 71.618 73.5537 58.8389C73.8854 62.8815 74.9053 66.8135 75.3968 70.8316C80.0784 109.034 71.8948 149.19 67.8645 187.208C66.7832 197.431 66.0705 204.41 67.1027 214.879C68.8967 232.942 75.1265 256.485 73.9223 274.044C73.6765 277.681 73.1359 283.469 68.7738 284.059C64.0062 284.698 57.1251 284.317 52.1118 284.464C37.2683 284.894 15.4087 285.275 1.25334 280.753C0.77412 280.606 0.30719 280.63 0 280.127C11.8207 264.607 33.9384 261.757 37.7967 240.192C40.8686 223.051 34.2579 205.098 38.4725 187.773C41.5936 174.932 47.4916 163.345 48.1429 149.657C48.3026 146.29 47.6391 135.342 45.3044 133.142C44.9972 132.859 44.3952 132.81 44.3583 132.773C44.1248 132.454 45.0095 131.582 45.1078 131.053C45.5379 128.682 42.7732 120.363 42.1957 117.303C41.4215 113.162 40.7703 109.132 40.9423 104.893C40.9669 104.438 40.6597 103.48 41.3232 103.566C41.7042 106.761 41.9991 110.004 42.5274 113.175C42.6134 113.691 42.638 115.239 43.2155 115.325C44.0019 112.437 44.9235 109.353 47.3073 107.387C49.1505 105.864 50.2318 107.141 49.2856 103.578C48.02 104.512 47.6022 106.773 45.6854 106.625C43.6456 106.466 45.4888 100.666 46.4472 99.7812C47.5531 98.7613 48.3026 100.076 47.381 96.7584C46.2752 98.0609 45.8697 99.7812 44.8867 101.28C44.4443 101.956 44.0265 102.669 43.3999 103.209L43.5842 99.8058C42.7732 99.9164 43.1664 101.563 42.7363 101.993C40.8932 103.799 39.603 100.076 39.4064 98.6753C38.9149 98.6999 38.4111 100.15 38.3496 100.482C38.0179 102.226 39.1483 102.595 39.6153 103.984C40.0208 105.2 40.3034 111.565 39.2221 111.565C39.0746 111.565 38.4479 110.594 38.2759 110.815L39.4064 115.362L34.1104 112.327C34.0613 113.9 32.5007 115.583 33.5083 116.886C34.5159 118.188 35.9536 118.299 36.7768 120.461C40.3034 129.652 31.0262 122.943 32.2058 118.016C31.8741 117.66 27.3154 121.014 26.8976 118.95C26.8361 118.667 29.0111 114.379 29.392 113.863C30.2398 112.708 31.9478 112.093 32.1321 111.86C32.3164 111.626 32.6973 109.021 32.599 108.911C30.3873 109.255 28.0158 108.604 25.9637 108.53C25.2633 108.505 24.0714 109.194 23.5431 108.862C22.7075 108.346 22.2037 103.664 23.4939 102.841H18.5666C18.2594 100.457 22.855 99.0194 23.2973 98.2821C23.3956 98.1224 24.182 95.0873 24.2558 94.6818C24.3541 94.0429 24.3172 94.0797 23.7642 94.1903C23.2113 94.3009 20.4589 94.989 20.4712 93.9323C20.4712 93.4039 23.6659 90.1477 24.5384 90.0126C25.4476 89.8651 25.7548 90.9095 26.148 89.3613C26.3446 88.5749 25.9883 88.9067 25.6074 88.7961C24.6858 88.5257 21.8597 88.2554 21.6139 87.0881C21.3682 85.9208 23.6782 86.1542 23.8748 85.4047C18.7509 84.8763 19.9428 75.3289 21.2084 71.9252C24.268 63.6925 36.0519 64.1348 30.7682 73.9035C29.4534 76.3242 26.9222 80.0227 23.838 78.0444L23.1253 73.6454C20.1885 81.1163 24.3295 88.2677 31.0754 80.2685C32.7096 78.327 33.4469 75.1077 36.015 74.7759C36.3345 74.4687 31.9355 71.5074 33.9384 70.9913C34.3685 70.8807 38.0793 73.326 38.7183 73.7806C39.2098 74.1247 40.3525 74.8619 40.5614 75.3534C40.9178 76.189 40.0822 75.7835 39.8364 75.7958C37.7967 75.8941 36.3099 74.1861 34.8845 76.4839C34.7248 77.5038 36.654 76.3364 37.3543 76.3487C42.7363 76.447 42.638 87.2233 35.9167 85.6873C33.496 85.1344 32.7588 81.6201 35.6341 80.9934C37.4526 80.5879 37.5509 81.6078 39.0623 81.9764C39.1361 76.8034 35.4375 78.413 33.3732 81.4112C29.5394 86.9652 38.7551 92.8878 43.7808 85.7487C44.6532 84.5077 46.3243 80.207 46.1646 78.794C46.0048 77.3809 43.7439 76.6436 43.621 75.1445C44.6409 74.9848 45.4396 75.4272 46.2752 75.9064C45.9434 73.8666 45.2307 71.962 45.5133 69.8363C31.9847 74.3581 26.1112 63.8768 40.2051 58.4457C39.5538 56.4919 39.7627 54.0467 38.4971 52.3879C37.0963 54.6979 36.9366 57.2292 35.2655 59.3918C32.4762 63.0289 25.6074 66.9978 24.3786 60.0676L24.6612 56.7377C23.3096 59.0109 21.9211 61.3087 23.7397 63.7293C24.4524 64.6878 25.7671 64.8967 25.804 66.0271C23.752 65.8428 24.096 67.2805 23.9486 67.3665C21.491 68.7918 17.7802 65.9534 16.7112 63.7539C18.6403 63.8399 20.7169 63.3116 22.4003 64.5035C22.388 63.6188 21.6262 63.1518 21.4173 62.2425C20.6801 58.9495 23.9608 53.1251 26.6027 51.0731C31.2843 47.436 41.5199 45.7157 40.9792 54.2679C42.1588 53.973 42.5151 53.1866 43.8422 52.7688C45.2921 52.3142 46.6806 52.3019 48.1797 52.3756L44.3829 56.922C45.9925 56.8851 47.7865 57.094 49.1259 58.0648C49.642 56.8606 49.8017 55.3615 50.6495 54.2925C51.2271 53.5675 52.5787 53.1006 52.9105 52.3756C53.4511 51.196 53.1562 41.071 53.1194 38.9084C53.0948 37.3355 53.316 36.5491 53.3405 35.5047C53.3405 35.1729 51.2639 31.4252 50.9076 30.4913C50.3546 29.0291 48.5729 21.4968 47.9463 21.3371C44.5057 21.9023 41.0406 22.5413 37.5387 22.4184L37.9196 15.2178C39.2098 14.6526 46.6929 15.9182 47.0124 15.5865C47.8971 14.7018 44.5549 13.7188 46.9018 13.0061C50.5144 11.9002 48.8556 17.4665 48.9293 19.1376C49.0399 21.4599 50.9076 26.0924 51.866 28.3656C65.6159 60.9032 113.267 87.1741 134.66 46.1826C136.626 42.4103 137.941 38.2203 140.103 34.5463C140.226 34.3251 140.472 33.0717 141.05 33.7967C141.922 34.8903 134.869 47.35 134.279 49.4757C149.614 69.3939 172.444 83.4018 196.504 90.3935C201.627 91.8803 207.378 92.5069 212.281 93.9814C212.944 94.178 213.264 93.8463 213.104 94.8539H207.796C208.84 107.67 211.544 120.252 214.247 132.773C214.91 132.859 214.603 131.913 214.628 131.446C214.824 126.531 214.714 121.199 214.64 116.259C214.628 115.178 214.235 114.244 214.222 113.261C214.112 104.426 214.321 95.5788 214.259 86.744C212.06 86.0436 210.327 84.9992 209.492 82.726C208.816 83.0578 208.017 85.9945 207.612 86.9161C207.329 87.5427 206.26 88.3168 206.837 88.7961L208.926 87.2847C209.553 90.4918 204.134 92.3103 204.048 89.005C203.95 85.4416 208.803 82.8612 208.164 78.9414C207.354 79.396 207.059 80.8214 206.002 81.1409C202.045 82.3328 204.441 77.0123 205.572 75.4026C206.899 73.5226 209.442 73.5594 208.914 70.979C208.644 70.6964 200.902 73.7315 203.987 69.2711C205.916 66.4695 208.656 68.1652 208.914 67.944L209.295 66.0517C207.55 66.6784 206.297 67.6982 204.257 67.1945C203.876 67.0962 203.852 66.1746 202.955 65.7568C201.234 64.9581 197.351 64.909 195.262 64.356C192.412 63.5942 189.217 60.854 186.551 62.6357C186.858 60.1659 186.329 61.0629 184.879 60.3257C181.377 58.544 177.826 55.8407 174.779 53.3586C168.328 48.0995 162.442 41.4273 159.604 33.2683C159.37 32.5802 159.198 31.9044 159.235 31.1672C158.535 31.0074 158.498 31.4006 158.166 31.7938C157.626 32.4205 156.151 35.0501 155.819 35.3327C154.529 36.4263 155.549 32.7646 154.689 32.6785C155.131 33.7476 150.83 39.9405 150.511 39.4982L150.314 37.225L146.518 42.1523C145.719 38.8224 145.547 35.1852 146.702 31.9167C144.121 33.4404 145.338 32.9366 145.227 34.7551C145.068 37.3601 143.605 39.7439 142.684 42.1154L140.644 44.8064V36.6474C140.644 35.7382 142.438 33.5633 142.917 32.6663C140.177 32.8506 136.7 31.4129 136.085 28.4885H143.102C143.741 28.4885 146.014 29.5575 146.518 29.4961C146.751 29.4715 148.914 28.0953 147.992 27.7266C146.739 27.2474 145.203 27.3703 144.244 25.8343C143.396 26.0432 143.568 28.5008 142.733 28.0953C141.897 27.6898 142.057 24.6302 142.155 23.7332C142.377 21.7549 143.765 19.7397 144.994 18.2283C145.719 17.3436 149.626 14.2594 148.975 13.3133C148.139 12.0968 139.882 12.0968 138.174 12.1705C135.704 12.2811 130.666 12.5637 128.393 13.0061C126.71 13.3378 125.272 15.2056 124.388 16.5941C121.144 21.6566 118.723 27.7881 115 32.6171C100.943 50.8396 79.8203 45.0645 69.4127 26.6945C67.4344 23.2048 66.6726 19.3588 65.0998 16.1886C64.7434 15.4759 64.1659 15.992 63.8587 15.5865C63.5393 15.1564 62.8143 13.215 62.4334 12.9815C58.7471 12.9201 55.0117 12.9815 51.3131 12.9078C49.8386 12.8832 49.5928 13.4853 47.8848 12.576C47.6145 12.4286 46.6806 12.4531 47.3442 11.7896C48.3272 10.8066 55.7489 10.5485 57.3832 10.6468C62.4088 10.9663 64.2642 13.0921 68.4912 13.9399C71.219 14.4929 75.8023 14.8124 78.6039 14.8246C92.2308 14.8861 105.981 12.7235 119.571 13.6696C120.701 13.7433 123.269 14.6035 124.056 14.4437C124.24 14.4069 125.567 12.232 126.698 11.679C129.303 10.4134 141.357 10.7083 144.601 11.0032C145.965 11.1261 147.537 11.937 148.447 12.0231C149.516 12.1214 151.125 11.335 152.551 11.3718C153.706 11.3964 156.176 12.3425 157.048 12.1705C157.318 12.1214 159.002 9.3075 161.373 8.816C163.88 8.29992 164.887 9.59011 166.595 9.51639C168.119 9.45495 169.876 7.80841 171.719 8.34907L170.392 6.83769C169.631 9.0126 165.121 7.57495 164.593 5.80553C163.917 3.53232 165.133 3.04082 167.112 3.66748C168.66 4.15899 169.286 5.58435 170.073 5.98984C171.044 6.48135 172.26 6.29703 173.231 6.8254C172.334 4.23271 172.973 0.829046 176.082 0.374404C176.856 0.263815 176.585 0.44813 176.647 0.939634C176.843 2.29127 176.733 4.77337 175.897 5.89154C175.393 6.57965 174.546 6.54279 174.374 7.20632L177.396 8.72998C176.979 5.30174 178.883 4.60134 181.955 4.9454C181.783 7.03429 180.407 8.74227 178.932 10.0693C180.296 11.1261 181.943 12.5514 181.574 14.4314C180.198 14.6403 179.62 13.2518 178.736 12.5391L177.028 14.9967C178.686 15.3407 180.468 15.4636 181.771 16.6924C182.668 10.2536 189.438 9.82358 193.985 13.1904C196.098 14.7632 196.061 16.7661 196.368 17.0733C196.405 17.1101 196.983 16.6432 197.487 16.8644C198.039 17.1101 198.347 18.0563 199.01 18.2037C197.941 15.2301 198.531 12.8463 200.153 10.2414L197.499 11.7527C197.437 10.0079 197.978 8.52109 198.248 6.8254L196.737 8.33678C196.565 6.73939 195.299 0.558718 197.376 0.0303507C199.453 -0.498017 201.148 6.02671 200.153 7.57495C201.283 7.15717 202.561 5.76867 203.778 5.69494C205.056 5.60893 205.756 6.59194 206.469 6.70253C207.181 6.81311 207.968 6.12501 209 6.78854C209.578 7.15717 210.241 12.7849 210.769 14.0259C210.941 14.2103 213.718 11.2244 215.34 12.3057C216.25 14.7878 213.178 18.8673 211.138 20.2803C210.45 20.7596 209.43 20.5998 209.258 21.2388C212.858 20.993 217.208 23.6226 216.471 27.6898L218.744 26.547C217.823 24.4581 215.783 23.5366 216.852 20.8701L212.686 20.3049C213.067 19.113 215.23 19.4571 215.34 19.3588C215.476 19.2359 215.267 16.5203 215.377 15.7831C215.783 12.8218 218.007 9.94646 220.464 8.36135C221.128 9.63927 221.066 11.1261 221.03 12.5269C223.45 11.3718 227.21 11.6176 229.938 11.765C231.032 11.8265 231.929 12.5269 232.961 12.5269C233.993 12.5269 235.345 11.8265 236.573 12.1459L233.354 17.0856L230.503 19.3465C231.781 19.4202 235.087 21.5337 235.996 21.4845C236.328 21.4722 237.04 20.7841 237.692 20.6613C241.022 19.9854 243.467 20.4401 246.809 20.5015C247.03 21.3739 246.649 21.1282 246.33 21.3739C243.541 23.5243 239.572 24.9128 236.193 23.5366C237.114 26.6576 236.451 29.8155 236.573 33.0103C233.317 31.6341 231.953 27.8987 232.42 24.495C232.543 23.6349 233.317 22.959 233.157 22.0129C232.113 22.0989 228.242 20.4278 227.886 21.8532C227.825 22.1112 228.734 25.564 228.599 27.1245C228.439 28.9062 227.517 29.2503 227.517 29.3855C227.517 31.3392 228.058 33.6124 227.837 35.8487C227.689 37.3847 226.522 39.8914 226.694 41.1447C226.743 41.5379 229.803 45.1136 230.417 46.1703C231.548 48.0749 232.138 50.2744 233.133 52.0807C233.329 52.4247 233.981 52.5108 234.091 52.7196C234.3 53.0883 233.612 57.2292 235.799 55.7793C235.554 56.8729 236.426 57.7453 236.537 58.6423C236.856 61.1367 235.996 63.7048 237.692 66.0148C237.47 66.236 234.89 64.5526 234.644 64.2208C233.784 63.1027 233.526 59.4041 232.949 59.1952C232.396 60.5591 231.081 60.7066 229.729 60.7066C231.277 58.4825 229.582 56.0742 230.479 53.5061L227.272 56.5165C228.021 59.2812 226.78 64.0488 227.517 66.5063C227.64 66.8996 230.811 70.2909 230.479 70.5613C228.316 70.1681 226.694 69.4185 227.063 72.4658C228.402 71.962 233.821 71.3968 234.595 72.515C235.418 73.6946 233.882 75.3043 232.531 75.4886C230.344 75.7958 227.689 74.0018 226.866 74.1124C225.429 74.2967 226.473 76.1767 227.051 76.7665C227.382 77.1106 227.911 76.9508 228.095 77.1106C228.697 77.6266 228.242 80.7354 228.046 81.5955C227.825 82.5417 226.375 85.2818 226.387 85.4907C226.436 86.1297 229.152 91.8065 229.643 93.2319C232.985 102.976 234.976 113.519 235.443 123.84C235.898 133.941 234.62 145.049 235.443 154.953C236.119 163.222 240.186 171.713 240.739 180.376C241.464 191.545 239.019 202.788 241.304 213.933C243.713 225.643 251.147 235.695 255.152 246.729C259.416 258.451 259.097 271.845 268.792 281.048C262.181 281.81 255.521 282.768 248.886 283.321C231.683 284.759 213.743 285.349 196.54 284.083C196.049 284.046 195.594 284.353 195.607 283.702C203.397 282.793 213.424 284.022 221.583 283.702C223.549 283.629 226.055 283.063 228.034 282.953C240.395 282.289 252.769 281.748 265.007 279.905C262.537 276.588 260.497 273.688 259.035 269.768C255.951 261.474 255.373 252.725 251.798 244.394C247.104 233.446 240.419 224.009 238.564 211.734C237.016 201.473 239.178 190.955 238.453 180.757C237.765 171.172 232.826 160.851 232.74 151.561C232.641 139.63 234.251 128.104 233.145 115.915C232.347 107.129 230.184 98.5279 227.075 90.3197L225.564 103.59C224.876 103.394 224.63 102.398 224.519 101.796C223.807 97.68 224.753 93.109 224.826 89.005C224.888 85.589 224.74 82.1608 224.79 78.7325C224.802 77.5898 225.625 76.7911 224.642 75.8818C223.45 74.8005 223.708 76.3487 222.922 77.2334C222.32 77.9215 221.017 78.3885 220.452 79.2978C220.108 78.8923 219.297 78.413 219.186 77.9092C219.1 77.5529 219.69 73.2522 219.899 72.687C220.182 71.9375 221.103 71.2248 221.03 70.7824C220.956 70.4138 220.587 70.0943 220.108 70.6104C219.531 71.2371 218.928 73.584 218.339 71.962C217.859 70.635 217.54 67.305 217.614 65.8305C217.724 63.2501 219.236 61.0998 218.756 58.4457C217.749 58.6546 217.036 60.8295 216.311 60.9523C215.021 61.1612 211.396 58.9495 211.175 59.2075C211.249 61.3087 210.585 65.425 213.448 65.6462C213.977 65.1547 210.954 63.2993 212.121 62.2425C214.247 63.3853 217.945 66.5186 217.245 69.1973C217.171 69.4922 216.483 69.4431 216.471 69.6643C216.471 70.0452 216.913 70.5981 216.864 71.1511C216.754 72.687 216.213 73.9649 216.495 75.6852C216.631 76.533 217.687 77.6881 217.614 77.7864C217.442 77.9953 216.655 77.4915 216.446 79.1011C215.906 83.537 216.803 88.3537 216.864 92.7527C217.012 103.136 216.68 113.531 216.446 123.853C216.36 127.576 216.532 131.324 216.471 135.059L223.856 120.265C224.999 117.438 227.468 110.754 227.468 107.952V100.371C227.468 100.224 225.994 96.7707 227.284 97.9012C232.064 111.749 223.671 124.295 218.302 136.325C211.593 151.365 208.042 161.612 207.353 178.471C206.874 190.071 208.619 202.358 207.747 213.749C207.427 217.988 205.707 221.932 204.896 226.061C201.161 244.996 213.608 260.712 200.165 278.21C199.317 279.316 195.643 282.83 195.619 283.715L195.631 283.727ZM174.398 14.0997C175.357 14.5174 177.986 12.9815 177.789 12.0599C177.667 11.4947 173.513 8.97573 173.255 9.17234C174.005 10.4011 173.022 9.5041 172.874 10.3028C174.386 9.83587 174.472 11.1384 175.062 11.4333C175.725 11.7527 178.404 11.6176 176.376 12.8832C175.787 13.2518 174.632 13.1658 174.374 14.0997H174.398ZM173.255 11.8265C171.756 11.9002 170.478 12.232 168.992 11.7159C167.849 11.3227 167.357 10.3028 166.251 10.2782C165.686 10.2659 162.762 10.6346 162.147 10.7574C161.619 10.868 160.882 11.2367 160.734 11.8142C163.106 11.0155 167.714 9.82358 167.185 13.7188C167.898 13.4116 168.488 11.5193 169.458 12.2074C169.753 12.4163 167.652 14.1488 171.449 12.8709C171.916 12.7112 173.169 12.3671 173.243 11.8265H173.255ZM205.486 11.0646C204.65 10.2291 200.313 12.2811 203.2 14.3086C204.503 14.5666 206.223 11.8142 205.486 11.0646ZM206.248 15.2424C203.864 15.8814 201.271 16.25 201.689 12.9692C198.261 16.9381 203.802 19.9731 206.248 15.2424ZM223.684 13.7188L221.03 12.9569L219.506 18.2652C223.205 18.4986 221.669 18.3512 222.332 15.9797C222.578 15.1318 223.278 14.4806 223.671 13.7188H223.684ZM164.912 13.3378C162.651 13.3255 159.186 14.2225 159.641 17.0856C160.943 17.7737 162.061 17.3559 163.401 17.1224C163.106 15.9182 160.562 16.5818 161.127 15.0458C161.558 13.8908 162.59 15.439 163.868 14.7632C164.445 14.456 165.035 14.0874 164.912 13.3255V13.3378ZM216.483 19.027C217.601 20.1083 219.481 14.2225 218.756 13.3501L216.483 19.027ZM156.188 14.0997C154.627 14.0382 152.256 13.3133 150.769 13.7065C150.29 13.8293 149.356 16.6186 148.606 17.1224C150.032 16.5818 152.624 18.0686 153.644 17.8228C154.762 17.5648 155.635 15.0458 156.188 14.0997ZM230.516 14.0997L227.1 13.7188L226.719 16.3729C229.459 17.1716 229.213 16.1026 230.516 14.0997ZM123.196 15.6233L66.6972 16.1886C67.0412 18.0809 68.9581 18.8673 70.6784 19.027C74.2418 19.3588 80.1398 18.4495 84.0104 18.4126C88.8763 18.3635 93.8897 18.2775 98.7187 18.2529C106.067 18.216 113.427 18.1177 120.714 19.0516C121.414 19.113 123.417 15.8199 123.183 15.6233H123.196ZM169.79 16.0534C169.606 15.7462 168.451 15.5742 167.972 15.7831C166.264 16.5203 165.895 20.3664 162.43 20.8947C161.361 21.0545 159.506 21.2019 159.616 19.7888L160.366 19.4079C158.695 19.0393 157.257 18.2897 157.331 16.3729C154.713 19.3588 159.776 21.4231 161.865 22.6519C162.332 22.9222 162.713 23.6471 163.032 23.7946C163.413 23.9666 163.696 23.3768 163.966 23.3768C165.109 23.3522 168.881 25.6992 169.852 26.6208C169.446 25.8098 169.053 23.3768 168.623 22.9222C168.254 22.5167 165.674 21.7917 165.674 21.4968C165.674 19.027 169.041 22.1972 169.655 21.3002C170.208 20.4892 170.208 16.7292 169.79 16.0534ZM191.072 19.4079C194.316 20.01 195.877 17.8228 193.161 15.6233L191.072 19.4079ZM188.504 17.786C189.156 18.1546 190.864 17.319 190.704 16.5695C190.495 15.5865 186.882 15.8199 186.575 16.9995C186.219 18.3512 187.779 19.1867 187.669 18.4618C187.607 18.0809 186.993 17.5033 187.878 17.1347C188.553 16.8521 188.418 17.7245 188.517 17.786H188.504ZM200.558 19.7888C201.32 20.4647 203.679 25.4289 204.159 25.4657C204.871 25.5272 204.404 23.8315 204.613 23.3154C204.908 22.5904 205.928 21.9146 206.432 20.9316C207.046 19.7274 207.489 17.7368 207.747 16.3729C207.083 16.6924 206.936 17.5156 206.248 18.0931C204.675 19.4079 202.574 19.9732 200.546 19.7888H200.558ZM46.9755 16.7538L40.1436 17.1347V20.1698C42.5643 20.3541 44.985 19.2236 47.3442 19.7888L46.9633 16.7538H46.9755ZM179.325 24.3353C180.566 25.6255 182.999 18.3635 179.239 17.3682C178.306 17.1224 177.581 17.5402 176.671 17.5156C179.289 19.2359 178.342 22.1849 176.671 24.3353L179.891 22.062C180.689 22.701 178.945 23.9298 179.325 24.3353ZM198.666 21.3002L196.393 18.2775L195.631 21.3002H198.666ZM146.714 20.1575C148.41 20.2558 150.167 20.7841 151.74 21.3862C153.104 21.9023 154.554 23.4137 155.819 23.0328C158.498 22.2218 154.812 19.3833 153.263 19.1007C151.531 18.7812 148.029 18.7075 146.714 20.1452V20.1575ZM120.161 20.1698L68.9581 19.9854C75.2616 40.9235 100.672 50.5447 114.619 29.9998L120.148 20.182L120.161 20.1698ZM183.872 23.9543L183.774 22.3447L182.729 19.7888L181.586 23.9543H183.86H183.872ZM191.453 21.6811C189.352 21.7671 187.239 21.1282 185.396 20.1575C185.506 20.8701 185.224 24.5441 185.396 24.7162C185.506 24.8268 186.87 24.6302 187.288 24.7162L186.157 25.8466C187.386 26.2398 192.399 26.3996 191.294 28.513C190.827 29.3855 189.475 29.238 189.192 30.0244H192.608V31.1672C191.109 30.9091 189.622 31.9167 188.246 31.929C185.899 31.9536 179.669 30.393 181.414 26.9894C181.746 26.3258 182.729 26.5224 182.741 25.8589C176.487 25.1462 182.926 36.3648 185.174 37.2618C191.318 39.7071 192.793 27.272 198.875 27.3334C199.784 27.3334 199.637 27.3826 199.993 28.1321C200.657 27.3949 201.406 26.6945 202.463 26.6085C202.586 26.4487 200.571 23.2417 200.374 23.1925C199.797 23.0451 199.33 24.3598 198.654 24.8759C197.437 25.8098 194.267 26.8911 192.756 26.9402C188.529 27.0877 192.068 23.7209 191.847 23.5734L187.3 23.3768L191.466 21.6688L191.453 21.6811ZM225.588 39.8914C225.76 36.242 225.785 32.7031 225.76 29.066C225.76 28.6236 226.326 28.169 226.276 27.6283C226.215 26.9894 225.06 25.8466 224.863 24.5073C224.691 23.2662 225.564 20.1083 224.421 20.3295C222.922 20.6121 222.123 21.1773 220.28 20.563C220.219 21.4477 221.005 22.0375 221.238 22.8239C221.484 23.6717 221.349 24.9496 221.767 25.6132C222.234 26.3627 224.581 26.2644 225.207 27.186L220.661 30.4053C224.016 32.1256 222.246 37.9008 225.588 39.8914ZM152.403 25.0971C149.725 25.22 147.845 23.4751 145.78 22.4184C144.65 21.8409 144.465 23.0819 145.608 23.7332C147.132 24.6179 149.933 24.1141 150.142 26.9771L152.416 25.0848L152.403 25.0971ZM235.062 22.8239C234.177 21.6566 234.251 24.8882 234.288 25.306C234.349 25.9572 234.239 26.547 234.878 26.9894L235.062 22.8239ZM159.985 23.5857C158.731 22.4184 156.458 27.2966 157.712 28.513C158.424 28.2181 160.181 23.77 159.985 23.5857ZM177.777 27.7143C177.863 27.6406 178.269 25.5763 178.183 25.478C177.065 26.6699 175.59 26.3136 174.398 27.186C174.988 27.4194 177.445 28.0092 177.777 27.7143ZM207.378 25.478C205.4 25.4411 207.169 27.6529 207.575 28.894C208.312 31.1795 207.046 32.4819 210.585 31.9044C214.947 31.1795 210.376 29.7541 209.528 29.2257C208.312 28.4639 207.464 26.9402 207.39 25.4903L207.378 25.478ZM155.807 25.8589C153.067 26.3381 151.74 29.877 152.772 32.2976C154.627 31.2286 153.583 29.3732 153.534 27.7512L155.426 29.2626L155.807 25.8589ZM174.386 28.894C172.727 28.894 171.511 27.8495 170.22 26.9894C171.007 28.8817 171.289 30.2825 170.601 32.2976L174.386 28.894ZM169.09 44.0569V38.1834C169.09 38.0237 170.614 35.0746 171.179 36.0945C171.683 36.9792 170.982 39.2033 170.97 40.4566C170.97 40.8867 170.724 41.882 171.351 41.7837C171.904 39.2156 172.42 37.483 171.351 34.964C166.251 37.7165 161.435 32.0519 160.734 27.3826C160.243 27.272 160.12 28.0953 160.071 28.427C159.358 33.3544 165.785 40.7146 169.078 44.0692L169.09 44.0569ZM208.14 46.7233C205.265 45.7526 202.561 42.0663 203.286 39.019C203.495 38.1465 204.343 37.7902 204.331 36.7212C204.306 34.0916 202.107 30.5528 203.581 27.3826C203.299 27.014 199.846 30.221 199.809 31.3638C199.772 32.3222 201.124 33.6493 201.492 34.5954C202.623 37.5322 201.615 40.6901 201.308 43.6882C198.924 42.14 197.597 39.6702 197.327 36.8686C195.14 39.4244 198.506 41.7837 198.936 44.3518C199.219 45.986 198.961 47.4237 198.642 49.0088C196.626 48.2469 195.656 46.7233 194.279 45.2242C193.149 47.1656 194.329 46.4775 195.176 47.7432C197.069 50.5816 198.224 54.7225 197.88 58.1139C196.848 57.0695 195.582 55.8161 194.673 54.6857C194.353 54.2925 194.034 52.5353 193.333 53.1866C193.21 53.3094 192.768 55.3983 192.485 55.939C192.105 56.6394 189.131 59.8342 189.536 60.3748C192.117 61.2104 194.599 62.3531 197.204 63.1395C198.298 63.4713 203.077 64.8844 203.766 64.7861C204.417 64.7001 205.523 62.7832 206.223 62.476C208.177 61.6036 209.59 63.7048 208.681 59.6253C207.243 61.3824 205.695 62.3408 203.741 63.4099C203.532 60.3011 203.864 54.2433 208.103 54.317C208.164 55.9759 206.149 56.5902 206.592 58.4825C209 56.7623 208.988 53.5429 208.865 50.9011C208.214 51.2083 208.164 52.1421 207.55 52.8057C206.223 54.2802 204.429 55.5827 202.795 53.7272C204.134 52.1053 204.798 49.6232 206.211 48.1609C206.85 47.4974 207.808 47.4483 208.103 46.7356L208.14 46.7233ZM168.697 27.7512C168.009 27.1 167.849 28.6728 167.333 28.8325C166.817 28.9923 166.202 28.8571 165.662 28.8817C166.19 29.877 168.709 32.5557 169.09 30.1964C169.164 29.7541 168.893 27.9355 168.697 27.7389V27.7512ZM206.248 32.6785L205.682 27.7512C204.761 28.6482 205.314 30.8477 205.498 32.1133C205.596 32.7768 205.301 32.7523 206.248 32.6785ZM148.606 36.0945C148.84 35.861 150.327 29.9138 150.13 29.6435C149.774 29.9753 148.287 30.7985 148.225 31.0443C148.103 31.5604 147.845 34.792 147.845 35.517C147.845 36.1191 148.189 36.5123 148.606 36.0945ZM193.309 41.3659C193.395 41.2922 194.034 39.363 194.046 39.2524C194.206 37.8025 191.871 39.2524 190.777 39.4122C188.91 39.7193 186.391 39.9405 184.621 39.3139C180.653 37.9131 179.534 32.8751 177.605 29.6558C176.462 29.9876 172.727 34.62 172.555 35.603C172.469 36.1314 173.157 36.7703 173.219 37.4584C173.452 39.8422 173.108 42.2752 172.383 44.5484C172.125 45.3471 171.191 46.0966 171.375 46.8462C171.953 49.1194 184.019 57.4627 186.698 58.8634C187.693 57.4872 187.067 55.7301 187.878 53.9853C188.689 52.2404 189.93 52.3142 190.839 51.2574C191.933 50.0041 191.896 48.2838 191.81 46.7356C190.04 47.4851 188.959 48.4804 186.882 47.866C187.337 45.2979 188.05 42.226 190.95 41.501C191.613 41.3413 193.088 41.5502 193.296 41.3782L193.309 41.3659ZM221.411 36.8563C218.13 39.8914 214.837 34.5463 214.775 31.5481L211.961 37.3847C212.453 38.1588 218.105 40.2108 218.498 40.1863C219.887 40.0757 221.484 38.3308 221.398 36.8563H221.411ZM196.762 32.2976C194.488 32.1748 193.186 31.9044 192.965 34.5708C194.132 34.8043 194.992 34.706 195.054 36.0945C195.582 35.6399 197.142 32.6785 196.762 32.3099V32.2976ZM207.378 36.0945C209.393 36.1437 210.991 37.2987 211.15 34.4357C209.074 32.6417 207.366 33.2438 207.378 36.0945ZM209.664 37.9868C209 36.3034 205.744 38.9944 205.547 39.7808C205.301 40.7269 207.673 44.8801 208.902 44.2535C207.022 42.4718 206.26 38.2571 209.664 37.9868ZM53.4265 116.111V121.616C53.4265 121.85 56.179 123.865 56.7811 124.713C57.8132 126.175 58.2679 128.067 58.7348 129.763C58.4276 130.009 53.7092 127.736 53.0456 127.109C53.2791 128.485 52.3207 130.328 52.3821 131.557C52.4067 132.11 52.9228 132.466 53.0088 133.019C53.1685 134.076 53.1316 135.17 53.4265 136.214C54.0532 136.312 53.832 135.292 53.8198 134.875C53.7952 134.236 53.2914 131.79 53.4265 131.668C54.5447 130.574 55.2697 134.137 55.3434 134.862C55.5769 137.455 55.3188 140.465 53.2299 142.272L50.7724 134.85C50.883 132.761 51.694 131.139 51.1411 129.001C50.5144 129.37 50.5758 130.304 50.0106 131.09C49.4822 131.84 47.3565 133.24 47.3319 133.425C47.2336 134.113 48.3026 137.885 48.4501 139.102C51.78 167.302 36.9611 188.412 38.6445 216.034C39.1483 224.378 41.827 231.099 40.4877 239.885C37.5509 259.213 16.5391 266.868 4.12864 279.18C20.4466 282.768 37.6738 283.026 54.385 282.609C57.7641 282.523 61.6224 281.994 65.0261 281.871C67.2501 281.798 68.5403 283.162 70.4818 280.507C74.1558 275.494 71.3542 258.513 70.3712 252.172C69.1055 244.013 66.9429 235.965 65.9845 227.744C61.8927 192.639 69.9411 159.757 74.2295 125.352C76.7362 105.175 75.0773 88.9067 73.5291 68.8901C73.3693 66.8873 73.3939 58.3597 72.6567 57.4381L63.4778 48.6156L55.3311 37.9991L55.7366 42.7421L54.5447 52.5353C54.6062 52.8179 58.0467 54.6857 58.5628 54.6734C59.0788 54.6611 59.3738 54.0713 59.9144 54.1081C63.1461 54.3416 65.579 56.9097 65.579 60.1905C65.579 60.6083 64.8663 65.0195 64.7434 65.425C64.5714 66.0271 63.8342 66.2483 63.6867 66.8258L65.9599 67.0224C63.2812 67.6122 59.7178 72.2815 57.42 72.1709C55.3188 72.0726 56.437 70.7824 56.2773 69.4799C54.8765 69.738 54.0286 71.0528 53.0579 71.9498C54.213 72.2447 55.4171 72.2078 56.5599 72.6133C57.1743 72.8345 60.0619 74.3458 60.4674 74.7636C61.6593 76.017 64.6943 81.8413 65.0261 83.4755C66.5006 90.7007 59.7055 94.7556 53.4388 92.6052L55.712 98.2944C53.4388 98.0241 51.2025 97.2254 49.2733 96.0212C49.6911 97.0779 50.3669 101.059 51.1533 101.526C51.8292 101.932 53.0579 101.587 53.9181 101.796C55.9578 102.288 59.5704 103.689 59.8898 106.072C59.9758 106.699 59.8898 106.687 59.3123 106.65C57.0391 106.49 54.5816 106.072 52.2961 105.888C52.2715 106.687 52.2469 107.473 52.3821 108.26C52.8982 111.233 55.196 110.889 56.6336 113.101C57.5183 114.477 57.8132 116.542 59.1157 117.832C56.8425 118.704 55.2083 117.254 53.4265 116.124V116.111ZM220.649 41.7837C217.982 42.9633 216.483 41.157 214.21 40.2723C215.353 43.5285 215.955 44.5607 219.346 45.5683C220.12 45.8017 219.813 45.3717 219.887 45.003C220.133 43.9217 220.292 42.8404 220.649 41.7837ZM225.588 42.9264C224.777 42.7544 224.728 43.3319 224.384 43.8111C222.418 46.5267 221.165 46.883 224.261 49.7583C224.765 48.2838 224.188 46.6004 224.532 45.1013C224.74 44.2043 225.625 43.848 225.588 42.9387V42.9264ZM214.21 48.9842L214.591 44.8187L212.735 46.9568L214.21 48.9965V48.9842ZM224.396 50.1761C224.212 49.9918 219.875 49.0702 219.322 48.9965C218.068 48.8245 219.641 51.1591 219.924 51.8226C220.182 52.437 220.145 53.5183 220.366 53.8378C220.6 54.1696 222.492 54.5751 223.131 55.0543C224.151 55.8161 224.163 57.1186 225.207 57.7207C224.839 56.4674 225.601 54.7225 225.551 53.7149C225.527 53.162 224.925 52.5599 224.704 51.9578C224.519 51.4663 224.532 50.299 224.409 50.1761H224.396ZM31.8126 54.6734C27.3277 53.4938 23.3342 63.2747 30.1292 61.1367C34.3685 59.7973 35.5358 54.6734 37.809 51.4417C35.4375 48.1118 31.1368 50.6553 28.7776 52.7688C31.5669 51.4294 34.5773 53.3832 33.3609 56.3936C32.4885 58.5317 28.7653 58.1139 29.1585 56.3814C29.4903 54.956 30.3996 56.9712 30.4856 56.9466C30.9648 56.7623 32.2673 55.1157 31.8126 54.6734ZM216.483 53.5429C218.351 53.4569 217.601 51.282 216.668 50.5079C216.029 51.4294 216.323 52.5353 216.483 53.5429ZM214.972 54.6734L210.806 51.6383C210.29 54.9929 214.259 55.7301 215.549 58.458C215.451 56.5779 217.122 53.7764 214.984 52.7688V54.6611L214.972 54.6734ZM61.5732 64.5403C59.767 64.2577 56.7319 64.5403 54.7413 64.5403C53.2299 64.5403 51.9152 61.8862 51.9152 60.51C51.9152 60.3134 53.0088 56.8237 53.1316 56.6763C53.5371 56.1725 55.0485 56.2093 55.6998 56.197C53.9795 54.0344 52.0872 54.8208 51.2516 57.2538C50.9567 58.1139 50.072 63.1395 50.0843 63.9874C50.0966 64.8352 50.6373 65.7814 50.7356 66.6784C51.0182 69.4799 50.2072 71.5074 48.4992 73.6454C49.003 73.2768 51.4114 72.9819 51.522 72.8713C52.1486 72.2447 49.8509 68.1406 54.3973 67.9317C55.3926 67.8826 56.2035 68.3372 57.0022 68.3003C57.9607 68.2635 63.0232 65.5602 62.5317 64.9212C62.1262 65.0318 61.7821 64.5649 61.5855 64.5403H61.5732ZM223.315 58.8389C222.578 57.7207 222.283 55.5581 220.661 55.4352C220.157 55.9881 222.885 59.3058 223.315 58.8389ZM37.5018 66.0517C38.1039 66.6046 40.672 63.9014 41.0652 63.373C43.9774 59.4287 41.0038 60.2642 38.2391 61.6896C36.2362 62.7095 33.3486 64.9827 34.6511 67.5877C35.6341 69.5537 43.3384 68.6075 45.2184 67.5262C47.6514 66.1254 48.4501 62.7586 48.4746 60.1291C48.4992 57.7699 44.174 57.9787 42.4291 57.7207C42.4046 59.0478 44.0265 58.6177 44.3214 60.2028C45.0095 63.9259 39.7627 67.5631 36.3591 67.5877C36.3099 66.2237 36.0273 64.6509 37.8704 64.9335L37.4895 66.064L37.5018 66.0517ZM54.9379 58.0893C54.1884 58.888 57.3709 61.9231 58.3416 60.1782C58.3907 59.1215 55.196 57.819 54.9379 58.0893ZM225.588 65.2899C225.945 61.8616 223.143 61.8862 221.042 59.9816C220.428 63.5819 222.394 64.5772 225.588 65.2899ZM225.588 74.0141C225.429 72.8345 225.92 70.8562 225.404 69.8363C224.999 69.0376 222.455 69.0622 222.234 67.305C222.148 66.6538 223.696 66.1254 221.804 65.2899C221.374 68.6321 223.254 71.8269 225.588 74.0141ZM215.721 68.7181C215.623 68.583 212.834 67.6614 212.49 67.5754C212.305 67.5262 210.315 69.9469 211.236 70.9422C211.335 71.0528 211.949 70.9053 212.17 71.1019C212.772 71.6303 214.431 73.8666 214.775 74.0141C215.537 74.3458 215.316 73.4857 215.34 73.0802C215.39 72.2815 215.844 68.9024 215.709 68.7304L215.721 68.7181ZM24.9807 76.6682C27.8437 77.2949 30.9033 69.6888 29.1708 68.4969C26.8239 67.8088 25.3002 68.755 24.2558 70.8316C24.096 71.1634 23.3588 72.4904 24.2066 72.4904C24.354 71.3722 25.1036 70.3647 26.0989 69.8363C25.9883 72.2815 24.4032 74.0632 24.9684 76.6559L24.9807 76.6682ZM55.6875 74.4196C55.3926 74.1124 53.2545 74.6039 52.677 74.7882C53.2545 75.5992 53.9303 75.3043 54.6553 76.4102C55.2697 77.344 55.1345 77.9092 54.9502 78.9537C57.3463 78.6588 59.5212 79.4329 61.7698 80.0964C61.2169 76.9754 57.1128 78.327 55.9086 75.9064C55.6752 75.4272 55.7612 74.5056 55.6875 74.4319V74.4196ZM50.5021 77.3195C50.0106 76.7051 50.0352 75.8818 50.0106 75.1445C49.0522 75.7589 48.1429 76.0415 46.9755 75.9064C48.278 77.2089 49.0767 78.8554 49.1505 80.7477C49.175 81.3621 48.0937 87.8253 46.9755 86.5229C46.7544 84.4708 47.5654 82.7751 47.2582 80.7354C47.209 80.4036 47.0984 79.5927 46.5946 79.7032C46.4595 85.5276 42.9083 91.8065 36.3591 91.0816C36.9243 91.8065 38.9026 93.0599 37.6861 94.1043C35.9904 92.5684 33.3732 92.2612 31.5423 91.1553C30.5224 90.5409 30.0064 89.6562 29.1585 88.9927C28.8145 88.7224 28.5933 88.0957 28.2001 88.7961C26.9467 91.0693 30.0064 94.6204 29.9081 97.1394C28.4213 97.336 27.2785 96.3775 26.1235 95.628C26.3569 98.3436 29.1339 100.027 28.3967 103.209L25.7425 102.079C26.0006 103.578 26.873 104.586 26.5044 106.244C27.9052 105.778 28.5564 104.721 30.1907 104.438C31.1245 104.278 34.6019 104.487 34.7985 104.303C34.9706 104.156 35.3638 101.231 35.9658 100.74L31.3211 99.7075L29.5271 97.9012C31.2228 97.9258 33.152 96.5127 34.6879 96.3898C35.8798 96.2915 36.7768 97.1762 37.2438 97.0902C38.0547 96.9305 38.5708 95.0873 39.1115 94.5958C39.4432 94.3009 42.6012 92.5929 42.3308 93.834C41.9991 95.3822 42.2571 96.7953 43.5473 97.8889C43.105 96.2792 43.4367 92.765 44.6655 91.6099C45.157 91.143 45.8574 91.1922 46.0908 90.9587C46.3857 90.6638 46.3735 89.4719 47.1476 89.177C48.4009 89.0295 47.0493 90.2952 47.6882 90.8727C48.192 91.3273 49.642 91.4994 49.986 91.057C50.4652 90.4426 47.7988 88.624 48.0937 88.4152C51.0182 88.4152 52.9105 91.5239 56.0561 91.057L53.2054 89.177C49.2611 86.0682 50.0106 80.9934 55.8472 81.9887C59.3983 82.5908 61.3275 87.8745 56.8179 88.5995C59.1772 90.3935 61.3398 86.3877 61.3029 84.4217C61.2415 80.0473 57.2849 80.6985 54.6922 79.7155C54.2867 79.5681 50.625 77.4915 50.4775 77.3072L50.5021 77.3195ZM214.591 81.9764C214.91 79.052 213.252 76.3979 210.425 75.5255L209.295 81.9764L210.61 80.846L212.318 83.1192C210.831 77.5898 211.642 78.0444 214.591 81.9764ZM38.2513 83.8687C39.5293 81.9273 33.7787 81.7676 36.6048 83.8442C37.0103 84.1514 38.1285 84.0653 38.2513 83.8687ZM57.5429 85.4416C57.3463 85.1098 55.6875 84.2005 55.6875 85.589C55.6875 87.4444 58.4399 86.9529 57.5429 85.4416ZM51.9029 94.8784C51.7309 93.0353 49.3471 93.0722 48.1183 92.2243L50.2563 94.4484L51.9152 94.8784H51.9029ZM46.9755 112.695C47.762 113.506 50.8953 108.469 50.3792 107.387C49.3471 107.67 46.5332 112.241 46.9755 112.695ZM47.4056 122.513C46.9633 121.801 48.0323 118.63 48.4255 117.746C49.642 114.981 52.0258 114.735 50.7724 111.184L47.5531 115.362C46.3857 116.173 44.9972 116.775 43.5596 116.873L46.226 128.62C47.4179 127.514 47.9954 126.163 49.2488 125.008C50.6127 123.754 51.6571 124.602 51.1533 121.788C49.9737 122.354 48.7327 123.238 47.4179 122.501L47.4056 122.513Z" fill="#818362"/>
<path d="M44.3214 22.8239L45.0955 31.3392C44.3214 36.9547 45.5502 46.0598 43.6825 51.196C43.449 51.835 43.3016 52.5477 42.4291 52.4002C42.81 48.8368 42.3554 45.2365 42.4046 41.5748C42.4783 36.8441 42.3431 30.1842 42.81 25.6746C42.9083 24.7408 43.0681 22.701 44.3214 22.8239Z" fill="#818362"/>
<path d="M196.712 12.1458C191.736 12.3916 189.475 7.13249 190.323 2.72124C190.556 2.45091 193.075 4.52751 193.358 4.79784C195.103 6.45667 197.818 9.67602 196.712 12.1458Z" fill="#818362"/>
<path d="M237.716 86.1544C237.212 86.5599 228.611 81.7677 229.754 79.3347L230.897 79.1504L230.147 77.8234C234.288 78.5483 235.124 83.4511 237.729 86.1667L237.716 86.1544Z" fill="#818362"/>
<path d="M51.1533 262.113C52.6401 256.694 54.213 251.275 54.557 245.611C55.0731 237.206 53.7092 228.948 53.402 220.605C52.6401 199.139 55.0854 177.783 57.6412 156.55L59.1034 148.723C60.2585 157.68 57.7026 166.896 56.8302 175.841C54.2744 202.211 59.3738 229.87 53.6723 255.735C53.2054 257.837 53.0088 260.884 51.1411 262.113H51.1533Z" fill="#818362"/>
<path d="M28.0158 274.253C27.0819 273.209 34.8845 267.655 35.7938 266.672C53.0825 247.945 43.0435 205.012 47.0247 181.199C47.0984 180.757 47.1353 179.43 47.7251 179.442C47.8234 184.308 47.934 189.186 48.0937 194.052C48.745 213.687 49.3593 233.79 44.9604 253.082C44.5057 255.097 44.1248 257.136 43.363 259.066C40.6966 265.873 33.6681 270.124 28.0158 274.241V274.253Z" fill="#818362"/>
<path d="M61.008 161.994C60.8237 162.178 59.9881 162.092 60.2707 161.441C63.699 149.669 66.3285 137.541 67.7908 125.352C68.4666 119.663 69.1178 113.666 69.3513 107.953C69.5479 103.16 69.1547 98.3314 69.3513 93.5392C69.3759 93.0723 69.0687 92.1261 69.7322 92.2122C72.7795 108.112 71.1453 123.926 67.5819 139.544C66.4268 144.582 65.0138 150.247 63.4778 155.162C63.146 156.206 61.4381 161.563 61.008 161.981V161.994Z" fill="#818362"/>
<path d="M219.518 251.115L217.134 245.353C213.805 232.954 218.019 222.129 219.801 210.259C223.143 188.031 210.389 164.389 222.725 143.414L226.338 137.357C224.384 145.503 219.825 153.318 219.137 161.821C217.896 177.39 224.114 190.39 222.111 206.511C220.268 221.306 214.874 236.235 219.506 251.128L219.518 251.115Z" fill="#818362"/>
<path d="M250.237 275.764C244.45 268.22 237.47 259.778 235.332 250.292C228.759 221.232 226.51 198.93 228.623 169.01C228.722 167.572 228.562 166.097 228.623 164.647C229.582 165.127 229.692 166.896 229.766 167.855C231.081 184.086 228.808 200.404 230.933 217.116C231.83 224.169 234.141 230.079 235.345 236.591C236.389 242.244 236.094 246.974 238.073 252.823C240.874 261.081 247.043 267.691 250.213 275.752L250.237 275.764Z" fill="#818362"/>
<path d="M97.7971 58.8512C96.8755 60.2397 94.504 60.0554 93.0418 59.9939C77.8174 59.4041 66.1688 45.7771 59.4352 33.3052C58.9805 32.4574 54.9379 24.6302 55.3311 24.3353C55.7735 23.9912 56.4493 24.4827 56.8056 24.9496C58.0098 26.5225 59.386 29.8033 60.6394 31.7324C69.2653 45.0276 80.0169 59.7359 97.8094 58.8389L97.7971 58.8512Z" fill="#818362"/>
<path d="M200.558 81.227C200.694 82.21 200.448 82.0011 199.649 81.9397C197.376 81.7677 193.505 80.4775 191.257 79.7033C177.31 74.8866 164.715 64.3561 155.426 53.1498C155.832 52.7935 158.166 54.6735 158.633 55.0544C162.197 57.8928 165.502 61.0999 169.114 63.9137C178.662 71.3478 188.627 78.192 200.546 81.2147L200.558 81.227Z" fill="#818362"/>
<path d="M123.957 33.4402C123.171 54.6364 95.6959 60.0306 83.0028 45.3838C84.5757 44.8186 85.743 46.9812 86.8243 47.6324C102.098 56.8604 117.359 50.5077 123.097 34.2758C123.318 33.6614 122.901 33.2682 123.957 33.4402Z" fill="#818362"/>
<path d="M143.937 49.107C145.989 51.0361 149.11 56.7376 151.273 59.404C155.291 64.3313 159.936 68.8777 165.318 72.2814L173.255 76.2872C164.359 75.894 157.109 69.7501 151.654 63.2008C148.176 59.0231 144.121 53.8623 142.93 48.6154C142.966 48.5663 143.79 48.9841 143.937 49.1192V49.107Z" fill="#818362"/>
<path d="M137.609 22.8238C137.29 24.8267 135.999 26.4487 135.323 28.3164C134.107 31.72 133.517 35.394 132.104 38.7486C129.008 46.1211 121.254 53.2111 113.722 55.8161C113.009 55.1771 116.597 53.4446 116.941 53.1619C120.001 50.7167 124.977 46.4406 127.14 43.2704C129.991 39.1049 130.9 34.1899 132.878 29.668C133.136 29.0659 136.54 21.7425 137.609 22.8361V22.8238Z" fill="#818362"/>
<path d="M178.564 65.6708C171.56 61.3578 166.436 55.4843 162.098 48.5787C161.435 47.5342 156.888 39.9774 157.331 39.5104C157.625 39.191 158.682 40.0142 159.002 40.3091C162.184 43.2459 165.281 49.8075 168.168 53.5183C170.736 56.8114 173.931 59.2198 176.487 62.2671C176.892 62.7463 178.932 65.253 178.564 65.683V65.6708Z" fill="#818362"/>
<path d="M177.04 31.1672C177.101 33.3052 178.969 35.6522 178.908 37.7656C178.871 39.0067 176.991 43.8972 175.529 42.9142C175.307 42.7667 174.472 38.3923 174.435 37.7411C174.3 35.6153 174.435 31.7447 177.04 31.1549V31.1672Z" fill="#818362"/>
</svg>
