<svg width="27" height="26" viewBox="0 0 27 26" fill="none" xmlns="http://www.w3.org/2000/svg">
<path d="M20.7444 11.8924C21.1286 12.4971 22.1224 12.5374 22.7981 12.9539C24.2159 13.8541 25.2494 15.4126 26.9587 15.7888C27.2634 16.2053 25.7927 17.3608 25.4879 17.7504C24.1762 19.4299 22.7054 21.3378 22.8114 23.595C22.3609 23.7159 22.3211 23.4741 22.0694 23.2994C21.0226 22.5604 19.0616 20.9482 18.2269 19.9942C16.6766 18.2341 16.0936 15.9904 14.5301 14.284C15.2588 17.643 15.1396 21.0556 15.1131 24.4952C12.4101 23.7159 10.0913 25.906 7.41476 26C6.92451 22.2649 7.25576 18.8119 8.30252 15.1976C5.8645 16.5547 5.66575 20.3839 2.98922 17.1458C2.27372 16.2725 0.259701 13.2629 0.1007 12.2821C-0.310054 9.78303 0.537954 9.51432 2.60497 8.66786C3.02897 8.4932 4.11548 8.35884 4.16848 8.29166C4.26124 8.19761 3.43973 6.86747 4.44674 5.72543C6.24875 3.66976 9.17703 8.17074 10.2768 8.23792C10.449 8.23792 13.4701 7.17649 13.5893 7.04214C13.7748 6.82716 13.4171 3.03828 14.9011 1.77532C16.3851 0.512355 17.1801 2.58146 17.3258 2.58146C17.5511 2.58146 19.0484 -0.0788188 20.8769 0.00179582C21.6586 0.0421031 22.1754 1.15727 22.5464 1.78875C23.2354 2.93079 26.0709 8.65443 26.0709 9.64867C26.0709 11.5566 22.1886 12.0671 20.7179 11.8924H20.7444ZM21.3274 0.78107L18.6906 2.4471C17.1138 3.36074 16.8621 5.69856 15.7226 6.86747C15.0998 7.49895 13.8543 7.57957 13.6423 8.88284C16.0406 8.43946 17.8956 5.64482 20.4529 6.47783C19.8036 5.57764 20.6119 4.91929 20.6914 4.16688C20.7576 3.48166 20.1746 2.62177 20.5986 1.99029C21.8839 3.07859 20.8239 5.06708 21.0226 5.98071C21.0889 6.24943 21.7779 6.34348 22.0031 6.85404C22.3079 7.51239 22.0694 8.39915 22.3609 8.89627C22.5861 9.28591 23.4076 9.32622 23.6991 9.64867C24.0569 10.0383 23.9112 11.5566 25.0904 10.3205C26.2697 9.08437 23.3546 5.17457 22.7451 4.00565C22.2814 3.11889 22.0959 1.76188 21.3141 0.794506L21.3274 0.78107ZM23.6991 10.9923C22.0694 9.82334 21.8044 8.92314 21.1816 7.09588C20.8371 10.7773 15.6298 8.56038 13.3376 9.94426C14.1723 10.1189 14.9673 10.1458 15.7888 10.4548C16.6103 10.7638 17.6041 11.8253 18.2269 11.8924C19.5254 12.0268 22.1091 10.5354 23.6859 10.9923H23.6991ZM10.3828 9.48744C7.50751 9.07094 4.84424 8.3051 2.00872 9.55462C-1.71457 11.1938 3.32048 14.4721 3.28073 16.998C3.79748 17.0652 3.55898 16.3128 3.57223 15.95C3.59873 15.2783 3.62523 14.5796 3.50598 13.9212C3.25423 12.5374 0.935457 10.7907 2.39297 9.79647L2.98922 10.9923C3.54573 8.02295 6.209 9.60837 8.15677 9.79647C8.59402 9.83677 10.2105 10.0114 10.3828 9.48744ZM10.979 10.3876C8.62052 10.6698 5.9175 12.2821 3.58548 11.5834C3.89023 12.5508 4.42024 13.142 4.18173 14.284C5.30799 13.0479 6.72576 13.1017 8.13027 12.4433L10.979 10.3876ZM22.2151 22.3992C22.3344 20.0077 24.5737 17.9923 26.0577 16.2456C24.2822 15.2783 21.6586 12.4702 19.6579 12.2821C19.0616 12.2283 18.6509 12.6314 17.7631 12.3627C16.4513 11.9596 15.3383 9.98457 13.3376 10.6967C14.2253 11.4491 15.1131 12.7523 16.2923 12.7926C16.2658 14.5259 14.3181 12.3896 14.2253 12.4836L16.1466 15.1842C16.4778 13.1823 16.3718 12.6986 18.5184 12.7658C19.3134 12.7926 21.1419 13.3435 19.6976 13.6794C19.0219 13.8272 18.2136 13.7466 17.6041 14.2706C16.0406 15.6276 20.2939 18.8656 20.1084 20.451L22.2019 22.3992H22.2151ZM8.01102 19.5374C7.85202 21.3244 8.13027 23.286 8.01102 25.0864C10.2503 24.8177 12.2113 23.2994 14.5301 23.5816C14.4108 22.0633 14.6758 20.3839 14.5433 18.8925C14.4903 18.2073 13.1388 16.4337 12.9003 15.4664L11.562 13.3704C12.0523 16.3397 13.2978 19.3627 12.7413 22.3723L12.4498 20.2764C11.9065 20.3973 12.1318 21.2303 11.7078 21.7677C10.9128 22.7485 9.95878 22.2917 9.62753 21.19C9.46853 20.6794 9.17703 17.7639 9.17703 17.119C9.17703 16.0307 9.77328 15.0499 9.78653 13.9616C9.34928 14.0422 9.20353 14.499 9.05778 14.8618C8.62052 15.9097 8.11702 18.3819 8.02427 19.5105L8.01102 19.5374ZM10.0913 16.5412V21.0422C10.0913 21.4587 10.8333 21.6737 11.2838 21.0422C12.9533 18.7984 11.2573 16.4337 10.979 13.975L10.0913 16.5278V16.5412Z" fill="#D7D7CD"/>
</svg>
