<svg width="19" height="18" viewBox="0 0 19 18" fill="none" xmlns="http://www.w3.org/2000/svg">
<path d="M8.33815 8.00909C8.97808 7.36808 9.39931 7.79001 9.58561 7.61961C9.69092 7.52224 9.53701 6.9218 10.0635 6.91369C10.5496 6.91369 10.6468 7.6115 10.8655 7.73321C11.0356 7.83058 11.6026 7.4411 11.878 8.00909C12.0157 8.29308 11.635 9.05581 11.7808 9.4534C12.0886 9.37226 11.959 8.83673 12.1615 8.47971C12.8744 7.19768 13.5548 8.79616 14.1299 8.65822C15.9606 8.22006 14.7537 6.3457 15.5799 5.11236C14.0489 4.37397 13.976 3.44896 11.9995 3.96015C10.5172 4.34152 11.4325 4.62551 11.3434 5.12047C11.3029 5.32332 10.8574 6.1185 10.7197 6.49175C10.6225 6.7514 10.8898 7.01917 10.339 6.9218C10.1607 6.28079 10.8493 5.5424 10.8331 5.04744C10.8169 4.49568 10.0554 4.42266 9.87723 4.02506C9.74762 3.73296 10.0554 3.37594 9.95823 3.05949C9.87723 2.78361 9.43981 2.75115 9.3264 2.57264C9.15629 2.29676 9.81243 1.68009 8.59737 1.49346C6.83148 1.2257 7.69012 2.5483 6.70997 3.2948C6.57226 2.52396 6.84768 1.98842 7.06639 1.30684C6.25635 1.30684 5.53541 0.219549 4.76587 0.527885C3.99634 0.836221 3.63992 2.38602 3.2025 3.14874C3.06479 3.39216 2.71647 3.52199 2.71647 3.57879C2.70837 4.00072 3.2187 4.74722 3.08099 5.28275L2.44916 4.19546L1.99554 2.38602C2.02794 2.96212 1.2584 3.59502 1.18549 3.99261C1.11259 4.3902 1.42041 4.82025 1.15309 5.42881C1.03159 5.70468 0.634667 5.72091 0.569864 5.94811C0.424057 6.43495 1.04779 6.99483 1.09639 7.39242C1.13689 7.76567 0.877679 8.12269 0.942483 8.43102C0.999185 8.69879 1.79303 9.41283 1.97123 9.76174C2.21425 10.2486 2.46536 11.3683 2.53016 11.9282C2.57066 12.2933 2.29525 12.3015 2.18184 12.1879C2.10894 12.1067 1.84973 10.6056 1.61482 10.1269C1.2746 9.44529 0.29445 8.8205 0.399756 8.14703C0.432157 7.95229 0.658969 7.74944 0.667069 7.56281C0.675169 7.13277 -0.159172 6.44307 0.0271369 5.78583C0.140543 5.38823 0.68327 5.38012 0.731872 5.16915C0.837177 4.73099 0.569864 4.18735 0.658969 3.83844C0.780475 3.35159 2.13324 0.966047 2.73267 1.75312C3.12149 2.2643 2.40866 2.83229 2.89468 3.11629C3.1944 2.20751 3.50221 0.43863 4.51476 0.114066C6.05384 -0.372781 6.06194 0.844335 7.05019 1.03907C7.40661 1.1121 7.69822 0.901134 8.03034 0.941705C8.14374 0.957933 9.52891 1.3393 9.59372 1.38798C9.90153 1.60706 9.66662 2.16693 9.78813 2.36979C9.87723 2.50773 10.4362 2.4347 10.501 2.69435C10.6387 3.25422 9.89343 4.34963 10.9141 4.17112C11.1004 4.13866 11.4001 3.70861 11.7484 3.57067C12.0967 3.43274 13.085 3.26234 13.4495 3.30291C14.4702 3.41651 14.9562 4.61739 16.0173 4.73911C16.2522 5.03121 15.831 5.56674 15.75 5.94811C15.4746 7.30316 15.9201 8.75559 14.1056 8.92598C14.7213 9.64814 15.3693 10.2486 14.8266 11.2791C16.2603 11.2223 18.2125 12.0824 17.8642 9.78608C17.8318 9.59134 17.1676 7.74133 17.0947 7.65207C16.8355 7.33562 16.2765 7.50602 15.9201 7.47356C15.9201 6.76763 16.7869 6.5161 17.2972 6.91369C17.686 7.22202 18.7148 10.6137 18.6419 11.1817C18.5447 11.9363 17.6212 12.1229 17.0056 12.0093C17.2081 12.4556 17.0299 13.8431 16.8274 14.2326C16.6735 14.5166 16.1631 14.4598 16.0092 14.7276C15.831 15.0197 15.9687 15.5958 15.8472 16.0096C15.5151 17.1131 12.7367 18.0544 11.6836 17.9976C10.8412 17.957 10.2012 17.3647 9.46411 17.1212C9.12389 17.0076 8.62977 17.0725 8.18425 16.959C7.63342 16.8129 6.62897 16.1232 7.67392 16.1962C9.15629 16.2936 11.5702 17.389 11.7565 14.7925C11.8537 13.4537 10.3552 12.5773 10.501 12.0986C10.5739 11.8633 10.987 11.8633 11.0437 11.8146C11.1976 11.6686 10.2012 11.417 10.3147 10.9139C10.0392 10.8571 10.1283 11.2304 9.95823 11.3683C9.63422 11.6361 9.53701 10.9626 9.79623 10.4839C10.0878 9.94836 10.6873 10.0052 10.6711 9.46152C9.72332 9.77797 8.36245 8.98278 8.32195 8.00909C8.15184 8.17949 7.60102 8.89353 7.60102 9.00713C7.60102 9.4534 8.83228 8.83673 8.85658 9.37226C8.88088 9.90779 8.13564 9.80231 8.13564 9.91591L8.85658 10.3703C7.60102 10.849 7.71442 9.59134 7.3013 9.49397C7.07449 9.43717 6.49126 9.77797 6.14294 9.64003C6.06194 9.09638 6.61277 9.3398 7.05829 9.02335C8.24095 8.17137 8.24905 5.79394 7.3256 4.73911C6.75047 4.08186 5.72982 3.98449 5.3248 3.2948C4.43376 3.99261 2.95138 6.26456 3.2754 7.33562C3.38881 7.70075 4.23935 8.17137 4.10974 8.79616C4.06114 9.0477 3.70472 9.17752 3.58321 9.36415C3.45361 9.567 3.63992 9.79419 3.59942 9.81854C3.45361 9.90779 3.07289 9.67248 3.06479 9.55077C3.03239 9.20998 3.79383 9.00713 3.79383 8.65011C3.79383 8.10646 2.48156 7.77378 2.73267 6.5161C2.87038 5.83451 4.23125 3.32725 4.87118 3.03514C5.74602 2.63755 5.66502 3.15686 5.90803 3.2948C7.10689 3.96827 8.28955 4.56871 8.47586 6.12662C8.55686 6.85689 8.28145 7.3843 8.30575 8.00909H8.33815ZM12.1453 14.3543C14.535 12.8532 15.993 10.3622 12.9554 8.55274C12.4046 8.43102 12.4127 10.3703 12.2344 10.9058C12.1129 11.2791 11.8861 11.628 11.6026 11.9039C11.5702 11.9769 12.3398 12.0499 11.9671 12.3583C11.9023 12.4151 11.0356 12.0418 11.068 12.4475C11.0842 12.6422 12.3317 13.7701 12.1534 14.3543H12.1453ZM16.4467 13.9486C16.7221 13.5754 16.8841 11.8795 16.1793 11.6686C14.7537 11.2466 15.0858 12.1148 14.4135 12.91C13.895 13.5267 12.8501 13.9243 12.4208 14.5409C11.8132 15.4092 11.797 16.9508 10.3309 16.9833C11.4649 17.8921 13.3685 17.2835 14.535 16.6668C16.0578 15.8554 15.1668 15.1982 15.669 14.3543C15.8229 14.0866 16.3333 14.1028 16.4467 13.9567V13.9486Z" fill="#D7D7CD"/>
<path d="M5.98902 14.7114C5.6245 14.2814 6.42644 12.2285 6.89626 12.7153C7.07447 12.902 6.42644 13.3645 6.36163 13.7134C6.24013 14.3463 6.48314 14.8169 6.52364 15.3605C6.60465 16.4397 5.44629 15.0116 5.20328 14.6871C4.46614 13.7377 3.40499 11.9932 4.64435 11.0763C4.73345 11.7254 4.42564 12.2042 4.63625 12.8939C4.77395 13.3482 5.5921 14.395 5.99712 14.6952L5.98902 14.7114Z" fill="#D7D7CD"/>
</svg>
