<svg width="17" height="15" viewBox="0 0 17 15" fill="none" xmlns="http://www.w3.org/2000/svg">
<path d="M5.00994 0.826744C5.11115 0.8312 5.83676 0.118428 6.77835 0.0279496C9.23349 -0.212851 8.89514 1.12829 9.17708 2.938C10.1208 2.28321 10.7208 1.21601 11.7818 0.729104L11.5201 0.436113C12.0871 0.0256797 12.4007 0.740228 12.5953 0.734136C13.2958 0.731265 13.7958 0.0408088 14.4142 1.169C14.7273 1.73106 14.3555 2.32601 14.1631 1.76779C14.0217 1.36428 14.0054 1.12461 13.4835 1.01514C11.7037 0.655299 9.94623 2.46024 9.2775 3.94516L10.1009 3.40089C10.7862 3.48237 10.3064 4.40094 10.4038 4.41696C11.4751 3.47605 11.1773 1.57915 13.0888 1.73661C14.7199 1.86854 14.5641 3.06672 15.3184 4.07628C16.0727 5.08584 16.9352 4.61659 16.2444 6.49489C15.4376 8.66274 12.5946 10.5855 10.2525 9.62188C10.6075 11.1548 7.14532 14.2217 5.88841 14.2953C4.84163 14.3548 5.23515 13.2331 4.98042 12.6692C4.77665 12.2219 4.239 12.0443 4.0939 11.6904C3.87423 11.1369 4.45244 9.32691 4.33557 9.29245C3.14278 9.96266 0.976216 9.12694 0.354101 8.06749C-0.295421 6.95553 0.0505241 5.55315 0.576395 4.4387C0.719431 4.12541 2.12457 1.64526 2.25265 1.53069C2.59805 1.20725 3.7636 0.541705 4.20314 0.455507C4.67767 0.360589 4.92819 0.821678 5.00994 0.826744ZM7.5289 4.85771C6.39115 3.18916 4.91909 -0.863143 2.50673 1.88491C2.19646 2.23775 0.459858 5.76908 0.422357 6.22775C0.305879 7.57719 1.09903 8.56647 2.33818 9.04617C3.46041 9.47234 4.34678 9.14341 5.11855 8.25382C5.12412 8.79502 4.68552 9.18618 4.55482 9.71258C4.0357 11.7494 5.64795 12.0535 5.66156 13.9364C6.4333 14.2973 9.8791 10.9527 10.0822 9.92077C10.266 8.96572 9.42583 9.11783 9.17449 8.3899C9.06059 8.05797 9.33942 7.60699 9.03872 7.2771C8.76992 7.19783 7.86045 8.86566 7.34873 8.26406C6.96983 7.82224 8.08158 7.37569 7.78455 6.97706C7.20615 6.2098 6.75723 7.03591 6.69488 7.01117C6.25849 6.85708 6.73641 6.59813 6.81757 6.41259C5.53296 6.33843 5.61035 4.93302 6.15259 4.07731C6.34688 3.97591 6.68953 4.02618 6.85338 4.15068C7.16934 4.37716 7.2102 5.00493 7.54444 4.8496L7.5289 4.85771ZM8.57411 3.03313C8.85447 3.07773 8.59069 0.848074 8.31365 0.620375C7.83373 0.23128 5.98571 0.460698 5.43808 0.832401L7.27561 3.50078C7.57472 3.31604 7.2182 2.55709 7.7043 2.4275C7.91431 2.37517 8.46056 2.81556 8.57802 3.04063L8.57411 3.03313ZM9.28284 6.93015C9.25976 7.01856 9.68094 8.5456 9.77075 8.64191C9.91135 8.79764 10.9912 9.37001 11.2405 9.43083C12.9271 9.85839 15.198 7.95731 15.7929 6.50139C16.5346 4.68251 15.2319 5.06641 14.6021 4.03008C14.1327 3.26322 14.1863 1.73656 12.5139 2.11298C11.6466 2.30788 11.3484 4.04807 10.8827 4.50108C10.646 4.72962 9.84071 4.83489 10.0253 5.37811C10.1392 5.71004 10.9598 5.50135 10.5417 6.23499C10.1236 6.96864 9.28261 6.85391 9.27115 6.9267L9.28284 6.93015Z" fill="#D7D7CD"/>
</svg>
