<svg width="19" height="18" viewBox="0 0 19 18" fill="none" xmlns="http://www.w3.org/2000/svg">
<path d="M15.0488 9.50331C15.7786 9.96381 16.3192 11.1185 16.0881 11.9879C15.913 12.6381 13.3461 16.5708 12.7648 16.4694C12.1834 16.3679 11.9476 15.2201 10.9743 15.8615C10.3182 16.2917 10.1843 17.4561 9.0488 17.8259C7.91334 18.1956 6.08941 16.3622 6.99979 15.2144C7.12388 16.0531 7.31151 16.7087 8.06349 17.2049C9.3265 18.0366 9.8807 16.056 10.4779 15.5402C11.0247 15.062 12.1762 15.6134 11.6855 14.3632C11.5517 14.0327 8.64296 10.2746 10.7682 10.9902C11.2485 11.1522 12.8855 13.1645 12.897 13.6069C12.8994 13.8536 11.9193 16.0553 12.8405 16.0393C13.0871 16.0331 15.6321 12.0937 15.7313 11.8445C15.8658 11.5 15.4876 10.6315 15.2747 10.3684C14.3574 9.28129 13.8507 10.1576 13.0215 9.93185C12.4178 9.76568 11.6552 8.91414 11.0683 8.99427C10.3003 9.10075 9.71157 10.5016 9.13022 10.4002C8.72322 10.3234 8.64612 9.84642 8.39772 9.66402C8.2224 9.53783 7.83157 9.63478 7.69921 9.44945C7.44196 9.10037 7.94993 8.35461 7.81163 8.30731C5.2417 7.36353 2.95206 9.93943 2.33653 12.3352C2.58687 12.7207 2.68564 12.428 2.97493 12.3336C4.44996 11.8174 4.21839 11.1193 5.05985 10.3506C5.18211 10.2387 7.12242 9.0649 7.25297 9.0616C7.7097 9.0283 7.53882 9.36642 7.34541 9.62529C6.27782 11.0238 4.57183 12.4239 6.72704 14.0022C7.82289 14.8018 8.03382 14.0998 8.63587 13.3299C8.85801 13.0413 8.94793 12.5818 8.99851 13.3207C8.40994 16.2601 4.85592 14.064 5.1276 12.1268C5.20232 11.5952 5.8635 10.9399 5.6481 10.4156C2.74706 15.0606 -0.0902374 12.7085 4.00792 8.83152C3.20138 8.6995 0.22487 7.72245 0.0155504 7.07463C-0.0890408 6.75798 0.360873 5.25174 0.561046 4.9419C1.56909 3.38528 2.09396 4.40973 3.08037 4.38482C3.47203 4.37493 3.87459 3.98741 4.37553 4.02556C6.1541 4.14754 5.72948 6.02324 7.07744 6.63504C7.9226 4.73421 5.53117 4.25036 4.69269 3.05241C3.85421 1.85446 7.05171 0.9029 7.67964 2.0844C7.83477 1.61605 7.10671 1.34417 6.97751 0.730613C6.90194 0.413227 6.85648 0.211188 7.17367 -1.03529e-05C9.52407 0.746123 13.936 -0.656996 12.8003 3.47898L11.4358 5.6977C12.3221 5.0585 13.5445 3.92461 14.579 3.61547C15.7147 3.27475 17.1462 4.26905 18.4591 3.49571C18.4004 4.18658 17.88 4.3884 17.6115 5.13536C16.9968 6.85621 17.8458 9.15691 15.0414 9.49623L15.0488 9.50331ZM10.3405 8.75141C10.486 8.79128 12.1714 8.27702 12.5346 8.32591C12.9268 8.37405 13.0135 9.09028 14.1602 9.13389C17.4694 9.2535 16.5356 6.4252 17.4305 4.41426C16.7499 4.56207 15.459 3.84723 15.039 3.93041C14.6191 4.01358 10.4796 6.59992 10.2867 6.91682C10.1937 7.05705 10.4207 7.27627 10.3645 7.46637C10.2167 7.94179 9.45344 8.5416 10.355 8.75104L10.3405 8.75141ZM8.70407 7.5591L11.8361 4.31608C12.6551 3.46813 12.9469 1.36358 11.6513 0.917355C10.9672 0.687906 8.55467 1.03185 7.6713 0.45185C7.48026 0.957387 8.11577 1.41302 8.26623 1.97524C8.31888 2.16985 8.32306 3.3671 8.02548 3.35284C7.10465 1.88847 6.59445 1.64012 5.02148 2.53613C4.75568 2.81135 7.01824 4.23457 7.29 4.58328C7.96572 5.45154 7.23204 6.87061 8.71126 7.55166L8.70407 7.5591ZM7.56376 7.421C7.25346 6.83378 6.36887 6.88515 6.03205 6.55985C5.66593 6.20626 5.66438 5.2847 5.17449 4.88344C4.15075 4.03849 3.66642 4.97958 3.17364 5.03557C2.81127 5.07375 2.09976 4.25719 1.45778 4.6435C0.887914 4.98444 0.58209 6.38545 0.537348 7.01791C1.68567 7.23564 2.44056 8.03658 3.61776 8.23907C5.2673 8.52396 6.03332 7.45239 7.57841 7.43514L7.56376 7.421Z" fill="#D7D7CD"/>
</svg>
