<svg width="1040" height="1068" viewBox="0 0 1040 1068" fill="none" xmlns="http://www.w3.org/2000/svg">
<path d="M501.606 143.095C501.883 139.867 501.762 136.763 501.779 134.46C501.779 133.311 501.669 132.357 501.65 131.694C501.614 131.036 501.588 130.652 501.588 130.652C501.554 130.662 501.505 130.809 501.469 130.878C501.535 131.992 501.644 133.063 501.688 134.111C501.698 135.169 501.721 136.209 501.718 137.228C501.733 138.241 501.739 139.228 501.746 140.215C501.692 141.192 501.651 142.15 501.606 143.095Z" fill="#BFA4A1"/>
<path d="M501.743 155.37C501.858 154.709 501.99 154.042 502.122 153.375L502.364 151.365C502.277 151.814 502.225 151.889 502.153 152.144C502.09 153.152 501.95 154.156 501.725 155.375L501.743 155.37Z" fill="#BFA4A1"/>
<path d="M501.469 130.878C501.049 131.898 500.884 137.054 500 130.919C499.882 127.524 499.187 122.536 498.242 117.597C497.228 112.681 495.721 107.89 494.562 104.75C491.915 98.6305 494.052 104.939 493.792 105.021C492.663 101.915 491.262 98.9089 490.122 96.7367C488.983 94.5645 488.054 93.2424 488.078 93.3802C485.095 89.9991 489.828 95.3169 493.829 107.554C496.561 114.127 498.876 123.841 499.535 133.61C500.199 143.392 499.126 153.154 497.919 159.467C496.673 165.778 495.995 168.697 497.221 164.981C497.498 164.05 497.909 162.699 498.446 160.901C498.845 159.089 499.327 156.814 499.935 154.034C500.845 148.468 501.946 140.792 501.465 130.865L501.469 130.878Z" fill="#BFA4A1"/>
<path d="M491.321 186.222C492.087 184.731 492.677 183.222 493.28 181.694L495.118 177.146C496.233 174.104 497.188 171.041 498.187 167.992C499.831 161.861 501.312 155.695 501.949 149.561C501.989 148.603 502.044 147.568 502.085 146.61C502.052 145.66 502.023 144.782 502.008 144.132C501.945 142.843 501.798 142.497 501.545 144.351C500.143 163.276 495.865 174.991 491.304 186.228L491.321 186.222Z" fill="#BFA4A1"/>
<path d="M780.385 809.228C780.385 809.228 780.592 809.221 781.636 809.46C781.886 809.527 782.195 809.604 782.586 809.699C782.933 809.837 783.341 809.985 783.835 810.165C784.311 810.349 784.869 810.552 785.491 810.778C786.091 811.055 786.716 811.411 787.457 811.774C786.892 811.486 786.33 811.212 785.769 810.938C785.195 810.682 784.585 810.496 784.006 810.285C783.409 810.08 782.86 809.846 782.254 809.673L780.403 809.223C780.403 809.223 780.406 809.294 780.049 809.247C779.873 809.229 779.606 809.168 779.159 809.076C778.703 809.015 778.049 808.93 777.154 808.805C778.906 808.995 780.547 809.439 782.214 809.845C783.793 810.396 785.447 810.879 786.873 811.667C788.412 812.332 789.685 813.298 791.046 814.179C792.228 815.218 793.509 816.211 794.469 817.451C795.603 818.578 796.342 819.959 797.262 821.255C797.647 821.934 797.97 822.661 798.342 823.359C798.713 824.056 799.072 824.773 799.292 825.532L800.116 827.789C800.392 828.546 800.529 829.346 800.736 830.125C800.926 830.908 801.154 831.695 801.292 832.495L801.661 834.938C802.58 841.485 802.327 848.414 801.501 855.393C801.135 858.882 800.471 862.392 799.847 865.904L798.707 871.164C798.348 872.92 797.911 874.672 797.435 876.422C797.018 878.24 796.615 880.039 796.23 881.774C795.788 883.513 795.348 885.193 794.938 886.791C797.579 878.15 799.773 869.476 801.165 860.85C801.88 856.539 802.371 852.24 802.612 847.99C802.756 845.85 802.688 843.763 802.725 841.643C802.549 839.574 802.568 837.46 802.233 835.427C801.792 831.305 800.685 827.363 799.084 823.663C797.466 819.969 795.012 816.64 791.702 814.031C788.409 811.416 784.224 809.591 779.599 808.661C774.969 807.718 769.955 807.608 764.949 808.004C754.889 808.827 744.834 811.481 735.238 814.688C725.634 817.927 716.376 821.785 707.507 825.912C689.726 834.152 673.361 843.328 658.247 852.431C679.769 839.713 698.611 829.772 718.011 821.547C727.716 817.476 737.609 813.826 748.073 811.204C753.304 809.893 758.675 808.843 764.165 808.353C769.621 807.873 775.22 807.973 780.416 809.204L780.385 809.228Z" fill="#BFA4A1"/>
<path d="M794.012 892.245C793.21 894.65 792.474 896.903 791.686 899.289C792.78 896.123 793.372 894.38 793.697 893.42C794.005 892.465 794.042 892.279 794.012 892.245Z" fill="#BFA4A1"/>
<path d="M506.763 593.172C485.046 608.293 464.53 622.396 444.344 635.799C434.327 642.498 424.078 649.067 413.595 655.069C403.119 661.098 392.424 666.731 381.458 671.984C393.134 666.45 404.574 660.466 415.674 654.066C426.799 647.687 437.457 640.728 447.804 633.867C468.601 620.112 488.835 606.199 508.312 592.598C547.266 565.395 583.369 539.583 614.95 518.422C578.554 542.639 543.027 568.051 506.759 593.159L506.763 593.172Z" fill="#BFA4A1"/>
<path d="M149.852 701.582C156.068 706.36 163.491 709.538 171.054 711.711C178.651 713.873 186.441 715.073 194.145 715.762C201.862 716.432 209.53 716.58 217.071 716.39C224.614 716.141 232.034 715.624 239.35 714.836C268.553 711.555 295.622 704.931 321.262 696.604C295.126 704.985 268.294 711.214 241.285 714.343C234.539 715.069 227.777 715.684 221.031 715.929C214.29 716.247 207.56 716.24 200.886 715.925C194.206 715.656 187.584 714.903 181.1 713.743C174.629 712.564 168.266 710.944 162.356 708.469C157.935 706.617 153.397 704.335 149.852 701.582Z" fill="#BFA4A1"/>
<path d="M220.644 715.543C251.67 714.19 280.288 708.082 306.825 700.491C333.381 692.778 358.035 683.191 381.479 671.992C355.057 684.477 327.622 694.59 300.423 702.069C286.806 705.785 273.262 708.823 259.902 711.12C246.551 713.444 233.403 714.962 220.661 715.537L220.644 715.543Z" fill="#BFA4A1"/>
<path d="M605.991 747.504C572.425 768.213 553.864 782.429 543.572 790.552C539.128 794.248 533.288 799.183 525.995 806.145C527.566 804.676 529.311 803.153 530.933 801.727C545.403 789.002 561.634 777.105 578.549 765.749C595.502 754.396 613.251 743.577 631.482 733.145C646.342 724.559 660.758 716.68 672.949 710.184C650.114 721.991 627.573 734.433 605.974 747.51L605.991 747.504Z" fill="#BFA4A1"/>
<path d="M543.589 790.547C548.333 786.597 551.38 784.199 553.001 782.889C554.64 781.573 554.871 781.341 554.167 781.824C552.765 782.803 547.63 786.658 542.765 790.646C537.853 794.605 533.25 798.7 532.235 799.703C531.726 800.197 532.099 799.934 533.816 798.507C535.534 797.08 538.582 794.507 543.607 790.541L543.589 790.547Z" fill="#BFA4A1"/>
<path d="M759.413 654.584C761.058 653.47 762.751 652.327 764.413 651.207C769.197 647.928 774.047 644.498 778.716 641.153C772.236 645.809 765.985 650.161 759.434 654.591L759.413 654.584Z" fill="#BFA4A1"/>
<path d="M682.36 471.302C697.851 462.794 713.871 454.875 730.527 448.197C747.161 441.568 764.557 436.213 782.218 433.755C764.022 436.265 746.215 441.822 729.433 448.584C712.624 455.384 696.682 463.365 681.554 471.701C651.302 488.445 624.112 506.465 599.795 522.985C607.056 518.098 614.503 513.254 621.867 508.451C636.485 498.676 658.681 484.233 682.356 471.289L682.36 471.302Z" fill="#BFA4A1"/>
<path d="M525.133 798.33C538.633 786.449 553.328 775.529 568.435 765.193C583.563 754.864 599.142 745.121 614.931 735.807C630.72 726.492 646.733 717.586 662.845 709.057C678.962 700.541 695.2 692.292 711.501 684.605C730.054 673.985 747.574 662.744 764.4 651.227C783.383 638.289 801.597 624.721 818.571 610.351C835.484 595.971 851.274 580.795 864.275 564.489C870.797 556.344 876.482 547.895 881.071 539.224C885.561 530.54 888.925 521.599 890.221 512.727C890.881 508.302 891.124 503.877 890.701 499.574C890.609 497.408 890.124 495.321 889.798 493.198C889.209 491.143 888.814 489.043 888 487.059C886.653 483.018 884.553 479.243 882.254 475.617C880.98 473.865 879.82 472.049 878.352 470.402L876.234 467.898L873.908 465.517C867.609 459.267 860.221 453.723 852.068 449.132L848.989 447.439L845.784 445.888C843.693 444.8 841.397 443.966 839.202 443.028C834.662 441.344 830.03 439.79 825.113 438.777C822.711 438.151 820.177 437.828 817.714 437.367C815.171 437.076 812.685 436.665 810.097 436.534C804.992 436.075 799.762 436.12 794.529 436.341C789.287 436.593 784.033 437.228 778.793 438.033C773.566 438.935 768.338 439.954 763.196 441.31C752.879 443.915 742.803 447.346 732.992 451.261C723.195 455.157 713.66 459.523 704.377 464.145C685.801 473.42 668.187 483.701 651.195 494.267C621.28 512.868 587.1 536.519 550.436 562.304C513.743 588.054 474.498 615.902 433.73 642.352C392.504 668.917 345.761 689.001 300.65 701.46C278.066 707.662 255.843 711.99 234.791 714.06C224.263 715.088 214.035 715.557 204.249 715.319C194.467 715.095 185.111 714.169 176.502 712.296C183.859 713.996 191.346 714.898 198.725 715.399C206.108 715.912 213.436 715.89 220.626 715.607C209.987 716.103 199.671 715.93 189.825 714.897C180.018 713.807 170.669 711.818 162.321 708.539C155.716 705.847 149.597 702.1 145.089 697.075C140.539 692.092 137.75 685.887 137.102 679.415C136.411 672.928 137.673 666.307 139.939 660.039C142.219 653.751 145.477 647.738 149.164 641.939C156.766 630.459 166.055 619.872 176.083 609.883C186.11 599.893 196.916 590.503 208.066 581.484C230.409 563.461 254.16 546.712 278.585 530.958C290.804 523.1 303.023 515.243 315.241 507.386L324.41 501.492C327.511 499.571 330.651 497.71 333.778 495.811L352.541 484.47C365.071 476.936 377.465 469.213 390.373 462.099C403.188 454.868 415.927 447.516 428.841 440.357C441.898 433.414 454.99 426.46 468.078 419.493L472.997 416.884L477.991 414.397L487.999 409.416C494.67 406.096 501.359 402.771 508.034 399.464C561.797 373.362 617.479 349.317 675.712 329.692C680.027 328.247 684.167 326.727 688.291 325.459C692.407 324.164 696.419 322.902 700.358 321.649C708.214 319.076 715.911 316.902 723.587 314.662C727.404 313.505 731.289 312.501 735.203 311.474C739.122 310.459 743.029 309.347 747.111 308.426C751.158 307.459 755.275 306.469 759.615 305.584C760.681 305.35 761.77 305.124 762.957 304.911L763.423 304.823L764.041 304.672L765.669 304.291C767.833 303.799 770.032 303.297 772.251 302.802C790.282 298.861 808.209 295.375 826.394 293.014C830.946 292.441 835.518 291.933 840.141 291.584C844.763 291.236 849.427 291.019 854.246 291.176C856.641 291.237 859.116 291.433 861.667 291.809L863.598 292.147L865.592 292.625C866.253 292.795 866.961 293.052 867.64 293.275L868.15 293.449L868.768 293.72L869.963 294.319C873.111 295.99 875.416 298.726 875.583 301.975C875.721 303.56 875.409 305.287 874.801 306.86L874.297 308.037C874.116 308.428 873.926 308.851 873.76 309.107L872.663 310.878C872.597 311.029 872.925 310.562 873.604 309.52C872.111 312.084 870.333 313.981 868.584 315.854C866.811 317.648 864.975 319.302 863.122 320.845C859.409 323.962 855.579 326.708 851.728 329.388C843.992 334.701 836.071 339.548 828.075 344.216C820.058 348.875 812.004 353.358 803.835 357.716L791.42 364.166C787.286 366.31 783.013 368.25 778.811 370.299C745.037 386.42 709.515 399.338 673.308 409.84C637.051 420.241 600.055 428.111 562.674 433.79C525.28 439.429 487.525 443.015 449.481 443.987C445.007 444.085 440.561 444.146 436.076 444.146L432.685 444.121L430.699 444.092C429.399 444.006 429.172 443.947 428.526 443.888C426.305 443.656 424.128 443.381 421.951 443.106C413.291 441.976 404.763 440.601 396.354 438.941C379.536 435.621 363.048 431.354 347.541 425.193C339.816 422.082 332.324 418.505 325.445 414.095C322.027 411.869 318.754 409.437 315.725 406.754C312.739 404.029 310.01 401.033 307.733 397.721C303.066 391.161 300.748 382.946 301.478 374.572C301.873 370.39 303.035 366.229 304.621 362.211C306.268 358.202 308.422 354.354 310.857 350.68C312.736 347.951 314.446 345.595 316.144 343.621C316.973 342.633 317.738 341.68 318.497 340.83C319.277 339.989 320.001 339.208 320.694 338.452C322.046 336.951 323.323 335.691 324.507 334.562C325.691 333.434 326.711 332.386 327.785 331.452C329.921 329.602 331.75 327.863 334.058 326.017C335.188 325.08 336.41 324.07 337.78 322.927C339.162 321.823 340.718 320.607 342.482 319.208C349.595 313.728 356.687 308.661 363.851 304.008C367.38 301.633 371.006 299.445 374.52 297.205C377.904 295.035 381.276 292.884 384.612 290.744C391.392 286.561 397.595 281.992 404.011 277.618C407.189 275.397 410.171 273.034 413.25 270.741C416.326 268.436 419.423 266.138 422.315 263.673C425.259 261.249 428.215 258.806 431.207 256.353C434.035 253.805 436.894 251.234 439.783 248.638L441.942 246.679L444.002 244.649C445.378 243.286 446.755 241.922 448.149 240.553C449.517 239.163 450.996 237.825 452.292 236.385C453.604 234.939 454.939 233.501 456.264 232.037C466.884 220.364 476.747 207.314 484.727 192.384C484.727 192.384 484.972 192.438 485.096 192.471C489.778 183.247 492.917 174.799 495.087 167.863C493.286 175.25 489.615 185.509 484.54 195.235C483.208 197.646 482.061 200.101 480.636 202.397C479.232 204.7 477.85 206.952 476.546 209.093C475.222 211.226 473.766 213.182 472.518 215.014C471.231 216.844 470.148 218.537 469.029 219.994C464.575 225.773 462.628 228.465 465.53 225.182C466.927 223.521 469.825 220.471 473.557 215.298C474.523 214.02 475.564 212.616 476.701 211.095C477.817 209.566 478.874 207.852 480.087 206.03C480.692 205.113 481.31 204.177 481.949 203.19C482.611 202.212 483.26 201.193 483.853 200.119C485.079 197.974 486.396 195.698 487.78 193.27C485.359 197.595 483.389 201.545 480.976 205.169C480.682 205.625 480.428 206.025 480.16 206.444C480.204 206.401 480.204 206.401 480.23 206.364C477.522 210.924 474.514 214.837 471.966 218.518C469.311 222.16 466.609 225.351 464.266 228.415C459.199 234.358 454.843 239.48 450.067 244.356C460.404 234.022 469.925 223.145 477.777 211.615C476.378 213.814 475.526 215.275 476.525 214.161C475.833 215.164 475.211 216.086 474.441 217.201C473.505 218.456 472.677 219.69 471.804 220.78C470.926 221.856 470.131 222.833 469.463 223.668C468.117 225.313 467.283 226.346 467.283 226.346C466.054 227.998 465.184 229.217 464.593 230.058C463.022 231.831 461.395 233.667 459.746 235.553C458.053 237.423 456.455 239.409 454.534 241.278C452.678 243.171 450.795 245.101 448.896 247.037C447.946 248.005 447 248.986 446.025 249.932L442.995 252.747C438.947 256.492 434.968 260.275 430.807 263.663C426.724 267.114 422.861 270.482 419.016 273.364C415.223 276.287 411.828 279.028 408.779 281.296C405.699 283.53 403.098 285.41 401.152 286.836C397.26 289.689 395.952 290.726 398.525 289.058C400.47 287.749 403.439 285.709 407.208 283.07C408.142 282.412 409.14 281.72 410.182 280.985C411.177 280.221 412.237 279.423 413.323 278.586C415.496 276.914 417.855 275.11 420.349 273.191C421.584 272.221 422.895 271.256 424.182 270.212C425.443 269.146 426.739 268.069 428.061 266.955C430.705 264.728 433.453 262.409 436.31 260.012C439.022 257.516 441.838 254.929 444.698 252.299C445.42 251.635 446.142 250.971 446.865 250.308C447.583 249.631 448.255 248.926 448.947 248.228C450.333 246.832 451.731 245.418 453.147 243.998C454.528 242.648 456.212 241.114 457.751 239.481C450.4 246.985 446.744 250.768 444.968 252.373C443.265 254.029 443.743 253.733 444.616 253.066C446.362 251.731 449.689 248.954 440.253 257.623C437.162 260.544 433.784 263.279 430.471 266.037L425.505 270.188C423.874 271.588 422.068 272.855 420.364 274.205C416.897 276.837 413.485 279.524 409.971 282.128L399.229 289.724C395.689 292.306 391.92 294.641 388.239 297.079L377.148 304.29C369.707 308.972 362.544 313.93 355.56 319.036C348.454 324.238 341.798 329.72 335.695 335.45C329.634 341.196 324.096 347.213 319.838 353.614C315.61 359.99 312.563 366.737 311.861 373.386C311.536 376.702 311.707 379.964 312.439 383.079C313.228 386.19 314.553 389.133 316.272 391.879C317.96 394.649 320.173 397.153 322.586 399.506C324.998 401.86 327.706 404.004 330.606 405.971C336.361 409.949 342.869 413.24 349.622 416.162C363.216 421.921 377.957 426.068 393.052 429.348C400.616 430.983 408.283 432.396 416.05 433.589C419.943 434.182 423.84 434.731 427.769 435.197L430.725 435.532L432.201 435.693C432.751 435.753 432.988 435.78 433.518 435.773C435.543 435.805 437.559 435.811 439.61 435.806C455.935 435.747 472.461 434.999 489.156 433.82C522.559 431.443 556.71 427.216 591.921 420.678C598.15 419.577 604.274 418.261 610.435 417.065C644.454 409.942 677.282 401.144 709.108 390.129L721.015 385.933L732.796 381.457C736.75 380.01 740.606 378.375 744.48 376.793C748.341 375.171 752.282 373.684 756.084 371.936C759.92 370.235 763.756 368.534 767.596 366.846C771.427 365.132 775.171 363.256 778.977 361.463L784.66 358.744C786.531 357.807 788.39 356.829 790.253 355.865C793.98 353.937 797.724 352.003 801.463 350.056C797.675 352.091 793.71 354.225 789.662 356.4C801.775 350.263 813.712 343.745 825.364 336.924C831.188 333.507 836.93 330.014 842.485 326.347C848.019 322.672 853.494 318.871 858.257 314.682C860.645 312.607 862.88 310.406 864.503 308.136C865.236 306.96 865.898 305.923 866.055 304.914C866.286 303.896 866.091 302.852 865.427 302.072C864.751 301.252 863.787 300.784 862.564 300.34C861.333 299.869 859.828 299.615 858.344 299.369C855.32 298.939 852.081 298.852 848.802 298.88C842.239 298.981 835.533 299.593 828.816 300.411C822.099 301.23 815.375 302.268 808.65 303.424C800.41 304.838 792.172 306.44 783.937 308.172C779.817 309.032 775.71 309.931 771.611 310.857L765.465 312.281C765.08 312.387 764.152 312.578 763.755 312.644L762.248 312.929L759.186 313.587C742.823 317.09 726.542 321.76 710.312 326.531C702.249 329.111 694.135 331.591 686.079 334.255C678.052 337.013 670.012 339.789 661.969 342.552C653.991 345.526 646.014 348.501 638.019 351.481L632.015 353.719L626.073 356.097C622.109 357.692 618.145 359.288 614.181 360.884C598.215 367.099 582.567 374.144 566.719 380.976L560.784 383.555L554.916 386.288C551.006 388.115 547.091 389.928 543.163 391.759C535.329 395.431 527.435 399.033 519.57 402.787C511.798 406.657 503.996 410.551 496.176 414.45C492.265 416.393 488.357 418.35 484.428 420.298L478.545 423.225C476.574 424.208 474.666 425.274 472.725 426.292C464.976 430.416 457.21 434.546 449.414 438.7C445.505 440.773 441.617 442.853 437.691 444.932L431.815 448.06L426.023 451.336C417.946 455.927 409.865 460.505 401.818 465.072C397.786 467.359 393.771 469.639 389.757 471.92C385.742 474.201 381.698 476.448 377.802 478.865C362.076 488.379 346.41 497.844 330.778 507.298C315.479 517.142 300.21 526.963 284.94 536.783C269.641 546.569 254.816 556.773 240.392 567.346C225.989 577.926 211.978 588.907 198.865 600.506C192.381 606.356 185.948 612.248 180.051 618.451C174.102 624.613 168.436 630.947 163.559 637.557C158.64 644.151 154.325 650.976 151.353 657.961C148.412 664.922 146.717 672.101 147.817 678.678C147.962 680.348 148.544 681.896 149.004 683.481C149.285 684.251 149.686 684.983 150.018 685.737C150.191 686.104 150.35 686.49 150.557 686.847L151.248 687.895C152.948 690.763 155.472 693.227 158.36 695.402C161.192 697.638 164.689 699.33 168.269 700.924C170.157 701.61 171.966 702.408 173.977 702.939L176.935 703.826L179.999 704.564C173.282 703.026 166.973 700.793 161.649 697.64C160.243 696.918 159.108 695.966 157.872 695.119C156.649 694.253 155.67 693.194 154.556 692.25C152.675 690.136 150.885 687.951 149.793 685.444C147.426 680.517 146.825 674.859 147.81 669.052C148.775 663.237 151.115 657.323 154.263 651.563C160.59 640.018 169.621 628.975 179.731 618.523C189.855 608.052 201.063 598.07 212.849 588.414C223.47 579.765 234.449 571.411 245.67 563.402C251.212 559.332 256.937 555.481 262.525 551.556C265.364 549.645 268.203 547.734 271.041 545.823C273.863 543.918 276.663 542.004 279.569 540.188C276.571 542.077 273.676 544.049 270.772 545.995C267.873 547.954 264.986 549.895 262.1 551.835C256.412 555.806 250.678 559.689 245.153 563.754C233.984 571.746 223.209 579.964 212.871 588.422C202.663 596.752 192.775 605.374 183.646 614.412C174.533 623.445 166.144 632.904 159.392 642.794C157.598 645.249 156.23 647.788 154.674 650.27C153.383 652.814 151.93 655.322 150.932 657.89C148.756 662.995 147.264 668.162 147.011 673.157C146.771 678.134 147.731 682.937 150.098 687.079C152.452 691.239 156.101 694.745 160.547 697.521C164.98 700.315 170.144 702.414 175.638 703.929C181.118 705.463 186.893 706.482 192.723 707.193C204.48 708.44 216.478 708.462 228.271 707.588C251.852 705.887 274.418 701.319 294.784 695.801C299.233 694.721 301.433 694.102 303.615 693.546C305.796 692.991 307.931 692.407 312.18 691.114C327.132 686.629 341.856 681.358 356.143 675.482C370.412 669.613 384.274 663.173 397.417 656.202C410.6 649.235 422.969 641.795 434.696 634.064C446.495 626.324 457.846 618.667 468.638 611.229C468.638 611.229 468.96 610.983 469.537 610.583C470.115 610.183 470.926 609.622 471.895 608.954C473.813 607.624 476.279 605.917 478.546 604.361C483.039 601.246 486.613 598.711 482.924 601.122C526.218 571.405 575.766 535.59 620.015 506.431C639.218 493.831 658.634 481.485 678.997 469.976C689.014 464.425 699.241 459.114 709.751 454.165C720.266 449.228 731.066 444.653 742.246 440.802C747.816 438.817 753.518 437.126 759.252 435.54C765.038 434.055 770.856 432.676 776.761 431.691C788.553 429.669 800.622 428.825 812.287 429.781C815.223 429.933 818.066 430.392 820.949 430.736C823.77 431.244 826.621 431.671 829.332 432.374C832.118 432.953 834.754 433.781 837.429 434.554C838.752 434.952 840.026 435.439 841.327 435.888C842.623 436.324 843.91 436.791 845.141 437.32L848.859 438.87L852.438 440.581C854.873 441.676 857.047 443.029 859.351 444.253C863.738 446.901 867.998 449.691 871.855 452.769C879.659 458.851 886.798 465.898 891.665 474.242C896.71 482.487 899.462 491.961 899.712 501.758C899.882 506.649 899.263 511.628 898.325 516.563C897.332 521.5 895.718 526.399 893.834 531.224C891.872 536.044 889.52 540.769 886.935 545.421C884.243 550.035 881.406 554.607 878.216 559.028C865.561 576.795 849.683 593.017 832.553 608.28C815.363 623.533 796.774 637.844 777.318 651.512C767.588 658.339 757.618 665.009 747.426 671.516C742.328 674.763 737.183 677.981 731.965 681.149C729.341 682.716 726.722 684.297 724.081 685.869L720.083 688.203L715.652 690.731C713.452 691.772 711.169 692.854 708.805 693.975C706.561 695.059 704.27 696.173 701.913 697.321C697.222 699.626 692.357 702.043 687.505 704.5C664.764 716.002 640.627 728.989 617.176 742.823C593.724 756.657 570.926 771.361 551.215 786.272C575.042 768.132 601.468 751.429 628.962 735.523C642.732 727.585 656.833 719.849 671.185 712.309C678.361 708.54 685.61 704.82 692.914 701.155C696.583 699.347 700.248 697.525 703.917 695.716L709.457 693.029L715.33 690.251C716.908 689.347 718.503 688.438 720.095 687.516C721.569 686.645 723.048 685.787 724.522 684.916C727.484 683.155 730.438 681.368 733.418 679.544C739.36 675.9 745.325 672.148 751.227 668.314C783.735 647.385 814.053 625.05 839.634 601.37C852.388 589.534 863.939 577.32 873.526 564.779C883.099 552.256 890.695 539.309 894.972 526.445C898.994 514.52 900.234 502.088 897.453 490.528C898.396 494.915 899.027 499.399 898.869 503.972C898.939 506.248 898.599 508.55 898.44 510.825C898.04 513.118 897.812 515.415 897.214 517.683C895.205 526.823 891.384 535.761 886.642 544.307C877.014 561.428 863.74 577.048 849.277 591.545C834.766 606.072 818.88 619.489 802.415 632.216C785.908 644.927 768.775 656.919 751.205 668.306C745.452 672.006 739.621 675.644 733.684 679.242C730.717 681.048 727.725 682.832 724.711 684.609L720.149 687.266C718.506 688.204 716.841 689.135 715.181 690.079L709.434 692.774L703.998 695.371C700.373 697.137 696.751 698.916 693.126 700.681C685.892 704.266 678.695 707.911 671.541 711.63C657.229 719.055 643.074 726.736 629.265 734.614C630.067 734.143 630.791 733.726 631.628 733.245C645.012 725.588 658.635 718.148 672.493 710.909C679.413 707.293 686.402 703.713 693.429 700.194C696.95 698.46 700.485 696.709 704.02 694.957L709.348 692.379L714.974 689.723C716.135 689.066 717.31 688.391 718.485 687.716C719.543 687.093 720.623 686.477 721.698 685.848C723.828 684.582 725.957 683.316 728.086 682.05C757.751 664.284 785.52 645.325 810.376 625.625C822.781 615.76 834.421 605.7 845.003 595.42C855.594 585.166 865.106 574.684 873.15 564.068C877.172 558.789 880.803 553.357 883.929 548.069C890.579 536.946 895.617 525.05 897.404 513.028C895.72 524.29 891.044 535.345 885.078 545.802C879.001 556.265 871.558 566.198 863.351 575.629C846.883 594.509 827.674 611.56 807.538 627.477C782.462 647.203 755.779 665.326 728.125 682.052L721.742 685.805L718.525 687.66L714.974 689.664L709.457 692.243L704.238 694.743L693.825 699.822C686.898 703.237 679.996 706.731 673.146 710.267C675.036 709.266 677.055 708.194 678.78 707.274C683.074 705.036 689.457 701.705 696.022 698.287C699.293 696.604 702.612 694.891 705.736 693.283C708.929 691.653 711.927 690.128 714.449 688.841C714.783 688.634 715.121 688.44 715.442 688.252C715.681 688.104 715.937 687.951 716.158 687.809C716.618 687.519 717.064 687.247 717.494 686.981C718.314 686.447 719.06 685.979 719.694 685.577C720.939 684.763 721.734 684.208 721.951 683.994C722.37 683.571 720.498 684.568 715.092 687.562C714.737 687.761 714.364 687.966 713.995 688.183C711.99 689.12 709.989 690.069 707.971 691.024C706.022 691.957 704.06 692.908 702.076 693.852C698.143 695.787 694.179 697.747 690.164 699.723C682.162 703.708 674.095 707.846 665.991 712.111C649.784 720.641 633.46 729.644 617.567 738.991C585.811 757.662 555.583 777.685 532.111 797.677C520.408 807.655 510.432 817.629 503.162 827.143C495.846 836.629 491.438 845.636 490.013 853.007C489.309 856.69 489.282 859.927 489.548 862.708C489.962 865.472 490.562 867.683 491.325 869.566C492.11 871.457 492.719 872.909 493.126 873.901C493.319 874.393 493.478 874.779 493.627 875.009C493.74 875.249 493.816 875.371 493.816 875.371C493.972 875.743 493.819 875.501 493.341 874.706C492.963 873.865 492.349 872.458 491.504 870.557C491.298 870.084 491.08 869.571 490.836 869.036C490.613 868.51 490.494 867.951 490.294 867.374C490.111 866.792 489.885 866.194 489.754 865.537C489.624 864.88 489.506 864.205 489.376 863.489C488.972 860.635 488.859 857.253 489.543 853.446C490.889 845.823 495.376 836.646 502.405 827.396C509.375 818.136 518.612 808.773 528.656 799.985C548.759 782.333 571.795 766.754 588.874 755.797C605.995 744.856 617.229 738.4 615.287 739.476C604.017 746.06 592.887 752.848 582.039 759.867C592.281 753.097 602.51 746.709 612.044 740.947C623.398 734.147 636.877 726.489 649.576 719.615C662.266 712.715 674.143 706.55 682.064 702.43C687.047 699.845 692.125 697.258 697.298 694.672C699.88 693.394 702.496 692.106 705.13 690.812C706.451 690.178 707.768 689.531 709.106 688.892C710.479 688.242 711.835 687.598 713.225 686.942C714.721 686.079 716.199 685.221 717.712 684.353C719.156 683.506 720.614 682.64 722.075 681.788C724.963 680.036 727.856 678.297 730.775 676.521C736.575 672.966 742.38 669.308 748.159 665.57C759.732 658.076 771.305 650.218 782.687 641.999C805.449 625.546 827.649 607.612 847.098 587.882C854.518 580.356 861.778 572.139 868.579 563.31C871.915 558.872 875.153 554.305 878.105 549.551C881.018 544.796 883.735 539.898 886.039 534.839C890.506 524.752 893.541 514.039 893.273 503.521C893.18 498.271 892.332 493.099 890.741 488.16C889.093 483.225 886.642 478.571 883.656 474.216C883.622 474.227 883.409 473.974 883.057 473.518C882.721 473.056 882.233 472.41 881.673 471.655C880.47 470.187 878.905 468.294 877.376 466.637C875.77 465.033 874.373 463.553 873.592 462.882C872.794 462.217 872.776 462.223 874.072 463.502C870.297 460.021 866.268 456.576 861.752 453.518C859.59 451.9 857.162 450.526 854.852 449.042C852.398 447.705 850.014 446.288 847.438 445.106C844.945 443.825 842.263 442.792 839.643 441.711C836.93 440.761 834.261 439.768 831.482 439.028C825.959 437.479 820.345 436.307 814.729 435.732C809.122 435.125 803.623 434.862 798.347 435.067C795.728 435.077 793.153 435.348 790.669 435.49C788.185 435.748 785.787 435.978 783.496 436.306C774.309 437.611 766.775 439.457 761.554 440.983C760.353 441.273 759.177 441.643 758.006 441.968C756.294 442.448 754.211 443.016 751.924 443.779C749.641 444.497 747.142 445.312 744.581 446.234C724.618 453.095 707.046 461.575 690.812 470.2C674.573 478.871 659.658 487.824 645.216 496.948C616.355 515.217 589.341 534.098 558.908 555.523C537.911 570.214 516.635 585.225 494.503 600.476C508.972 590.529 530.567 575.563 544.866 565.438C549.607 562.085 554.305 558.774 558.925 555.518C586.139 536.487 612.787 518.012 639.91 500.682C653.498 492.045 667.192 483.68 681.22 475.835C695.231 467.996 709.568 460.65 724.416 454.264C729.231 452.11 737.09 448.881 744.598 446.229C746.808 445.461 749.027 444.719 751.27 444.057C753.497 443.343 755.762 442.688 758.039 442.074C759.111 441.737 760.274 441.327 761.558 440.996C776.491 436.997 792.475 434.645 807.928 435.5C823.391 436.265 837.921 440.406 850.082 446.746C856.187 449.902 861.704 453.606 866.762 457.541C871.819 461.477 876.417 465.702 880.093 470.32C883.817 474.908 886.779 479.793 888.864 484.853C890.98 489.888 892.073 495.114 892.465 500.227C892.786 504.751 892.614 509.4 891.765 514.074C890.951 518.737 889.732 523.439 887.923 528.081C886.175 532.732 884.056 537.354 881.528 541.887C880.344 544.164 878.92 546.401 877.594 548.651C876.126 550.872 874.757 553.106 873.182 555.288C860.912 572.891 844.934 589.159 827.735 604.444C810.454 619.71 791.724 633.993 772.33 647.496C752.906 660.965 732.883 673.735 712.242 685.448C706.404 688.157 700.696 690.912 694.995 693.694C700.783 690.827 706.583 687.999 712.199 685.374C731.185 674.501 749.292 662.887 766.744 650.882C784.17 638.856 800.851 626.338 816.45 613.214C799.76 627.219 782.372 640.091 764.878 652.08C747.358 664.048 729.773 675.207 712.153 685.287C697.619 692.127 684.7 698.664 671.956 705.275C664.274 709.248 656.772 713.192 649.287 717.248C633.602 725.745 618.124 734.54 602.957 743.718C617.148 735.182 631.463 727.043 645.896 719.217C616.807 735.245 588.751 752.084 562.769 770.32C552.986 777.222 543.391 784.356 534.277 791.876C525.143 799.389 516.452 807.285 508.682 815.692C500.99 824.103 494.084 833.082 489.769 842.627C487.636 847.384 486.191 852.275 485.806 857.093C485.404 861.917 486.106 866.627 487.898 870.993C489.684 875.405 491.696 879.746 494.509 883.675C497.127 887.709 500.638 891.258 504.602 894.375C512.607 900.612 523.785 903.946 535.696 904.111C547.672 904.242 560.056 901.685 571.894 897.874C577.831 895.963 583.659 893.708 589.356 891.218C592.213 889.97 595.028 888.648 597.809 887.279C600.556 885.921 603.411 884.426 605.887 882.993C622.314 871.354 639.597 860.203 657.256 849.703C674.966 839.246 693.209 829.334 712.391 820.959C721.963 816.77 731.802 813.007 741.937 810.066C746.999 808.576 752.152 807.376 757.353 806.511C762.558 805.659 767.815 805.154 773.001 805.327C778.169 805.505 783.247 806.423 787.668 808.276C792.103 810.109 795.76 812.915 798.399 816.23C801.059 819.552 802.81 823.306 804.03 827.184C804.465 829.17 805.111 831.105 805.313 833.136L805.749 836.154L805.931 839.209C805.74 837.815 805.649 836.317 805.291 834.757C804.968 833.186 804.728 831.516 804.156 829.82C803.282 825.834 801.752 821.996 799.425 818.525C797.119 815.062 793.879 812.009 789.779 809.851C785.693 807.675 780.804 806.45 775.759 806.001C770.698 805.557 765.473 805.804 760.304 806.528C749.965 807.977 739.894 810.941 730.205 814.396C720.516 817.909 711.157 821.929 702.118 826.241C684.019 834.857 667.081 844.446 651.153 854.168C635.252 863.911 620.253 873.806 606.539 883.675C603.36 885.533 600.189 887.171 597.052 888.739C600.513 887.054 603.88 885.311 606.594 883.731C624.584 871.019 640.898 860.593 657.53 850.635C674.226 840.759 691.297 831.23 712.03 822.047C712.017 822.124 712.488 821.99 708.768 823.698C715.9 820.452 723.448 817.263 731.398 814.442C739.356 811.648 747.713 809.093 756.389 807.556C764.997 806.041 774.111 805.414 782.258 807.447C786.296 808.446 790.036 810.062 793.048 812.328C796.047 814.613 798.365 817.389 800.184 820.395C797.813 816.603 794.312 812.963 789.422 810.589C784.576 808.172 778.618 806.992 772.479 806.931C763.795 806.754 752.642 808.633 740.811 812.223C728.979 815.814 716.476 820.954 704.328 826.68C686.788 834.961 670.098 844.253 653.978 853.963C637.852 863.718 622.308 873.814 607.267 884.479C603.048 886.896 598.911 888.969 594.589 890.997C590.297 893.001 585.908 894.877 581.456 896.553C577.004 898.23 572.502 899.806 567.912 901.104C565.63 901.822 563.302 902.336 561.003 902.943C558.667 903.43 556.36 904.011 554.025 904.382C549.349 905.285 544.644 905.733 539.971 905.981C537.64 906.001 535.299 906.112 533.018 905.928C531.872 905.852 530.696 905.858 529.586 905.713L526.204 905.293C517.24 904.041 509.204 900.606 502.88 895.847C496.53 891.067 491.945 884.947 488.643 878.379C487.687 876.789 487.103 875.053 486.364 873.366L485.301 870.835L484.469 868.189C483.548 864.595 483.236 860.825 483.554 857.002C483.949 853.184 484.909 849.348 486.303 845.564C487.737 841.783 489.651 838.083 491.798 834.455C496.216 827.234 501.712 820.357 507.832 813.836C514.463 806.762 521.753 800.091 529.372 793.681C536.973 787.276 544.929 781.152 553.086 775.242C569.394 763.408 586.49 752.388 603.921 741.887C621.351 731.387 639.156 721.41 657.145 711.839C675.125 702.3 693.356 693.076 711.679 684.505C728.418 675.008 744.344 664.981 759.718 654.706C743.61 665.547 727.22 675.85 711.764 684.653C694.107 692.985 676.941 701.729 660.3 710.57C643.649 719.443 627.492 728.496 611.837 737.812C596.185 747.142 581.018 756.741 566.513 766.757C552.013 776.786 538.137 787.23 525.433 798.439L525.133 798.33ZM356.958 312.604C349.597 317.901 342.218 323.625 335.399 329.798C336.517 328.88 337.569 327.996 338.591 327.137C345.015 321.64 351.655 316.468 356.958 312.604ZM387.603 432.749C373.581 429.495 358.707 425.288 344.336 418.93C340.739 417.342 337.203 415.589 333.765 413.66C330.314 411.75 326.977 409.6 323.854 407.223C317.568 402.524 312.027 396.69 308.848 389.546C307.272 385.984 306.285 382.121 306.191 378.078C306.063 374.046 306.738 369.907 308.045 365.846C310.643 357.67 315.867 349.991 321.83 342.909C327.935 335.855 334.995 329.358 342.446 323.262C349.902 317.18 357.772 311.447 365.849 306.07C366.201 305.799 366.397 305.636 366.371 305.615C352.83 314.645 338.853 324.829 326.709 337.273C325.154 338.795 323.774 340.45 322.279 342.04C320.831 343.659 319.524 345.365 318.131 347.039C315.573 350.505 313.052 354.032 311.149 357.83C307.095 365.301 305.047 373.653 306.175 381.53C307.277 389.444 311.672 396.409 317.448 402.082C323.235 407.795 330.45 412.303 338.033 416.171C353.342 423.819 370.447 428.838 387.599 432.736L387.603 432.749ZM629.323 419.719C628.861 419.821 628.343 419.926 627.864 420.033C627.903 420.035 627.997 420.034 628.002 420.048C628.425 419.943 628.866 419.834 629.323 419.719ZM153.205 642.762C162.027 629.182 174.241 615.931 188.114 603.001C202.056 590.108 217.692 577.467 234.389 565.118C238.597 562.064 242.84 558.998 247.114 555.909C251.447 552.888 255.814 549.856 260.195 546.806C264.635 543.824 269.106 540.818 273.572 537.799C278.124 534.869 282.689 531.921 287.275 528.98C296.44 523.073 305.651 517.136 314.898 511.188C319.536 508.231 324.106 505.179 328.821 502.285L343.026 493.673C354.415 486.803 365.741 479.852 378.008 472.329C390.491 465.072 404.023 457.34 419.535 448.534C421.954 447.162 424.321 445.807 426.628 444.5C428.93 443.179 431.257 441.997 433.48 440.788C437.97 438.387 442.248 436.096 446.361 433.886C454.604 429.461 462.249 425.369 469.629 421.404C471.488 420.427 473.296 419.407 475.15 418.475C477.005 417.543 478.842 416.616 480.679 415.689C484.357 413.849 488.03 411.995 491.726 410.149C499.13 406.439 506.65 402.677 514.678 398.654L490.404 410.478C504.534 403.561 516.961 397.092 529.042 391.635C535.04 388.832 540.838 386.121 546.537 383.455C552.258 380.798 557.807 378.078 563.529 375.668C569.209 373.183 574.91 370.706 580.69 368.176C583.582 366.917 586.508 365.647 589.465 364.354C592.426 363.073 595.392 361.748 598.507 360.535C604.665 358.06 611.044 355.501 617.695 352.842C621.023 351.519 624.432 350.155 627.929 348.765C631.434 347.401 635.08 346.123 638.787 344.739C638.779 344.712 639.298 344.491 640.207 344.117C641.137 343.752 642.436 343.227 644.024 342.597C647.187 341.355 651.41 339.736 655.684 338.159L659.668 336.687L663.698 335.303C666.375 334.388 669.07 333.468 671.747 332.554C677.105 330.737 682.424 328.86 687.751 327.127C698.473 323.812 709.01 320.338 719.442 317.493C722.039 316.749 724.62 316.01 727.187 315.29C729.75 314.556 732.329 313.934 734.874 313.265C737.423 312.608 739.933 311.949 742.426 311.296C744.919 310.643 747.428 310.101 749.904 309.511C752.383 308.935 754.798 308.335 757.263 307.836C758.494 307.58 759.703 307.316 760.917 307.065C762.035 306.815 763.684 306.558 764.203 306.395C768.924 305.274 773.468 304.252 777.912 303.276C789.002 300.893 800.137 298.714 811.191 296.88C822.253 295.073 833.234 293.553 844.154 292.925C849.62 292.66 855.08 292.557 860.673 293.3L862.78 293.655L864.916 294.161C865.628 294.373 866.375 294.633 867.079 294.877C867.898 295.244 868.734 295.607 869.474 296.087C872.47 297.937 874.194 301.001 873.55 304.272C873.386 305.08 873.248 305.909 872.899 306.673C872.581 307.413 872.235 308.307 871.85 308.836C871.486 309.43 871.117 310.07 870.719 310.617L869.495 312.223C867.796 314.255 866.006 316.055 864.183 317.69C860.536 320.96 856.804 323.836 853.126 326.462C849.413 329.098 843.848 332.914 837.197 337.085C830.555 341.284 822.836 345.864 814.985 350.268C810.177 352.929 805.426 355.587 800.483 358.116L793.116 361.945C790.668 363.225 788.22 364.504 785.703 365.688C780.693 368.064 775.732 370.54 770.679 372.842L755.452 379.595C756.391 379.256 757.222 378.878 758.001 378.575C774.654 371.461 791.132 363.311 807.142 354.698C818.975 348.213 831.201 341.284 843.298 333.523C849.33 329.619 855.359 325.526 861.115 320.807C864.002 318.445 866.83 315.956 869.414 312.932C870.068 312.174 870.676 311.328 871.28 310.527L872.126 309.17L872.539 308.488C872.684 308.224 872.816 307.921 872.936 307.636C874.06 305.348 874.446 302.711 873.712 300.498C872.987 298.254 871.086 296.438 868.734 295.243C868.172 294.969 867.491 294.616 866.989 294.469L865.418 293.945C864.382 293.674 863.343 293.39 862.345 293.239C858.303 292.532 854.444 292.408 850.644 292.411C843.065 292.483 835.724 293.192 828.511 294.064C814.067 295.874 800.123 298.427 786.776 301.127C782.596 301.977 778.446 302.86 774.305 303.77L768.09 305.158L764.988 305.872C763.701 306.189 763.576 306.214 762.229 306.463C757.958 307.327 753.812 308.224 749.683 309.232L743.493 310.699L737.383 312.301C729.209 314.348 721.182 316.742 713.147 319.051C709.124 320.157 705.168 321.474 701.203 322.706C697.243 323.952 693.283 325.198 689.34 326.438C657.875 336.728 627.412 348.389 597.61 360.643C538.127 385.476 481.736 413.553 426.952 443.656C415.375 450.293 403.769 456.955 392.175 463.597L383.482 468.586C380.581 470.24 377.685 471.907 374.874 473.664C369.196 477.122 363.523 480.594 357.845 484.052C349.331 489.246 340.556 494.58 331.677 500.005C327.193 502.667 322.832 505.537 318.427 508.391C314.019 511.232 309.597 514.091 305.158 516.957C287.449 528.446 269.415 539.747 252.811 551.485C236.156 563.122 220.655 574.804 207.228 585.95C193.797 597.083 182.47 607.714 173.898 616.955C171.033 620.052 166.756 624.699 162.842 629.536C161.829 630.727 160.864 631.947 159.976 633.172C159.062 634.376 158.183 635.568 157.339 636.692C155.703 638.981 154.361 641.119 153.239 642.81L153.205 642.762ZM176.991 704.303C171.969 702.959 167.15 701.232 162.862 698.96C158.54 696.698 154.836 693.805 152.095 690.348C149.337 686.896 147.598 682.877 146.974 678.535C146.353 674.208 146.766 669.599 147.972 664.973C150.607 655.709 155.814 646.465 162.364 637.744C168.884 628.988 176.533 620.62 184.674 612.605C201.028 596.568 219.379 581.925 237.888 568.206C256.491 554.545 275.393 541.895 293.966 530.192C301.381 525.431 310.515 519.547 320.79 512.941C323.35 511.293 325.988 509.59 328.691 507.853C331.373 506.108 334.235 504.451 337.102 502.691C342.849 499.211 348.782 495.6 354.863 491.913C360.944 488.226 367.147 484.442 373.418 480.637C376.567 478.745 379.678 476.792 382.873 474.929L392.524 469.421C405.358 462.068 418.114 454.769 430.141 447.874C442.372 441.264 453.87 435.044 463.99 429.577C469.061 426.848 473.734 424.243 478.076 421.976C482.43 419.748 486.356 417.728 489.762 415.988C503.384 408.969 508.759 405.999 500.558 409.712C495.67 412.297 489.331 415.585 481.753 419.467C479.855 420.442 477.867 421.431 475.851 422.516C473.84 423.614 471.747 424.752 469.606 425.92C465.284 428.254 460.707 430.741 455.87 433.367C451.029 435.981 445.924 438.721 440.614 441.598C435.301 444.462 429.724 447.394 424.126 450.682C412.831 457.129 400.783 464.016 388.132 471.224C381.755 474.757 375.482 478.679 369.011 482.576C362.562 486.481 355.986 490.469 349.329 494.497C342.671 498.525 335.939 502.621 329.121 506.743C322.452 511.037 315.718 515.366 308.949 519.705C302.185 524.058 295.368 528.427 288.556 532.81C281.743 537.192 274.845 541.543 268.221 546.1C254.826 555.112 241.722 564.324 229.304 573.785C204.484 592.631 181.951 612.226 165.841 631.88C163.84 634.341 161.995 636.813 160.176 639.246C158.525 641.729 156.71 644.118 155.3 646.583C152.205 651.425 149.954 656.292 148.21 660.957C144.858 670.3 144.714 679.145 147.963 685.729C148.629 687.424 149.747 688.862 150.661 690.319C151.231 690.983 151.801 691.648 152.363 692.285C152.894 692.947 153.512 693.524 154.161 694.076C154.793 694.633 155.385 695.189 156.009 695.72C156.693 696.203 157.351 696.665 157.992 697.132C159.227 698.096 160.68 698.788 161.942 699.54C167.236 702.354 172.149 703.775 175.556 704.696C182.591 706.279 183.6 706.224 177.033 704.319L176.991 704.303ZM842.749 437.026C834.451 433.906 825.474 431.77 816.077 430.712C806.688 429.622 796.868 429.759 786.977 430.819C777.065 431.872 767.039 433.891 757.034 436.704C747.003 439.495 736.939 443.024 726.791 447.133C745.231 439.602 764.786 433.436 784.989 430.965C795.053 429.791 805.215 429.533 815.014 430.537C824.804 431.573 834.172 433.804 842.753 437.039L842.749 437.026ZM507.024 588.684C530.271 572.326 553.816 555.525 577.859 538.8C601.911 522.102 626.45 505.439 651.925 489.762C677.43 474.177 703.878 459.357 732.161 448.134C746.28 442.573 760.889 437.963 775.738 435.329C790.558 432.66 805.61 432.055 819.549 434.201C824.891 435.051 830.117 436.258 835.149 437.816C840.115 439.468 845.003 441.291 849.514 443.609C858.689 448.068 866.7 453.779 873.872 460.148C877.495 463.327 880.661 466.869 883.516 470.567C886.296 474.331 888.687 478.306 890.51 482.532C894.118 490.981 895.428 500.284 894.399 509.639C893.404 518.983 890.316 528.317 885.936 537.17C881.625 546.059 876.03 554.494 869.949 562.53C857.679 578.562 843.368 592.88 829.039 605.808L829.308 606C831.427 604.097 833.495 602.152 835.584 600.215C846.67 590.024 856.137 580.429 864.309 570.761C868.403 565.954 872.209 561.136 875.658 556.211C879.111 551.3 882.333 546.317 885.095 541.143C884.458 542.318 883.772 543.581 883.151 544.75C884.268 542.683 885.467 540.633 886.486 538.495C890.018 531.537 892.873 524.24 894.561 516.496C896.27 508.759 896.507 500.57 894.84 492.252C893.209 484.65 889.756 477.417 885.002 470.943C881.589 466.374 877.681 462.047 873.122 458.246C868.614 454.428 863.867 450.816 858.59 447.633C853.348 444.439 847.731 441.567 841.695 439.233C835.646 436.918 829.203 435.106 822.474 433.892C809.042 431.427 794.526 431.557 780.349 433.733C773.254 434.801 766.206 436.32 759.28 438.164C752.361 440.035 745.573 442.257 738.903 444.675C712.225 454.477 687.799 467.57 664.816 481.082C641.863 494.687 620.285 508.92 599.782 522.946C549.066 557.645 507.254 588.873 456.322 623.248C470.926 613.549 492.717 598.725 507.029 588.639L507.024 588.684Z" fill="#BFA4A1"/>
<path d="M661.479 710.636C627.498 728.756 593.998 748.223 562.52 770.195C550.436 778.722 538.784 787.594 527.909 797.006C517.099 806.442 506.994 816.427 498.978 827.252C494.609 833.12 490.96 839.344 488.49 845.749C486.132 852.148 485.037 858.818 486.278 865.06C486.472 866.642 487.054 868.132 487.494 869.651C488.116 871.143 488.758 872.642 489.379 874.134C489.953 875.655 490.777 877.068 491.554 878.511C492.331 879.953 493.073 881.407 494.097 882.728C497.729 888.232 502.543 893.205 508.801 896.85C515.008 900.511 522.6 902.777 530.765 903.481C538.962 904.102 547.617 903.343 556.188 901.592C564.751 899.815 573.276 897.192 581.549 893.95C585.694 892.326 589.785 890.588 593.804 888.684C595.805 887.735 597.798 886.759 599.778 885.744L602.711 884.195C603.639 883.7 604.74 883.092 605.477 882.657C613.893 876.665 622.825 870.684 631.751 864.925C640.711 859.154 649.825 853.51 659.113 848.057C677.694 837.166 696.906 826.891 717.159 818.412C722.214 816.299 727.35 814.32 732.565 812.534C737.777 810.734 743.063 809.115 748.441 807.845C753.815 806.562 759.276 805.557 764.757 805.098C770.221 804.645 775.76 804.735 780.936 805.783C786.108 806.818 790.828 808.896 794.48 811.805C798.149 814.709 800.797 818.355 802.516 822.25C803.04 823.19 803.309 824.226 803.694 825.21C804.062 826.199 804.418 827.207 804.643 828.227L805.381 831.297L805.846 834.408L806.07 835.966L806.165 837.536L806.376 840.684C806.409 842.782 806.39 844.897 806.328 846.996C806.443 850.625 806.822 851.044 807.54 846.499C807.639 842.163 807.657 837.808 806.997 833.537C806.485 829.248 805.308 825.022 803.404 821.025C801.505 817.042 798.703 813.269 794.72 810.333C790.771 807.387 785.697 805.391 780.291 804.459C774.878 803.5 769.195 803.499 763.619 804.017C758.021 804.527 752.498 805.639 747.098 806.959C736.259 809.656 725.864 813.463 715.749 817.678C695.566 826.193 676.488 836.411 658.019 847.238C648.8 852.668 639.734 858.283 630.808 864.043C626.339 866.932 621.917 869.85 617.524 872.803L610.969 877.279L607.709 879.54L604.63 881.716L603.225 882.507L601.604 883.395C600.517 883.984 599.403 884.553 598.307 885.116C596.076 886.239 593.836 887.336 591.559 888.373C587.008 890.459 582.351 892.389 577.653 894.128C572.941 895.886 568.147 897.38 563.325 898.664C558.507 899.961 553.627 900.943 548.778 901.596C539.091 902.942 529.408 902.73 520.903 900.402L517.769 899.439C516.721 899.129 515.787 898.637 514.809 898.247C512.771 897.506 511.068 896.384 509.239 895.403C508.34 894.9 507.585 894.251 506.742 893.687C505.943 893.08 505.023 892.57 504.345 891.867L502.14 889.87C501.786 889.53 501.384 889.22 501.044 888.862L500.086 887.753C494.851 881.982 491.231 875.006 488.772 867.853C487.669 864.346 487.236 860.614 487.597 856.806C487.936 852.991 488.944 849.126 490.442 845.309C491.915 841.472 493.977 837.697 496.314 834.009C498.625 830.301 501.349 826.695 504.249 823.166C510.048 816.106 516.756 809.4 523.858 802.978C524.738 802.149 525.669 801.303 526.591 800.489C546.761 782.263 575.79 761.992 608.495 742.354C624.846 732.528 642.122 722.804 659.717 713.43C677.35 704.058 695.097 695.044 712.939 686.639L716.13 684.821L719.183 683.047C721.2 681.845 723.203 680.662 725.202 679.466C729.184 677.08 733.083 674.675 736.91 672.279C744.575 667.468 751.957 662.659 759.045 657.885C777.267 645.551 794.948 632.645 811.656 618.94C820.012 612.094 828.138 605.059 835.878 597.767C843.623 590.488 851.068 582.983 857.905 575.175C864.764 567.375 871.117 559.297 876.513 550.896C881.974 542.517 886.37 533.776 889.385 524.872C890.778 520.42 891.891 515.925 892.462 511.455C892.938 506.986 893.168 502.522 892.617 498.172C892.091 493.843 891.182 489.563 889.555 485.537C888.884 483.465 887.793 481.568 886.884 479.585L885.214 476.751C884.669 475.803 884.089 474.866 883.413 473.987C886.44 478.475 888.83 483.293 890.42 488.348C891.976 493.415 892.68 498.734 892.642 504.112C892.587 509.496 891.773 514.944 890.322 520.36C888.849 525.768 886.713 531.122 884.179 536.355C879.104 546.867 872.182 556.883 864.46 566.467C856.694 576.036 848.024 585.147 838.863 593.904C820.477 611.395 800.145 627.476 778.884 642.657C757.568 657.782 735.395 672.116 712.1 685.362C695.116 693.293 678.276 701.746 661.506 710.54L661.479 710.636Z" fill="#BFA4A1"/>
<path d="M321.245 696.61C355.47 685.67 388.617 670.939 419.517 652.872C422.188 651.275 424.839 649.671 427.475 648.085C430.074 646.439 432.656 644.798 435.241 643.17C440.327 639.883 445.283 636.608 450.239 633.333C460.13 626.775 469.797 620.23 479.339 613.709C498.4 600.66 516.845 587.703 535.033 574.899C571.423 549.332 606.64 524.206 643.775 500.585C616.451 517.818 589.879 536.11 563.312 554.602C536.75 573.109 510.22 591.837 483.167 610.294C469.641 619.552 456.558 628.408 443.703 636.902C437.298 641.127 430.853 645.35 424.312 649.327C421.042 651.316 417.789 653.299 414.481 655.168C412.842 656.12 411.182 657.064 409.538 658.003C407.87 658.92 406.214 659.819 404.545 660.737C377.954 675.224 350.47 687.053 321.262 696.604L321.245 696.61Z" fill="#BFA4A1"/>
<path d="M705.906 464.958C684.129 475.778 663.715 487.973 643.792 500.58C664.057 487.851 684.729 475.633 706.31 465.034C717.092 459.738 728.076 454.843 739.332 450.692C750.558 446.506 762.047 443.096 773.627 440.821C785.185 438.596 796.842 437.591 808.005 438.341C813.594 438.648 819.034 439.511 824.269 440.685C829.534 441.836 834.556 443.485 839.33 445.43C848.93 449.304 857.418 454.662 864.999 460.757C866.934 462.257 868.609 463.897 870.431 465.461L872.894 467.973L874.125 469.23L875.244 470.55L877.468 473.21L879.445 475.991C880.133 476.909 880.721 477.873 881.275 478.848C881.828 479.823 882.468 480.77 882.935 481.772C887.36 490.401 889.227 500.081 888.104 510.048C887.58 515.026 886.405 520.05 884.743 525.037C883.068 530.044 880.786 534.993 878.181 539.885C875.598 544.784 872.564 549.578 869.259 554.297C865.976 559.023 862.397 563.654 858.577 568.186C854.8 572.733 850.766 577.187 846.586 581.542C842.432 585.917 838.06 590.201 833.606 594.409C815.696 611.24 795.891 626.879 775.203 641.647C764.851 649.034 754.255 656.191 743.46 663.136C738.071 666.605 732.609 670.025 727.126 673.378L718.847 678.353L714.675 680.799L710.617 683.123L706.117 685.251L701.513 687.47L692.36 691.963C686.278 694.981 680.213 698.053 674.194 701.153C662.144 707.372 650.204 713.76 638.414 720.319C614.819 733.456 591.711 747.298 569.617 762.246C554.911 772.224 540.734 782.617 527.626 793.75C540.99 782.464 555.344 772.03 570.123 762.102C584.906 752.187 600.154 742.781 615.651 733.747C631.149 724.713 646.9 716.064 662.804 707.717C678.698 699.402 694.88 691.272 711.015 683.725C713.794 682.167 716.881 680.382 719.783 678.669C722.718 676.946 725.642 675.183 728.53 673.431C734.338 669.902 740.086 666.306 745.757 662.646C757.121 655.334 768.246 647.806 779.068 640.039C800.695 624.51 821.245 608.099 839.492 590.405C848.589 581.566 857.105 572.387 864.594 562.847C868.318 558.069 871.826 553.213 874.961 548.256C878.075 543.292 880.84 538.248 883.171 533.152C887.79 522.944 890.409 512.42 890.12 502.317C889.722 492.232 886.476 482.637 880.543 474.468C879.161 472.372 877.438 470.456 875.818 468.508C874.949 467.56 874.02 466.659 873.121 465.735L871.757 464.361L870.285 463.064L867.341 460.471L864.21 458.009C863.186 457.167 862.104 456.388 860.992 455.632C859.898 454.871 858.812 454.078 857.687 453.341C853.166 450.386 848.365 447.751 843.32 445.426C838.205 443.181 832.848 441.317 827.246 439.88C816.024 437.069 803.88 436.162 791.612 437.098C785.489 437.569 779.345 438.397 773.244 439.603C767.152 440.836 761.103 442.331 755.125 444.11C743.199 447.701 731.569 452.174 720.346 457.216C709.098 462.238 698.193 467.747 687.609 473.549C666.4 485.15 646.314 497.722 626.933 510.479C623.174 512.97 618.999 515.767 615.019 518.4C639.367 502.219 664.144 486.558 690.001 472.636C696.48 469.188 703.027 465.834 709.645 462.647C716.289 459.481 723 456.469 729.795 453.662C743.418 448.156 757.412 443.405 771.631 440.517C785.825 437.609 800.218 436.543 813.737 438.137C820.501 438.918 827.008 440.333 833.186 442.331C839.36 444.316 845.121 446.925 850.517 449.939C855.895 452.96 860.967 456.338 865.561 460.129C870.147 463.893 874.424 467.885 877.882 472.353C884.859 481.24 889 491.688 889.239 502.841C889.024 495.026 886.965 487.515 883.318 480.692C879.584 473.897 874.331 467.769 868.078 462.391C861.787 457.011 854.771 452.106 846.951 448.211C839.131 444.315 830.604 441.252 821.412 439.519C803.06 435.911 782.623 437.7 763.007 442.823C753.169 445.321 743.456 448.638 733.958 452.397C724.442 456.16 715.115 460.403 705.954 464.928L705.906 464.958Z" fill="#BFA4A1"/>
<path d="M694.742 693.555C686.954 697.372 679.307 701.217 671.707 705.149C662.855 709.752 654.221 714.387 645.648 719.091C650.923 716.224 656.227 713.392 661.496 710.63C672.534 704.758 683.644 699.053 694.76 693.55L694.742 693.555Z" fill="#BFA4A1"/>
<path d="M885.117 541.15C885.609 540.297 886.075 539.424 886.511 538.515C892.179 527.352 895.796 515.409 895.853 503.626C895.917 491.869 892.174 480.452 885.028 470.963C880.215 464.362 873.915 458.534 866.937 453.384C859.932 448.214 852.034 443.645 843.211 440.065C834.431 436.442 824.583 434.071 814.255 432.957C809.056 432.498 803.79 432.191 798.402 432.402C795.722 432.402 793.018 432.685 790.324 432.82C787.628 433.13 784.911 433.316 782.218 433.755C801.805 430.954 821.719 432.398 838.279 438.344C846.601 441.238 854.155 445.072 860.914 449.462C867.642 453.875 873.732 458.737 878.959 464.175C884.146 469.612 888.341 475.637 891.187 482.086C894.067 488.524 895.521 495.382 895.661 502.232C895.979 515.991 891.303 529.402 885.138 541.158L885.117 541.15Z" fill="#BFA4A1"/>
<path d="M747.365 438.711C745.13 439.4 742.383 440.395 739.339 441.411C736.345 442.527 733.045 443.696 729.843 444.994C723.357 447.514 717.057 450.324 712.823 452.209C707.778 454.596 702.839 457.022 697.917 459.559C705.537 455.751 713.389 452.074 721.401 448.667C729.843 444.994 738.475 441.624 747.361 438.698L747.365 438.711Z" fill="#BFA4A1"/>
<path d="M294.642 695.713C332.782 685.68 369.234 670.942 402.401 652.773C410.676 648.206 418.806 643.482 426.629 638.447C434.487 633.46 442.325 628.231 450.072 623.075C465.589 612.711 480.839 602.228 495.965 591.711C526.217 570.677 555.898 549.459 585.944 528.796C616.023 508.18 646.43 487.941 678.847 469.862C685.133 466.343 691.487 462.861 697.93 459.54C675.446 470.83 654.174 483.498 633.613 496.554C613.056 509.622 593.171 523.134 573.691 536.606C534.766 563.596 497.392 590.506 460.746 615.442C453.536 620.371 444.481 626.506 435.345 632.564C430.779 635.63 426.219 638.533 421.867 641.312C417.426 643.989 413.275 646.56 409.439 648.683C400.455 653.836 391.272 658.658 381.965 663.142C372.661 667.639 363.243 671.896 353.697 675.742C344.158 679.615 334.55 683.204 324.863 686.484C315.164 689.724 305.408 692.662 295.608 695.279C276.025 700.508 256.225 704.321 236.609 706.303C226.805 707.278 217.054 707.756 207.522 707.541C197.99 707.325 188.599 706.468 179.919 704.429C188.212 706.386 197.164 707.294 206.312 707.558C215.46 707.822 224.826 707.45 234.274 706.616C253.189 704.942 272.362 701.311 291.488 696.502C292.56 696.223 293.597 695.955 294.668 695.676L294.642 695.713Z" fill="#BFA4A1"/>
</svg>
