<svg width="329" height="569" viewBox="0 0 329 569" fill="none" xmlns="http://www.w3.org/2000/svg">
<path d="M0.5 35.7691L0.602868 527.774C0.602868 545.575 15.4342 548.3 22.8499 547.437C20.7804 563.168 33.7147 567.791 40.4405 568.136H287.744C303.058 567.722 306.542 554.164 306.37 547.437C324.167 547.437 327.927 534.329 327.582 527.774L327.479 35.7691C327.479 26.455 319.718 20.763 306.784 22.8328C308.026 8.34409 295.919 -0.452617 286.607 0.58229H41.8897C24.9199 0.996253 20.6775 14.5535 20.6775 21.2804C6.60499 18.7967 1.36229 29.9047 0.5 35.7691Z" stroke="#F3F3F3"/>
<path d="M13.5001 51.1587L14.0112 509.001C14.0112 525.444 27.7087 527.961 34.5574 527.165C32.6461 541.695 44.5916 545.965 50.8032 546.284H279.2C293.343 545.902 296.561 533.378 296.401 527.165C312.838 527.165 316.31 515.056 315.992 509.001L315.481 51.1587C315.481 42.5549 308.313 37.297 296.368 39.209C297.515 25.8254 286.334 17.6996 277.733 18.6556H51.7255C36.0531 19.0379 32.1349 31.5612 32.1349 37.775C19.1383 35.4807 14.2965 45.7415 13.5001 51.1587Z" stroke="#F3F3F3"/>
</svg>
